<svg xmlns="http://www.w3.org/2000/svg" viewBox="0 0 1024 1024"><path fill="undefined" d="M73.14 263.31a190.17 190.17 0 0 1 190.17-190.17h497.38a190.17 190.17 0 0 1 190.17 190.17v497.38a190.17 190.17 0 0 1-190.17 190.17h-497.38a190.17 190.17 0 0 1-190.17-190.17v-497.38z m190.17-102.4a102.4 102.4 0 0 0-102.4 102.4v497.38a102.4 102.4 0 0 0 102.4 102.4h497.38a102.4 102.4 0 0 0 102.4-102.4v-497.38a102.4 102.4 0 0 0-102.4-102.4h-497.38z m248.69 149.22a43.89 43.89 0 0 1 43.89 43.88v114.1h114.1a43.89 43.89 0 0 1 0 87.78h-114.1v114.1a43.89 43.89 0 0 1-87.78 0v-114.1h-114.1a43.89 43.89 0 0 1 0-87.78h114.1v-114.1a43.89 43.89 0 0 1 43.89-43.88z"/></svg>