<?xml version="1.0" standalone="no"?><!DOCTYPE svg PUBLIC "-//W3C//DTD SVG 1.1//EN" "http://www.w3.org/Graphics/SVG/1.1/DTD/svg11.dtd">
<svg class="icon" width="200px" height="200.00px" viewBox="0 0 1024 1024" version="1.1" xmlns="http://www.w3.org/2000/svg"><path fill="#333333" d="M888.685714 917.942857h-204.8c-29.257143 0-54.857143-25.6-54.857143-54.857143s25.6-54.857143 54.857143-54.857143h201.142857c29.257143 0 54.857143 25.6 54.857143 54.857143s-21.942857 54.857143-51.2 54.857143zM786.285714 1016.685714c-29.257143 0-54.857143-21.942857-54.857143-54.857143v-201.142857c0-29.257143 25.6-54.857143 54.857143-54.857143s54.857143 25.6 54.857143 54.857143v201.142857c0 32.914286-25.6 54.857143-54.857143 54.857143zM208.457143 1024h-3.657143c-29.257143-3.657143-51.2-29.257143-51.2-58.514286 14.628571-149.942857 142.628571-270.628571 292.571429-270.628571 29.257143 0 54.857143 25.6 54.857142 54.857143S475.428571 804.571429 446.171429 804.571429c-95.085714 0-175.542857 73.142857-186.514286 168.228571 0 29.257143-25.6 51.2-51.2 51.2zM475.428571 548.571429c-43.885714 0-87.771429-21.942857-117.028571-54.857143-18.285714-21.942857-14.628571-58.514286 7.314286-76.8 21.942857-18.285714 58.514286-14.628571 76.8 7.314285 14.628571 18.285714 43.885714 18.285714 58.514285 0 18.285714-21.942857 54.857143-29.257143 76.8-7.314285 21.942857 18.285714 29.257143 54.857143 7.314286 76.8-21.942857 32.914286-65.828571 54.857143-109.714286 54.857143zM475.428571 804.571429C252.342857 804.571429 73.142857 625.371429 73.142857 402.285714S252.342857 0 475.428571 0s402.285714 179.2 402.285715 402.285714c0 58.514286-14.628571 117.028571-36.571429 171.885715-14.628571 25.6-43.885714 40.228571-73.142857 25.6-25.6-14.628571-40.228571-43.885714-25.6-73.142858 18.285714-40.228571 29.257143-80.457143 29.257143-124.342857 0-160.914286-131.657143-292.571429-292.571429-292.571428s-292.571429 131.657143-292.571428 292.571428 131.657143 292.571429 292.571428 292.571429c14.628571 0 32.914286 0 47.542857-3.657143 29.257143-3.657143 58.514286 14.628571 62.171429 43.885714 3.657143 29.257143-14.628571 58.514286-43.885714 62.171429-25.6 7.314286-47.542857 7.314286-69.485715 7.314286z" /></svg>