<?xml version="1.0" standalone="no"?><!DOCTYPE svg PUBLIC "-//W3C//DTD SVG 1.1//EN" "http://www.w3.org/Graphics/SVG/1.1/DTD/svg11.dtd"><svg class="icon" width="200px" height="184.34px" viewBox="0 0 1111 1024" version="1.1" xmlns="http://www.w3.org/2000/svg"><path fill="#333333" d="M1111.771429 365.714286h-87.771429c0-137.508571-111.177143-251.611429-248.685714-251.611429-64.365714 0-125.805714 26.331429-172.617143 70.217143l-5.851429 5.851429c-23.405714 23.405714-61.44 23.405714-84.845714 0-2.925714-2.925714-2.925714-5.851429-5.851429-5.851429-46.811429-43.885714-108.251429-70.217143-172.617142-70.217143C198.948571 114.102857 87.771429 228.205714 87.771429 365.714286H0C0 178.468571 152.137143 26.331429 336.457143 26.331429c81.92 0 157.988571 29.257143 219.428571 81.92C617.325714 55.588571 693.394286 26.331429 775.314286 26.331429 959.634286 26.331429 1111.771429 178.468571 1111.771429 365.714286zM122.88 664.137143c-14.628571 0-26.331429-5.851429-35.108571-17.554286-2.925714-5.851429-8.777143-11.702857-11.702858-17.554286-49.737143-78.994286-76.068571-169.691429-76.068571-263.314285 0-23.405714 20.48-43.885714 43.885714-43.885715s43.885714 20.48 43.885715 43.885715c0 76.068571 20.48 149.211429 61.44 213.577143 2.925714 5.851429 5.851429 8.777143 8.777142 14.628571 14.628571 20.48 8.777143 46.811429-11.702857 61.44-5.851429 5.851429-14.628571 8.777143-23.405714 8.777143z m915.748571-93.622857c-5.851429 0-11.702857 0-14.628571-2.925715-23.405714-8.777143-35.108571-35.108571-23.405714-55.588571 17.554286-46.811429 26.331429-96.548571 26.331428-146.285714-2.925714-23.405714 17.554286-43.885714 40.96-43.885715s43.885714 20.48 43.885715 43.885715c0 61.44-11.702857 122.88-35.108572 178.468571-5.851429 17.554286-20.48 26.331429-38.034286 26.331429zM555.885714 1012.297143c-8.777143 0-20.48-2.925714-29.257143-5.851429-11.702857-5.851429-17.554286-5.851429-20.48-8.777143-172.617143-78.994286-318.902857-201.874286-424.228571-359.862857-14.628571-20.48-8.777143-46.811429 11.702857-61.44s46.811429-8.777143 61.44 11.702857c96.548571 143.36 231.131429 257.462857 389.12 330.605715l2.925714 2.925714c2.925714 0 2.925714 2.925714 8.777143 2.925714l14.628572-5.851428 52.662857-26.331429c20.48-11.702857 46.811429-2.925714 58.514286 17.554286 11.702857 20.48 2.925714 46.811429-17.554286 58.514286-20.48 11.702857-40.96 20.48-58.514286 29.257142l-20.48 8.777143c-8.777143 5.851429-20.48 5.851429-29.257143 5.851429z m-5.851428-84.845714z m11.702857 0zM1038.628571 819.2h-292.571428c-23.405714 0-43.885714-20.48-43.885714-43.885714s20.48-43.885714 43.885714-43.885715h292.571428c23.405714 0 43.885714 20.48 43.885715 43.885715s-20.48 43.885714-43.885715 43.885714zM892.342857 965.485714c-23.405714 0-43.885714-20.48-43.885714-43.885714v-292.571429c0-23.405714 20.48-43.885714 43.885714-43.885714s43.885714 20.48 43.885714 43.885714v292.571429c0 23.405714-20.48 43.885714-43.885714 43.885714z" /></svg>