<svg xmlns="http://www.w3.org/2000/svg" viewBox="0 0 1024 1024"><path fill="#1A1A1A" d="M306.28 533.33h419.05v85.34h-263.61l32.94 51.75-71.98 45.83-116.4-182.92z m-7.61-85.33h423.27l-121.66-173.8-69.91 48.94 27.71 39.53h-259.41v85.33z"/><path fill="#1A1A1A" d="M42.67 128a128 128 0 0 1 128-128h682.66a128 128 0 0 1 128 128v426.67c0 259.2-210.13 469.33-469.33 469.33s-469.33-210.13-469.33-469.33v-426.67z m128-42.67a42.67 42.67 0 0 0-42.67 42.67v426.67c0 212.07 171.93 384 384 384s384-171.93 384-384v-426.67a42.67 42.67 0 0 0-42.67-42.67h-682.66z"/></svg>