<svg xmlns="http://www.w3.org/2000/svg" viewBox="0 0 1024 1024"><path fill="undefined" d="M365.71 73.14a36.57 36.57 0 0 1 36.58 36.57v23.78h219.42v-23.78a36.57 36.57 0 1 1 73.15 0v23.78h36.57c45.35 0 83.75 15.65 110.15 46.66 25.6 30.13 36.13 70.22 36.13 112.42v512c0 42.2-10.61 80.6-38.1 108.18-27.57 27.5-65.97 38.11-108.18 38.11h-438.86c-42.2 0-80.6-10.61-108.18-38.11-27.5-27.57-38.11-65.97-38.1-108.18v-512c0-42.2 10.53-82.29 36.13-112.42 26.4-31.01 64.8-46.67 110.15-46.66h36.57v-23.78a36.57 36.57 0 0 1 36.57-36.57z m-36.57 133.49h-36.57c-27.79 0-44.25 9-54.42 20.99-10.97 12.8-18.72 34.01-18.72 64.95v512c0 30.94 7.68 47.4 16.75 56.39 9 9.07 25.45 16.75 56.39 16.75h438.86c30.94 0 47.4-7.68 56.39-16.75 9.07-9 16.75-25.45 16.75-56.39v-512c0-30.94-7.75-52.15-18.72-64.95-10.17-12-26.62-20.99-54.42-20.99h-36.57v23.77a36.57 36.57 0 0 1-73.15 0v-23.77h-219.42v23.77a36.57 36.57 0 0 1-73.15 0v-23.77z m0 184.68a36.57 36.57 0 0 1 36.57-36.57h146.29a36.57 36.57 0 0 1 0 73.15h-146.29a36.57 36.57 0 0 1-36.57-36.58z m0 160.92a36.57 36.57 0 0 1 36.57-36.57h292.58a36.57 36.57 0 0 1 0 73.14h-292.58a36.57 36.57 0 0 1-36.57-36.57z m0 160.91a36.57 36.57 0 0 1 36.57-36.57h292.58a36.57 36.57 0 0 1 0 73.14h-292.58a36.57 36.57 0 0 1-36.57-36.57z"/></svg>