<svg xmlns="http://www.w3.org/2000/svg" viewBox="0 0 1024 1024"><path fill="undefined" d="M362.5 99.47a43.89 43.89 0 0 1-22.68 57.79 431.91 431.91 0 0 0-186.22 156.45 43.89 43.89 0 0 1-73.14-48.57 519.68 519.68 0 0 1 224.25-188.34 43.89 43.89 0 0 1 57.79 22.67z m299 0a43.89 43.89 0 0 1 57.79-22.67 519.68 519.68 0 0 1 224.25 188.34 43.89 43.89 0 1 1-73.14 48.57 431.91 431.91 0 0 0-186.22-156.53 43.89 43.89 0 0 1-22.68-57.78z m-149.5 140.44a311.59 311.59 0 1 0 0 623.18 311.59 311.59 0 0 0 0-623.18z m-399.36 311.59a399.36 399.36 0 1 1 720.97 236.83l69.05 92.38a43.89 43.89 0 0 1-70.29 52.52l-59.4-79.43a397.82 397.82 0 0 1-260.97 97.06 397.9 397.9 0 0 1-260.97-97.06l-59.32 79.43a43.89 43.89 0 0 1-70.37-52.52l69.05-92.38a397.53 397.53 0 0 1-77.75-236.83z m399.36-241.37a43.89 43.89 0 0 1 43.89 43.88v174.01l98.96 65.97a43.89 43.89 0 1 1-48.72 73l-118.49-78.99a43.89 43.89 0 0 1-19.53-36.5v-197.49a43.89 43.89 0 0 1 43.89-43.88z"/></svg>