<svg xmlns="http://www.w3.org/2000/svg" viewBox="0 0 1024 1024"><path fill="undefined" d="M73.14 226.74c0-84.85 68.75-153.6 153.6-153.6h109.72c84.85 0 153.6 68.75 153.6 153.6v109.72a153.6 153.6 0 0 1-153.6 153.6h-109.72a153.6 153.6 0 0 1-153.6-153.6v-109.72z m153.6-65.83a65.83 65.83 0 0 0-65.83 65.83v109.72a65.83 65.83 0 0 0 65.83 65.83h109.72a65.83 65.83 0 0 0 65.83-65.83v-109.72a65.83 65.83 0 0 0-65.83-65.83h-109.72z m307.2 65.83c0-84.85 68.75-153.6 153.6-153.6h109.72c84.85 0 153.6 68.75 153.6 153.6v109.72a153.6 153.6 0 0 1-153.6 153.6h-109.72a153.6 153.6 0 0 1-153.6-153.6v-109.72z m153.6-65.83a65.83 65.83 0 0 0-65.83 65.83v109.72a65.83 65.83 0 0 0 65.83 65.83h109.72a65.83 65.83 0 0 0 65.83-65.83v-109.72a65.83 65.83 0 0 0-65.83-65.83h-109.72z m-614.4 526.63c0-84.85 68.75-153.6 153.6-153.6h109.72c84.85 0 153.6 68.75 153.6 153.6v109.72a153.6 153.6 0 0 1-153.6 153.6h-109.72a153.6 153.6 0 0 1-153.6-153.6v-109.72z m153.6-65.83a65.83 65.83 0 0 0-65.83 65.83v109.72a65.83 65.83 0 0 0 65.83 65.83h109.72a65.83 65.83 0 0 0 65.83-65.83v-109.72a65.83 65.83 0 0 0-65.83-65.83h-109.72z m307.2 65.83c0-84.85 68.75-153.6 153.6-153.6h109.72c84.85 0 153.6 68.75 153.6 153.6v109.72a153.6 153.6 0 0 1-153.6 153.6h-109.72a153.6 153.6 0 0 1-153.6-153.6v-109.72z m153.6-65.83a65.83 65.83 0 0 0-65.83 65.83v109.72a65.83 65.83 0 0 0 65.83 65.83h109.72a65.83 65.83 0 0 0 65.83-65.83v-109.72a65.83 65.83 0 0 0-65.83-65.83h-109.72z"/></svg>