<svg xmlns="http://www.w3.org/2000/svg" viewBox="0 0 1024 1024"><path fill="undefined" d="M468.11 117.03a351.09 351.09 0 1 0 0 702.17 351.09 351.09 0 0 0 0-702.17z m-438.85 351.08a438.86 438.86 0 1 1 877.71 0 438.86 438.86 0 0 1-877.71 0z m376.68-198.51a43.89 43.89 0 0 1 27.07 40.53v315.97a43.89 43.89 0 0 1-87.78 0v-209.99l-4.09 4.02a43.89 43.89 0 0 1-62.03-62.02l79-79a43.89 43.89 0 0 1 47.83-9.51z m141.17-3.36a43.89 43.89 0 0 1 43.88 43.89v210.06l4.1-4.09a43.89 43.89 0 0 1 62.03 62.02l-79 79a43.89 43.89 0 0 1-74.9-31.02v-315.97a43.89 43.89 0 0 1 43.89-43.89z"/></svg>