<svg xmlns="http://www.w3.org/2000/svg" viewBox="0 0 1024 1024"><path fill="undefined" d="M727.77 86.02a43.89 43.89 0 0 1 62.17 0l147.97 148.04a43.89 43.89 0 0 1-31.01 74.9h-716.73a29.26 29.26 0 0 0-29.26 29.25v223.09a43.89 43.89 0 0 1-87.77 0v-223.09a117.03 117.03 0 0 1 117.03-117.03h610.82l-73.15-73.14a43.89 43.89 0 0 1 0-62.17z m179.2 332.72a43.89 43.89 0 0 1 43.89 43.89v223.08a117.03 117.03 0 0 1-117.03 117.03h-610.82l73.15 73.15a43.89 43.89 0 0 1-62.03 62.17l-148.11-148.19a43.89 43.89 0 0 1 31.01-74.9h716.8a29.26 29.26 0 0 0 29.26-29.26v-223.08a43.89 43.89 0 0 1 43.88-43.89z"/></svg>