<svg xmlns="http://www.w3.org/2000/svg" viewBox="0 0 1024 1024"><path fill="undefined" d="M512 160.91a351.09 351.09 0 1 0 0 702.18 351.09 351.09 0 0 0 0-702.18z m-438.86 351.09a438.86 438.86 0 1 1 877.72 0 438.86 438.86 0 0 1-877.72 0z m486.84-189a43.89 43.89 0 0 1 62.03 0l78.99 78.99a43.89 43.89 0 0 1-31.01 74.9h-315.98a43.89 43.89 0 0 1 0-87.77h209.99l-4.02-4.1a43.89 43.89 0 0 1 0-62.02z m-246.49 251.17a43.89 43.89 0 0 1 40.52-27.06h315.98a43.89 43.89 0 0 1 0 87.77h-209.99l4.02 4.1a43.89 43.89 0 1 1-62.03 62.02l-78.99-78.99a43.89 43.89 0 0 1-9.51-47.84z"/></svg>