<svg xmlns="http://www.w3.org/2000/svg" viewBox="0 0 1024 1024"><path fill="undefined" d="M480.99 86.02a43.89 43.89 0 0 1 62.02 0l131.66 131.65a43.89 43.89 0 0 1-62.03 62.03l-56.75-56.61v245.02h245.1l-56.69-56.75a43.89 43.89 0 0 1 62.03-62.03l131.65 131.66a43.89 43.89 0 0 1 0 62.02l-131.65 131.66a43.89 43.89 0 0 1-62.03-62.03l56.69-56.75h-245.1v245.1l56.75-56.69a43.89 43.89 0 0 1 62.03 62.03l-131.66 131.65a43.89 43.89 0 0 1-62.02 0l-131.66-131.65a43.89 43.89 0 0 1 62.03-62.03l56.75 56.69v-245.1h-245.1l56.69 56.75a43.89 43.89 0 1 1-62.03 62.03l-131.65-131.66a43.89 43.89 0 0 1 0-62.02l131.65-131.66a43.89 43.89 0 1 1 62.03 62.03l-56.61 56.75h245.02v-245.1l-56.75 56.69a43.89 43.89 0 1 1-62.03-62.03l131.66-131.65z"/></svg>