<svg xmlns="http://www.w3.org/2000/svg" viewBox="0 0 1024 1024"><path fill="undefined" d="M602.99 234.79a43.89 43.89 0 0 1 61.88-4.83l124.34 106.64a43.89 43.89 0 0 1 0 66.56l-124.34 106.65a43.89 43.89 0 1 1-57.05-66.64l34.23-29.4h-378.74a43.89 43.89 0 0 1 0-87.77h378.74l-34.23-29.33a43.89 43.89 0 0 1-4.83-61.88z m-181.98 284.16a43.89 43.89 0 0 1-4.83 61.88l-34.23 29.4h378.74a43.89 43.89 0 1 1 0 87.77h-378.74l34.23 29.33a43.89 43.89 0 0 1-57.05 66.71l-124.34-106.64a43.89 43.89 0 0 1 0-66.56l124.34-106.65a43.89 43.89 0 0 1 61.88 4.76z"/></svg>