<?xml version="1.0" standalone="no"?><!DOCTYPE svg PUBLIC "-//W3C//DTD SVG 1.1//EN" "http://www.w3.org/Graphics/SVG/1.1/DTD/svg11.dtd"><svg class="icon" width="200px" height="200.00px" viewBox="0 0 1024 1024" version="1.1" xmlns="http://www.w3.org/2000/svg"><path fill="#333333" d="M512 1024C230.4 1024 0 793.6 0 512S230.4 0 512 0s512 230.4 512 512-230.4 512-512 512z m0-938.666667C277.333333 85.333333 85.333333 277.333333 85.333333 512s192 426.666667 426.666667 426.666667 426.666667-192 426.666667-426.666667S746.666667 85.333333 512 85.333333zM512 614.4c-25.6 0-42.666667-17.066667-42.666667-42.666667v-38.4c0-29.866667 21.333333-59.733333 55.466667-64 8.533333 0 12.8-4.266667 12.8-4.266666 25.6-8.533333 38.4-34.133333 38.4-59.733334 0-34.133333-29.866667-64-64-64s-64 29.866667-64 64c0 25.6-17.066667 42.666667-42.666667 42.666667s-42.666667-17.066667-42.666666-42.666667C362.666667 324.266667 430.933333 256 512 256s149.333333 68.266667 149.333333 149.333333c0 59.733333-38.4 115.2-93.866666 136.533334-4.266667 0-8.533333 4.266667-12.8 4.266666v21.333334c0 25.6-17.066667 46.933333-42.666667 46.933333zM512 725.333333m-64 0a64 64 0 1 0 128 0 64 64 0 1 0-128 0Z" /></svg>