<svg xmlns="http://www.w3.org/2000/svg" viewBox="0 0 1024 1024"><path fill="#1A1A1A" d="M512 341.33a64 64 0 0 0-64 64h-85.33a149.33 149.33 0 1 1 192 143.15v48.85h-85.34v-128h42.67a64 64 0 1 0 0-128z m64 362.67a64 64 0 1 1-128 0 64 64 0 0 1 128 0z"/><path fill="#1A1A1A" d="M1024 512c0 282.77-229.23 512-512 512s-512-229.23-512-512 229.23-512 512-512 512 229.23 512 512z m-85.33 0c0-235.65-191.02-426.67-426.67-426.67s-426.67 191.02-426.67 426.67 191.02 426.67 426.67 426.67 426.67-191.02 426.67-426.67z"/></svg>