<?xml version="1.0" standalone="no"?><!DOCTYPE svg PUBLIC "-//W3C//DTD SVG 1.1//EN" "http://www.w3.org/Graphics/SVG/1.1/DTD/svg11.dtd"><svg class="icon" width="200px" height="200.00px" viewBox="0 0 1024 1024" version="1.1" xmlns="http://www.w3.org/2000/svg"><path fill="#333333" d="M512 1024C228.430769 1024 0 795.569231 0 512S228.430769 0 512 0 1024 228.430769 1024 512 795.569231 1024 512 1024z m0-945.230769C273.066667 78.769231 78.769231 273.066667 78.769231 512S273.066667 945.230769 512 945.230769 945.230769 750.933333 945.230769 512 750.933333 78.769231 512 78.769231zM512 603.897436c-21.005128 0-39.384615-18.379487-39.384615-39.384615v-44.635898c0-26.25641 18.379487-49.887179 44.635897-52.51282 13.128205-2.625641 18.379487-2.625641 18.379487-2.625641 23.630769-10.502564 39.384615-34.133333 39.384616-57.764103 0-34.133333-28.882051-63.015385-65.641026-63.015385s-65.641026 28.882051-65.641026 63.015385c0 21.005128-18.379487 39.384615-39.384615 39.384615s-36.758974-18.379487-36.758974-42.010256c0-78.769231 65.641026-141.784615 144.410256-141.784615s144.410256 63.015385 144.410256 141.784615c0 57.764103-34.133333 110.276923-89.271794 131.282051-5.251282 2.625641-10.502564 2.625641-15.753847 5.251282v23.63077c0 21.005128-18.379487 39.384615-39.384615 39.384615zM512 722.051282m-65.641026 0a65.641026 65.641026 0 1 0 131.282052 0 65.641026 65.641026 0 1 0-131.282052 0Z" /></svg>