<svg xmlns="http://www.w3.org/2000/svg" viewBox="0 0 1024 1024"><path fill="undefined" d="M512 160.91c-122.08 0-225.28 92.31-239.54 215.41l-15.44 133.63a209.7 209.7 0 0 1-49.88 113.37 38.77 38.77 0 0 0 28.53 64.22h552.74a38.77 38.77 0 0 0 28.45-64.29 209.7 209.7 0 0 1-49.81-113.3l-15.51-133.63c-14.19-123.1-117.39-215.41-239.54-215.41z m-326.73 205.39c19.31-166.84 159.45-293.16 326.73-293.16 167.28 0 307.49 126.32 326.73 293.16l15.51 133.56c2.78 24.5 12.95 47.47 28.89 65.83 70.44 81.26 13.97 209.63-94.72 209.62h-140.95a43.89 43.89 0 0 1 39.94 59.54c-26.48 69.19-96.33 116-175.4 116.01-79.07 0-148.92-46.81-175.4-116.01a43.89 43.89 0 0 1 40.01-59.54h-141.09c-108.69 0-165.16-128.37-94.72-209.55 16.02-18.43 26.11-41.4 28.96-65.83l15.36-133.63z m193.32 409.01a43.89 43.89 0 0 1 40.01 28.24c12.65 33.06 48.42 59.54 93.4 59.54 45.06 0 80.75-26.48 93.4-59.54a43.89 43.89 0 0 1 40.01-28.24h-266.82z"/></svg>