<svg xmlns="http://www.w3.org/2000/svg" viewBox="0 0 1024 1024"><path fill="undefined" d="M374.56 67.07a43.89 43.89 0 0 1-28.3 55.15l-6.95 2.2a220.16 220.16 0 0 0-141.82 136.48l-2.34 6.58a43.89 43.89 0 1 1-82.95-28.67l2.34-6.58c31.38-91.06 105.03-161.57 197.93-191.42l6.94-2.19a43.89 43.89 0 0 1 55.15 28.38z m274.88 0a43.89 43.89 0 0 1 55.22-28.38l6.87 2.2c92.89 29.84 166.62 100.35 198.07 191.19l2.27 6.59a43.89 43.89 0 0 1-82.94 28.74l-2.27-6.58a220.16 220.16 0 0 0-142.04-136.34l-6.88-2.2a43.89 43.89 0 0 1-28.38-55.22z m-137.44 143.58c-122.66 0-225.43 91.14-239.54 211.31l-15.44 131.37a205.6 205.6 0 0 1-50.1 111.98 37.3 37.3 0 0 0 28.67 61.73h552.82a37.3 37.3 0 0 0 28.67-61.73 205.68 205.68 0 0 1-50.03-111.98l-15.51-131.37c-14.12-120.17-116.88-211.31-239.54-211.31z m-326.73 201.14c19.38-165.01 160.11-288.91 326.73-288.91s307.35 123.9 326.73 288.84l15.43 131.37c2.85 23.7 12.8 46.08 28.75 64.22 71.75 81.33 12.87 207.51-94.5 207.5h-130.71a43.89 43.89 0 0 1 29.62 58.3c-26.7 68.61-96.69 114.32-175.32 114.32s-148.63-45.79-175.25-114.25a43.89 43.89 0 0 1 29.62-58.37h-130.85c-107.37 0-166.25-126.17-94.5-207.5 15.95-18.07 25.97-40.52 28.74-64.22l15.44-131.37z m203.56 403.09a43.81 43.81 0 0 1 29.69 26.56c12.43 32.04 48.05 58.29 93.48 58.29 45.49 0 81.04-26.33 93.48-58.29a43.81 43.81 0 0 1 29.69-26.56h-246.34z"/></svg>