<svg xmlns="http://www.w3.org/2000/svg" viewBox="0 0 1024 1024"><path fill="undefined" d="M86.02 86.02a43.89 43.89 0 0 1 62.02 0l614.4 614.4 175.54 175.54a43.89 43.89 0 0 1-62.02 62.02l-162.82-162.67h-68.53a43.89 43.89 0 0 1 40.08 59.25c-25.75 69.05-94.28 116.3-172.69 116.3-78.34 0-146.94-47.32-172.76-116.3a43.89 43.89 0 0 1 40.08-59.25h-138.09c-108.84 0-161.65-129.32-93.77-209.18a123.61 123.61 0 0 0 28.45-66.13l15.14-133.63c3.58-31.74 11.48-62.03 23.04-90.26l-128.07-128a43.89 43.89 0 0 1 0-62.17z m197.55 259.65a253.37 253.37 0 0 0-5.33 30.58l-15.15 133.63a211.38 211.38 0 0 1-48.71 113.08c-22.82 26.77-2.05 64.59 26.85 64.58h384.21l-341.87-341.87z m97.8 429.64a43.89 43.89 0 0 1 40.08 28.53c12.43 33.28 47.32 59.25 90.55 59.25 43.15 0 78.04-25.97 90.55-59.25a43.89 43.89 0 0 1 40.08-28.53h-261.26z m130.63-614.4c-51.2 0-98.96 16.97-138.02 46.3a43.89 43.89 0 1 1-52.66-70.21 316.93 316.93 0 0 1 190.68-63.86c165.01 0 302.15 127.12 320.95 293.23l15.14 133.63c2.78 24.65 12.8 47.69 28.45 66.13a127.27 127.27 0 0 1 20.63 131.65 43.89 43.89 0 1 1-81.19-33.42 39.5 39.5 0 0 0-6.36-41.4 211.38 211.38 0 0 1-48.71-113.08l-15.15-133.63c-14.04-123.83-115.42-215.33-233.76-215.34z"/></svg>