<svg xmlns="http://www.w3.org/2000/svg" viewBox="0 0 1024 1024"><path fill="undefined" d="M513.83 110.59a43.89 43.89 0 0 0-49.88-36.94c-145.55 21.58-261.34 139.56-278.68 290.53l-15.58 134.14a122.88 122.88 0 0 1-28.96 66.27c-70.14 81.19-14.19 210.07 94.79 210.07h552.81c108.98 0 164.94-128.88 94.8-210.07a122.88 122.88 0 0 1-28.97-66.27l-10.24-88.65a43.89 43.89 0 0 0-87.18 10.1l10.24 88.57a210.65 210.65 0 0 0 49.73 113.67c22.45 25.97 3.22 64.88-28.38 64.87h-552.74c-31.6 0-50.83-38.91-28.38-64.87a210.65 210.65 0 0 0 49.74-113.67l15.51-134.07c12.8-111.69 98.3-198.07 204.36-213.79a43.89 43.89 0 0 0 37.01-49.89z m-151.85 667.28a43.89 43.89 0 0 1 56.62 25.38c12.73 33.35 48.49 59.83 93.4 59.84 44.91 0 80.68-26.55 93.4-59.84a43.89 43.89 0 0 1 82 31.24c-26.4 69.34-96.26 116.37-175.4 116.37-79.21 0-148.99-47.03-175.4-116.37a43.89 43.89 0 0 1 25.38-56.62z"/><path fill="undefined" d="M804.57 182.86a109.71 109.71 0 1 1-219.43 0 109.71 109.71 0 0 1 219.43 0z"/></svg>