<svg xmlns="http://www.w3.org/2000/svg" viewBox="0 0 1024 1024"><path fill="undefined" d="M487.64 80.46a43.89 43.89 0 0 1 48.72 0l225.93 150.67h43.16c80.31 0 145.41 65.1 145.41 145.48v428.77c0 80.38-65.1 145.48-145.48 145.48h-586.68a145.48 145.48 0 0 1-145.56-145.48v-428.69c0-80.46 65.1-145.55 145.48-145.56h43.16l225.79-150.67z m-213.21 238.44h-55.81a57.71 57.71 0 0 0-57.71 57.71v428.77c0 31.89 25.82 57.71 57.71 57.71h586.76a57.71 57.71 0 0 0 57.71-57.71v-428.69a57.71 57.71 0 0 0-57.71-57.71h-530.95z m329.58-87.77h-184.02l92.01-61.37 92.01 61.37z m-333.38 201.88a43.89 43.89 0 0 1 43.88-43.89h394.98a43.89 43.89 0 1 1 0 87.77h-394.98a43.89 43.89 0 0 1-43.88-43.88z m0 157.98a43.89 43.89 0 0 1 43.88-43.88h394.98a43.89 43.89 0 1 1 0 87.77h-394.98a43.89 43.89 0 0 1-43.88-43.89z m0 157.99a43.89 43.89 0 0 1 43.88-43.88h197.49a43.89 43.89 0 0 1 0 87.77h-197.49a43.89 43.89 0 0 1-43.88-43.89z"/></svg>