<svg xmlns="http://www.w3.org/2000/svg" viewBox="0 0 1024 1024"><path fill="undefined" d="M73.14 252.42a179.27 179.27 0 0 1 179.28-179.28h519.16a179.27 179.27 0 0 1 179.28 179.28v519.16a179.27 179.27 0 0 1-179.28 179.28h-519.24a179.27 179.27 0 0 1-179.2-179.28v-519.24z m552.96-91.51h-228.2v245.11l55.15-55.08a83.38 83.38 0 0 1 117.9 0l55.15 55.08v-245.11z m-315.97 0h-57.71c-50.47 0-91.5 40.96-91.51 91.51v519.16c0 50.47 40.96 91.5 91.51 91.51h519.16c50.47 0 91.5-40.96 91.51-91.51v-519.24c0-50.47-40.96-91.5-91.51-91.5h-57.71v255.71c0 74.31-89.82 111.54-142.33 58.95l-59.54-59.32-59.54 59.47c-52.52 52.59-142.34 15.36-142.33-58.96v-255.78z"/></svg>