<svg xmlns="http://www.w3.org/2000/svg" viewBox="0 0 1024 1024"><path fill="undefined" d="M73.14 259.36c0-67.07 58.51-119.44 127.13-112.42 89.67 9.14 215.63 34.08 308.22 92.9 1.83 1.1 5.19 1.1 7.02 0 92.6-58.81 218.55-83.75 308.22-92.9 68.61-7.02 127.12 45.35 127.13 112.42v402.8c0 68.1-57.93 115.2-118.2 121.42-85.58 8.7-195 31.96-270.19 79.65a95.16 95.16 0 0 1-100.94 0c-75.19-47.69-184.61-70.95-270.19-79.72-60.27-6.14-118.2-53.25-118.2-121.35v-402.8z m394.97 58.37a91.36 91.36 0 0 1-6.58-3.8c-75.19-47.69-184.61-70.95-270.19-79.73-18.14-1.83-30.43 11.34-30.43 25.16v402.8c0 12.87 12.87 31.31 39.36 34.01 77.24 7.9 181.32 27.5 267.84 70.29v-448.73z m87.78 448.73c86.53-42.79 190.61-62.39 267.84-70.21 26.48-2.78 39.35-21.21 39.36-34.09v-402.8c0-13.82-12.29-26.99-30.43-25.16-85.58 8.78-195 32.04-270.19 79.73-2.19 1.39-4.39 2.63-6.58 3.8v448.73z m-363.82-394.46a43.89 43.89 0 0 1 49.52-37.37c51.93 7.31 110.74 19.46 166.4 38.98a43.89 43.89 0 0 1-28.96 82.8 796.09 796.09 0 0 0-149.58-34.89 43.89 43.89 0 0 1-37.38-49.52z m0 143a43.89 43.89 0 0 1 49.52-37.3c26.33 3.66 54.35 8.56 82.65 15.06a43.89 43.89 0 0 1-19.53 85.58c-25.6-5.85-51.13-10.39-75.33-13.75a43.89 43.89 0 0 1-37.31-49.59z"/></svg>