<svg xmlns="http://www.w3.org/2000/svg" viewBox="0 0 1024 1024"><path fill="undefined" d="M512 0c23.7 0 42.86 19.68 42.86 43.89v46.81c0 24.21-19.16 43.89-42.86 43.88a43.37 43.37 0 0 1-42.86-43.88v-46.81c0-24.21 19.16-43.89 42.86-43.89z m-433.08 256a42.35 42.35 0 0 1 58.52-16.09l39.64 23.4c20.48 12.14 27.5 38.99 15.65 59.98a42.35 42.35 0 0 1-58.51 16.09l-39.65-23.4a44.47 44.47 0 0 1-15.65-59.98z m866.16 0a44.47 44.47 0 0 1-15.65 59.98l-39.65 23.4a42.35 42.35 0 0 1-58.51-16.09 44.47 44.47 0 0 1 15.65-59.98l39.64-23.4a42.35 42.35 0 0 1 58.52 16.09z m-752.35 444.71a44.47 44.47 0 0 1-15.65 59.98l-39.64 23.4a42.35 42.35 0 0 1-58.52-16.09 44.47 44.47 0 0 1 15.65-59.98l39.65-23.4a42.35 42.35 0 0 1 58.51 16.09z m638.54 0a42.35 42.35 0 0 1 58.51-16.09l39.65 23.4c20.48 12.14 27.5 38.99 15.65 59.98a42.35 42.35 0 0 1-58.52 16.09l-39.64-23.4a44.47 44.47 0 0 1-15.65-59.98z m-319.27 188.71c23.7 0 42.86 19.68 42.86 43.88v46.81c0 24.21-19.16 43.89-42.86 43.89a43.37 43.37 0 0 1-42.86-43.89v-46.81c0-24.21 19.16-43.89 42.86-43.88z m0-614.4a236.98 236.98 0 1 0 0 473.96 236.98 236.98 0 0 0 0-473.96z m-324.75 236.98a324.75 324.75 0 1 1 649.5 0 324.75 324.75 0 0 1-649.5 0z"/></svg>