<svg xmlns="http://www.w3.org/2000/svg" viewBox="0 0 1024 1024"><path fill="undefined" d="M1024 376.47c0-58.88-47.91-106.79-106.86-106.79h-253.3v-65.1a131.66 131.66 0 0 0-131.58-131.44h-35.25a131.66 131.66 0 0 0-131.52 131.51v64.95h-258.7c-58.88 0-106.79 47.91-106.79 106.79 0 48.13 32.18 88.36 76 101.74 0 0 14.48 4.97 30.35 4.76v356.5c0 76.65 55.15 111.47 102.47 111.47h605.04c47.32 0 103.86-32.04 103.86-111.47v-358.84c23.7 0 36.94-4.53 36.94-4.54 40.37-15.21 69.34-53.98 69.34-99.62z m-592.46-171.89c0-35.99 29.4-65.39 65.47-65.39h35.25c36.13 0 65.54 29.4 65.54 65.46v64.95h-166.26v-64.95z m382.32 680.23h-54.13v-135.39a32.91 32.91 0 1 0-65.97 0v135.39h-145.41v-135.39a32.91 32.91 0 1 0-65.97 0v135.39h-145.41v-135.39a32.91 32.91 0 1 0-65.98 0v135.39h-62.17c-18.36 0-36.35-20.77-36.35-45.42v-356.21h679.21v356.06c0 24.8-15.51 45.57-37.82 45.57z m103.35-467.68h-810.42a40.74 40.74 0 0 1 0-81.48h810.35a40.74 40.74 0 1 1 0.07 81.41z"/></svg>