<svg xmlns="http://www.w3.org/2000/svg" viewBox="0 0 1024 1024"><path fill="undefined" d="M73.14 275.02a201.87 201.87 0 0 1 201.88-201.88h473.96a201.87 201.87 0 0 1 201.88 201.88v473.96a201.87 201.87 0 0 1-201.88 201.88h-473.96a201.87 201.87 0 0 1-201.88-201.88v-473.96z m201.88-114.11a114.1 114.1 0 0 0-114.11 114.11v473.96c0 63.05 51.05 114.1 114.11 114.11h473.96a114.1 114.1 0 0 0 114.11-114.11v-473.96a114.1 114.1 0 0 0-114.11-114.11h-473.96z m67.73 104.09a43.89 43.89 0 0 1 43.88 43.88v15.36h15.36a43.89 43.89 0 0 1 0 87.77h-15.36v15.36a43.89 43.89 0 1 1-87.77 0v-15.36h-15.36a43.89 43.89 0 1 1 0-87.77h15.36v-15.36a43.89 43.89 0 0 1 43.89-43.88z m204.36 103.13a43.89 43.89 0 0 1 43.88-43.89h157.99a43.89 43.89 0 1 1 0 87.77h-157.99a43.89 43.89 0 0 1-43.88-43.88z m0 253.88a43.89 43.89 0 0 1 43.88-43.89h157.99a43.89 43.89 0 1 1 0 87.77h-157.99a43.89 43.89 0 0 1-43.88-43.88z m-294.69-31.02a43.89 43.89 0 0 1 62.09 0l28.24 28.24 28.16-28.24a43.89 43.89 0 0 1 62.1 62.1l-28.24 28.16 28.24 28.24a43.89 43.89 0 1 1-62.1 62.09l-28.16-28.23-28.24 28.23a43.89 43.89 0 0 1-62.17-62.09l28.24-28.24-28.24-28.16a43.89 43.89 0 0 1 0-62.1z m294.69 149.51a43.89 43.89 0 0 1 43.88-43.89h157.99a43.89 43.89 0 1 1 0 87.77h-157.99a43.89 43.89 0 0 1-43.88-43.88z"/></svg>