<svg xmlns="http://www.w3.org/2000/svg" viewBox="0 0 1024 1024"><path fill="undefined" d="M297.47 191.41h-70.73a65.83 65.83 0 0 0-65.83 65.83v103.06h702.18v-103.13a65.83 65.83 0 0 0-65.83-65.83h-70.73v48.79a43.89 43.89 0 0 1-87.77 0v-48.72h-253.52v48.72a43.89 43.89 0 0 1-87.77 0v-48.72z m-136.56 256.66v349.19a65.83 65.83 0 0 0 65.83 65.83h570.52a65.83 65.83 0 0 0 65.83-65.83v-349.19h-702.18z m563.57-344.5h72.78c84.85 0 153.6 68.75 153.6 153.6v540.09a153.6 153.6 0 0 1-153.6 153.6h-570.52a153.6 153.6 0 0 1-153.6-153.6v-540.02c0-84.85 68.75-153.6 153.6-153.6h72.78a43.89 43.89 0 0 1 83.6 0h257.76a43.89 43.89 0 0 1 83.6 0z"/></svg>