<svg xmlns="http://www.w3.org/2000/svg" viewBox="0 0 1024 1024"><path fill="undefined" d="M49.44 49.44a43.89 43.89 0 0 1 62.03 0l863.09 863.09a43.89 43.89 0 0 1-62.03 62.03l-276.63-276.63a173.35 173.35 0 1 1-245.1-245.1l-156.01-155.87h-44.62a65.83 65.83 0 0 0-65.83 65.83v427.88a65.83 65.83 0 0 0 65.83 65.83h580.76a43.89 43.89 0 1 1 0 87.77h-580.76a153.6 153.6 0 0 1-153.6-153.6v-427.88a153.6 153.6 0 0 1 115.35-148.77l-102.48-102.55a43.89 43.89 0 0 1 0-62.03z m403.31 465.49a85.58 85.58 0 1 0 120.98 120.97l-120.9-120.97z m-24.13-347.43a42.42 42.42 0 0 0-35.26 18.87l-8.92 13.38a43.89 43.89 0 1 1-73-48.71l8.85-13.31a130.19 130.19 0 0 1 108.4-58h166.47c43.59 0 84.19 21.72 108.4 58l47.62 71.46h82.65c84.85 0 153.6 68.75 153.6 153.6v364.98a43.89 43.89 0 1 1-87.77 0v-364.98a65.83 65.83 0 0 0-65.83-65.83h-106.06a43.89 43.89 0 0 1-36.57-19.53l-60.64-91.06a42.42 42.42 0 0 0-35.32-18.87h-166.48z"/><path fill="undefined" d="M561.96 263.31a42.64 42.64 0 1 1-85.29 0 42.64 42.64 0 0 1 85.29 0z"/></svg>