<svg xmlns="http://www.w3.org/2000/svg" viewBox="0 0 1024 1024"><path fill="undefined" d="M566.13 257.46a46.81 46.81 0 1 1-93.63 0 46.81 46.81 0 0 1 93.63 0z"/><path fill="undefined" d="M413.11 160.91a43.89 43.89 0 0 0-39.86 25.53l-37.16 80.53a43.89 43.89 0 0 1-39.86 25.6h-106.06a65.83 65.83 0 0 0-65.83 65.83v438.86a65.83 65.83 0 0 0 65.83 65.83h643.66a65.83 65.83 0 0 0 65.83-65.83v-438.86a65.83 65.83 0 0 0-65.83-65.83h-106.06a43.89 43.89 0 0 1-39.86-25.53l-37.16-80.53a43.89 43.89 0 0 0-39.86-25.52h-197.78z m-119.59-11.26a131.66 131.66 0 0 1 119.59-76.51h197.78a131.66 131.66 0 0 1 119.59 76.51l25.38 55.15h77.97c84.85 0 153.6 68.75 153.6 153.6v438.86a153.6 153.6 0 0 1-153.6 153.6h-643.66a153.6 153.6 0 0 1-153.6-153.6v-438.86c0-84.85 68.75-153.6 153.6-153.6h77.97l25.38-55.08z m225.79 340.41a96.55 96.55 0 1 0 0 193.09 96.55 96.55 0 0 0 0-193.09z m-184.32 96.55a184.32 184.32 0 1 1 368.64 0 184.32 184.32 0 0 1-368.64 0z"/></svg>