<?xml version="1.0" standalone="no"?><!DOCTYPE svg PUBLIC "-//W3C//DTD SVG 1.1//EN" "http://www.w3.org/Graphics/SVG/1.1/DTD/svg11.dtd"><svg class="icon" width="200px" height="193.03px" viewBox="0 0 1061 1024" version="1.1" xmlns="http://www.w3.org/2000/svg"><path fill="#333333" d="M948.148148 1024c41.718519 0 75.851852-34.133333 75.851852-75.851852s-34.133333-75.851852-75.851852-75.851852-75.851852 34.133333-75.851852 75.851852 34.133333 75.851852 75.851852 75.851852zM754.725926 872.296296h-352.711111v-113.777777h352.711111c68.266667 0 128.948148-49.303704 136.533333-117.570371l37.925926-261.688889v-7.585185c0-34.133333-26.548148-68.266667-56.888889-68.266667H250.311111l37.925926 352.711112-113.777778 11.377777L125.155556 189.62963H872.296296c94.814815 0 174.459259 83.437037 174.45926 182.044444v22.755556l-41.718519 261.688889c-18.962963 121.362963-128.948148 216.177778-250.311111 216.177777zM246.518519 1024c-56.888889 0-106.192593-22.755556-147.911112-60.681481-37.925926-37.925926-60.681481-91.022222-60.681481-147.911112s22.755556-106.192593 60.681481-147.911111c37.925926-37.925926 91.022222-60.681481 147.911112-60.681481s109.985185 22.755556 147.911111 60.681481S455.111111 758.518519 455.111111 815.407407s-22.755556 109.985185-60.681481 147.911112C352.711111 1001.244444 303.407407 1024 246.518519 1024z m0-303.407407c-26.548148 0-49.303704 11.377778-68.266667 26.548148-15.17037 18.962963-26.548148 41.718519-26.548148 68.266666s11.377778 49.303704 26.548148 68.266667c34.133333 34.133333 98.607407 34.133333 132.740741 0 18.962963-18.962963 30.340741-41.718519 30.34074-68.266667s-11.377778-49.303704-26.548148-68.266666c-18.962963-15.17037-41.718519-26.548148-68.266666-26.548148zM197.214815 356.503704c-26.548148 0-53.096296-18.962963-56.888889-49.303704l-18.962963-113.777778c-3.792593-26.548148-22.755556-45.511111-53.096296-45.511111S11.377778 121.362963 11.377778 91.022222 37.925926 34.133333 68.266667 34.133333c87.22963 0 155.496296 64.474074 166.874074 147.911111l18.962963 109.985186c3.792593 30.340741-15.17037 60.681481-45.511111 64.474074h-11.377778z" /></svg>