<svg xmlns="http://www.w3.org/2000/svg" viewBox="0 0 1024 1024"><path fill="undefined" d="M451.73 356.64a43.89 43.89 0 0 1 62.03 0l42.13 42.06 42.13-42.06a43.89 43.89 0 1 1 62.02 62.03l-41.98 42.13 42.05 42.13a43.89 43.89 0 0 1-62.02 62.03l-42.2-41.99-42.13 42.06a43.89 43.89 0 0 1-62.03-62.03l41.98-42.2-42.05-42.13a43.89 43.89 0 0 1 0-62.03z"/><path fill="undefined" d="M36.57 117.03a43.89 43.89 0 0 1 43.89-43.89h78.99a122.88 122.88 0 0 1 114.84 79h494.51c80.38 0 145.48 65.1 145.49 145.48v324.83c0 80.38-65.1 145.48-145.49 145.48h-428.69a145.48 145.48 0 0 1-145.55-145.41v-426.5a35.11 35.11 0 0 0-35.11-35.11h-78.99a43.89 43.89 0 0 1-43.89-43.88z m245.76 122.88v382.61c0 31.89 25.82 57.71 57.71 57.71h428.76a57.71 57.71 0 0 0 57.71-57.71v-324.83a57.71 57.71 0 0 0-57.71-57.71h-486.47z m90.7 710.95c36.35 0 65.83-28.38 65.83-63.42 0-35.11-29.48-63.49-65.83-63.49s-65.83 28.38-65.83 63.42c0 35.11 29.48 63.49 65.83 63.49z m460.8-63.42c0 35.04-29.48 63.41-65.83 63.42s-65.83-28.38-65.83-63.42c0-35.11 29.48-63.49 65.83-63.49s65.83 28.38 65.83 63.42z"/></svg>