<svg xmlns="http://www.w3.org/2000/svg" viewBox="0 0 1024 1024"><path fill="undefined" d="M548.57 343.77c15.65 0 33.28 4.17 48.2 14.85l44.33 31.74a41.18 41.18 0 0 1-47.91 66.93l-3.51-2.49v67.29a41.11 41.11 0 1 1-82.21 0v-67.29l-3.52 2.49a41.11 41.11 0 1 1-47.9-66.93l44.32-31.74c14.92-10.68 32.55-14.85 48.2-14.85z"/><path fill="undefined" d="M36.57 117.03a43.89 43.89 0 0 1 43.89-43.89h78.99a122.88 122.88 0 0 1 114.84 79h494.51c80.38 0 145.48 65.1 145.49 145.48v324.83c0 80.38-65.1 145.48-145.49 145.48h-428.69a145.48 145.48 0 0 1-145.55-145.41v-426.5a35.11 35.11 0 0 0-35.11-35.11h-78.99a43.89 43.89 0 0 1-43.89-43.88z m245.76 122.88v382.61c0 31.89 25.82 57.71 57.71 57.71h428.76a57.71 57.71 0 0 0 57.71-57.71v-324.83a57.71 57.71 0 0 0-57.71-57.71h-486.47z m90.7 710.95c36.35 0 65.83-28.38 65.83-63.42 0-35.11-29.48-63.49-65.83-63.49s-65.83 28.38-65.83 63.42c0 35.11 29.48 63.49 65.83 63.49z m460.8-63.42c0 35.04-29.48 63.41-65.83 63.42s-65.83-28.38-65.83-63.42c0-35.11 29.48-63.49 65.83-63.49s65.83 28.38 65.83 63.42z"/></svg>