<svg xmlns="http://www.w3.org/2000/svg" viewBox="0 0 1024 1024"><path fill="#1A1A1A" d="M0 65.17c0-24.21 19.37-43.84 43.24-43.84h51.14c70.46 0 128.85 55.4 133.55 126.68l0.74 11.12h661.46c81.45 0 144 73.15 132.48 154.9l-33.02 234.45c-14.63 103.94-97.49 184.23-200.58 194.35l-467.47 45.86c-75.14 7.38-141.42-49.69-146.44-126.06l-30.03-456.32v-0.76l-3.42-51.69c-1.66-25.24-22.34-44.84-47.27-44.85h-51.14c-23.89 0-43.24-19.63-43.24-43.84z m234.45 181.66l26.95 409.98c1.77 27.03 25.22 47.21 51.82 44.59l467.47-45.87c63.36-6.19 114.28-55.55 123.29-119.44l33.02-234.46c4.1-28.93-18.05-54.83-46.87-54.82h-655.7z m64.22 670.5a85.33 85.33 0 1 1-170.67 0 85.33 85.33 0 0 1 170.67 0z m597.33 85.34a85.33 85.33 0 1 0 0-170.67 85.33 85.33 0 0 0 0 170.67z"/></svg>