<?xml version="1.0" standalone="no"?><!DOCTYPE svg PUBLIC "-//W3C//DTD SVG 1.1//EN" "http://www.w3.org/Graphics/SVG/1.1/DTD/svg11.dtd"><svg class="icon" width="200px" height="187.55px" viewBox="0 0 1092 1024" version="1.1" xmlns="http://www.w3.org/2000/svg"><path fill="#333333" d="M932.977778 1024c38.684444 0 68.266667-29.582222 68.266666-68.266667s-29.582222-68.266667-68.266666-68.266666-68.266667 29.582222-68.266667 68.266666 29.582222 68.266667 68.266667 68.266667zM826.026667 864.711111H350.435556v-91.022222h475.591111c56.888889 0 104.675556-43.235556 113.777777-100.124445l47.786667-373.191111v-6.826666c0-25.031111-20.48-45.511111-45.511111-45.511111H209.351111L250.311111 678.115556l-91.022222 9.102222L109.226667 159.288889h832.853333c75.093333 0 136.533333 61.44 136.533333 136.533333v18.204445l-47.786666 373.191111c-13.653333 100.124444-100.124444 177.493333-204.8 177.493333zM250.311111 1024c-47.786667 0-93.297778-18.204444-129.706667-52.337778C86.471111 935.253333 68.266667 889.742222 68.266667 841.955556s18.204444-93.297778 52.337777-129.706667C157.013333 678.115556 202.524444 659.911111 250.311111 659.911111s93.297778 18.204444 129.706667 52.337778c34.133333 34.133333 52.337778 79.644444 52.337778 129.706667s-18.204444 93.297778-52.337778 129.706666C343.608889 1005.795556 298.097778 1024 250.311111 1024z m0-273.066667c-25.031111 0-47.786667 9.102222-63.715555 27.306667-18.204444 15.928889-27.306667 38.684444-27.306667 63.715556s9.102222 47.786667 27.306667 63.715555c34.133333 34.133333 93.297778 34.133333 129.706666 0 18.204444-18.204444 27.306667-40.96 27.306667-63.715555s-9.102222-47.786667-27.306667-63.715556c-18.204444-18.204444-40.96-27.306667-65.991111-27.306667zM159.288889 295.822222c-22.755556 0-40.96-15.928889-45.511111-38.684444l-15.928889-111.502222C95.573333 113.777778 72.817778 91.022222 45.511111 91.022222 20.48 91.022222 0 70.542222 0 45.511111s20.48-45.511111 45.511111-45.511111c75.093333 0 134.257778 59.164444 143.36 136.533333l15.928889 106.951111c4.551111 25.031111-13.653333 47.786667-38.684444 52.337778H159.288889z" /></svg>