<svg xmlns="http://www.w3.org/2000/svg" viewBox="0 0 1024 1024"><path fill="#1A1A1A" d="M298.67 170.67a128 128 0 1 1-256 0 128 128 0 0 1 256 0z m-85.34 0a42.67 42.67 0 1 0-85.33 0 42.67 42.67 0 0 0 85.33 0z m85.34 682.66a128 128 0 1 1-256 0 128 128 0 0 1 256 0z m-85.34 0a42.67 42.67 0 1 0-85.33 0 42.67 42.67 0 0 0 85.33 0z m-42.66-213.33a128 128 0 1 0 0-256 128 128 0 0 0 0 256z m0-85.33a42.67 42.67 0 1 1 0-85.34 42.67 42.67 0 0 1 0 85.34z m256-426.67a42.67 42.67 0 1 0 0 85.33h512a42.67 42.67 0 1 0 0-85.33h-512z m-42.67 384a42.67 42.67 0 0 1 42.67-42.67h512a42.67 42.67 0 1 1 0 85.34h-512a42.67 42.67 0 0 1-42.67-42.67z m42.67 298.67a42.67 42.67 0 1 0 0 85.33h512a42.67 42.67 0 1 0 0-85.33h-512z"/></svg>