<?xml version="1.0" standalone="no"?><!DOCTYPE svg PUBLIC "-//W3C//DTD SVG 1.1//EN" "http://www.w3.org/Graphics/SVG/1.1/DTD/svg11.dtd"><svg class="icon" width="200px" height="198.45px" viewBox="0 0 1032 1024" version="1.1" xmlns="http://www.w3.org/2000/svg"><path fill="#333333" d="M510.613235 2.836565c-280.819945 0-510.581717 229.761773-510.581718 510.581718s229.761773 510.581717 510.581718 510.581717 510.581717-229.761773 510.581717-510.581717-226.925208-510.581717-510.581717-510.581718z m0 794.238227c-156.01108 0-283.65651-127.645429-283.65651-283.656509s127.645429-283.65651 283.65651-283.65651 283.65651 127.645429 283.65651 283.65651-127.645429 283.65651-283.65651 283.656509z"  /><path fill="#333333" d="M510.613235 513.418283m-127.64543 0a127.645429 127.645429 0 1 0 255.290859 0 127.645429 127.645429 0 1 0-255.290859 0Z"  /></svg>