<?xml version="1.0" standalone="no"?><!DOCTYPE svg PUBLIC "-//W3C//DTD SVG 1.1//EN" "http://www.w3.org/Graphics/SVG/1.1/DTD/svg11.dtd"><svg class="icon" width="200px" height="200.00px" viewBox="0 0 1024 1024" version="1.1" xmlns="http://www.w3.org/2000/svg"><path fill="#333333" d="M512 1024c-136.533333 0-264.533333-54.044444-361.244444-150.755556C54.044444 776.533333 0 648.533333 0 512c0-136.533333 54.044444-264.533333 150.755556-361.244444C247.466667 54.044444 375.466667 0 512 0c136.533333 0 264.533333 54.044444 361.244444 150.755556C969.955556 247.466667 1024 375.466667 1024 512s-54.044444 264.533333-150.755556 361.244444C776.533333 969.955556 648.533333 1024 512 1024z m0-938.666667c-113.777778 0-221.866667 45.511111-301.511111 125.155556S85.333333 398.222222 85.333333 512s45.511111 221.866667 125.155556 301.511111S398.222222 938.666667 512 938.666667s221.866667-45.511111 301.511111-125.155556S938.666667 625.777778 938.666667 512s-45.511111-221.866667-125.155556-301.511111S625.777778 85.333333 512 85.333333z" /></svg>