<svg xmlns="http://www.w3.org/2000/svg" viewBox="0 0 1024 1024"><path fill="#333" d="M512 1024c-136.53 0-264.53-54.04-361.24-150.76-96.71-96.71-150.76-224.71-150.76-361.24s54.04-264.53 150.76-361.24c96.71-96.71 224.71-150.76 361.24-150.76s264.53 54.04 361.24 150.76c96.71 96.71 150.76 224.71 150.76 361.24s-54.04 264.53-150.76 361.24c-96.71 96.71-224.71 150.76-361.24 150.76z m0-938.67c-113.78 0-221.87 45.51-301.51 125.16s-125.16 187.73-125.16 301.51 45.51 221.87 125.16 301.51 187.73 125.16 301.51 125.16 221.87-45.51 301.51-125.16 125.16-187.73 125.16-301.51-45.51-221.87-125.16-301.51-187.73-125.16-301.51-125.16z"/></svg>