<?xml version="1.0" standalone="no"?><!DOCTYPE svg PUBLIC "-//W3C//DTD SVG 1.1//EN" "http://www.w3.org/Graphics/SVG/1.1/DTD/svg11.dtd"><svg class="icon" width="200px" height="200.00px" viewBox="0 0 1024 1024" version="1.1" xmlns="http://www.w3.org/2000/svg"><path fill="#333333" d="M512 0C230.4 0 0 230.4 0 512s230.4 512 512 512 512-230.4 512-512S793.6 0 512 0z m281.6 369.778C779.378 381.156 600.178 500.622 472.178 691.2c0 0 0 2.844-2.845 2.844-8.533 5.69-48.355 36.978-88.177-8.533-39.823-51.2-62.578-99.555-142.223-142.222-2.844 0-2.844-2.845-2.844-2.845-8.533-11.377-39.822-56.888 19.911-56.888 45.511 0 91.022 11.377 162.133 73.955 5.69 5.689 14.223 5.689 17.067 0C469.333 517.69 608.711 366.933 768 318.578c0 0 19.911-2.845 31.289 14.222 5.689 11.378 11.378 22.756-5.689 36.978z" /></svg>