<?xml version="1.0" standalone="no"?><!DOCTYPE svg PUBLIC "-//W3C//DTD SVG 1.1//EN" "http://www.w3.org/Graphics/SVG/1.1/DTD/svg11.dtd"><svg class="icon" width="200px" height="200.00px" viewBox="0 0 1024 1024" version="1.1" xmlns="http://www.w3.org/2000/svg"><path fill="#333333" d="M159.288889 500.622222c62.577778 0 125.155556 17.066667 221.866667 102.4 8.533333 5.688889 19.911111 5.688889 25.6 0 48.355556-54.044444 238.933333-261.688889 455.111111-329.955555 0 0 28.444444-5.688889 42.666666 19.911111 8.533333 17.066667 19.911111 34.133333-5.688889 54.044444-22.755556 17.066667-264.533333 179.2-440.888888 440.888889l-2.844445 2.844445c-11.377778 8.533333-68.266667 51.2-119.466667-14.222223-56.888889-71.111111-85.333333-139.377778-196.266666-196.266666-2.844444 0-2.844444-2.844444-5.688889-5.688889-11.377778-11.377778-54.044444-73.955556 25.6-73.955556z" /></svg>