<?xml version="1.0" standalone="no"?><!DOCTYPE svg PUBLIC "-//W3C//DTD SVG 1.1//EN" "http://www.w3.org/Graphics/SVG/1.1/DTD/svg11.dtd"><svg class="icon" width="200px" height="200.00px" viewBox="0 0 1024 1024" version="1.1" xmlns="http://www.w3.org/2000/svg"><path fill="#333333" d="M511.492352 73.062875a438.425381 438.425381 0 0 1 310.544912 748.953226 439.159247 439.159247 0 1 1-621.089823-621.072756A435.694715 435.694715 0 0 1 511.492352 73.045809m0-73.062364C267.490341 0.017579 57.468046 172.407892 9.869136 411.716573-37.712706 651.04232 90.389629 890.6582 315.823117 984.029887c225.450554 93.35462 485.444024 14.472526 621.004489-188.415906 135.543399-202.905499 108.885279-473.292563-63.658635-645.819411A509.644545 509.644545 0 0 0 511.492352 0.000512zM335.791107 635.477528l299.67345-299.673451c12.049061-12.049061 24.115188-12.049061 36.164249 0l15.496525 15.496526c12.049061 12.066127 12.049061 24.115188 0 36.181315L387.468948 687.121235c-12.066127 12.049061-24.115188 12.049061-36.181316 0l-15.496525-15.496525c-12.049061-12.066127-12.049061-24.115188 0-36.181316zM335.791107 351.300603l15.496525-15.496526c12.066127-12.049061 24.115188-12.049061 36.181316 0L687.108264 635.477528c12.049061 12.049061 12.049061 24.098121 0 36.164248l-15.496525 15.496526c-12.049061 12.049061-24.115188 12.049061-36.181315 0L335.808173 387.464852c-12.049061-12.049061-12.049061-24.098121 0-36.164249z" /></svg>