<?xml version="1.0" standalone="no"?><!DOCTYPE svg PUBLIC "-//W3C//DTD SVG 1.1//EN" "http://www.w3.org/Graphics/SVG/1.1/DTD/svg11.dtd"><svg class="icon" width="200px" height="200.00px" viewBox="0 0 1024 1024" version="1.1" xmlns="http://www.w3.org/2000/svg"><path fill="#333333" d="M512 1024C228.430769 1024 0 795.569231 0 512S228.430769 0 512 0 1024 228.430769 1024 512 795.569231 1024 512 1024z m0-945.230769C273.066667 78.769231 78.769231 273.066667 78.769231 512S273.066667 945.230769 512 945.230769 945.230769 750.933333 945.230769 512 750.933333 78.769231 512 78.769231zM695.794872 577.641026h-210.051282c-21.005128 0-39.384615-18.379487-39.384616-39.384616s18.379487-39.384615 39.384616-39.384615h210.051282c21.005128 0 39.384615 18.379487 39.384615 39.384615s-18.379487 39.384615-39.384615 39.384616zM485.74359 577.641026c-21.005128 0-39.384615-18.379487-39.384616-39.384616v-210.051282c0-21.005128 18.379487-39.384615 39.384616-39.384615s39.384615 18.379487 39.384615 39.384615v210.051282c0 21.005128-18.379487 39.384615-39.384615 39.384616z" /></svg>