<svg xmlns="http://www.w3.org/2000/svg" viewBox="0 0 1024 1024"><path fill="#333" d="M512 1024c-283.57 0-512-228.43-512-512s228.43-512 512-512 512 228.43 512 512-228.43 512-512 512z m0-945.23c-238.93 0-433.23 194.3-433.23 433.23s194.3 433.23 433.23 433.23 433.23-194.3 433.23-433.23-194.3-433.23-433.23-433.23z m183.79 498.87h-210.05c-21.01 0-39.38-18.38-39.38-39.38s18.38-39.38 39.38-39.39h210.05c21.01 0 39.38 18.38 39.39 39.39s-18.38 39.38-39.38 39.38z m-210.05 0c-21.01 0-39.38-18.38-39.38-39.38v-210.06c0-21.01 18.38-39.38 39.38-39.38s39.38 18.38 39.39 39.38v210.05c0 21.01-18.38 39.38-39.39 39.39z"/></svg>