<?xml version="1.0" standalone="no"?><!DOCTYPE svg PUBLIC "-//W3C//DTD SVG 1.1//EN" "http://www.w3.org/Graphics/SVG/1.1/DTD/svg11.dtd"><svg class="icon" width="200px" height="199.61px" viewBox="0 0 1026 1024" version="1.1" xmlns="http://www.w3.org/2000/svg"><path fill="#333333" d="M998.001545 25.999756a85.073387 85.073387 0 0 0-120.414184 0l-425.792727 425.792727a85.073387 85.073387 0 1 0 120.414183 120.414183l425.792728-425.792727a85.073387 85.073387 0 0 0 0-120.414183zM877.587361 997.999393a85.073387 85.073387 0 1 0 120.414184-120.414183l-851.585455-851.585454A85.073387 85.073387 0 1 0 26.001907 146.413939L391.587543 511.999574 26.001907 877.58521a85.073387 85.073387 0 1 0 120.414183 120.414183L512.001726 632.413757l365.585635 365.585636z" /></svg>