<?xml version="1.0" standalone="no"?><!DOCTYPE svg PUBLIC "-//W3C//DTD SVG 1.1//EN" "http://www.w3.org/Graphics/SVG/1.1/DTD/svg11.dtd"><svg class="icon" width="200px" height="199.61px" viewBox="0 0 1026 1024" version="1.1" xmlns="http://www.w3.org/2000/svg"><path fill="#333333" d="M981.577143 1024c-11.702857 0-23.405714-2.925714-32.182857-11.702857l-936.228572-936.228572C-1.462857 58.514286-1.462857 29.257143 13.165714 11.702857 30.72-2.925714 59.977143-2.925714 77.531429 11.702857l936.228571 936.228572c17.554286 17.554286 17.554286 43.885714 0 61.44-8.777143 11.702857-20.48 14.628571-32.182857 14.628571zM45.348571 1024c-11.702857 0-23.405714-2.925714-32.182857-11.702857-17.554286-17.554286-17.554286-43.885714 0-61.44l936.228572-936.228572c17.554286-17.554286 43.885714-17.554286 61.44 0 17.554286 17.554286 17.554286 43.885714 0 61.44l-936.228572 936.228572c-5.851429 8.777143-17.554286 11.702857-29.257143 11.702857z" /></svg>