<svg xmlns="http://www.w3.org/2000/svg" viewBox="0 0 1024 1024"><path fill="undefined" d="M535.41 234.06c-109.28 0-176.27 77.31-194.93 113.95a43.89 43.89 0 0 1-39.13 23.99c-36.06 0-90.99 10.97-135.61 42.5-42.28 29.99-77.97 79.95-77.97 166.47 0 86.53 35.69 136.48 77.97 166.48 44.62 31.45 99.55 42.5 135.61 42.49h468.11a194.56 194.56 0 0 0 106.35-33.35c32.55-23.04 60.42-61.51 60.42-129.68 0-68.02-27.87-106.64-60.42-129.68a194.56 194.56 0 0 0-106.35-33.28 43.89 43.89 0 0 1-43.88-43.89c0-23.41-13.39-71.53-46.3-113.88-31.6-40.52-78.26-72.12-143.87-72.12z m-259.66 51.34c38.62-57.49 125.88-139.12 259.66-139.11 98.23 0 168.59 48.86 213.06 106.05 31.52 40.45 51.64 87.04 60.2 126.91 36.72 5.56 79.65 19.38 117.76 46.37 55.22 38.99 97.57 103.86 97.57 201.21 0 97.43-42.35 162.38-97.57 201.37-52.88 37.45-114.98 49.44-156.97 49.44h-468.11c-49.74 0-123.61-14.34-186.22-58.66-64.95-45.79-115.13-122.22-115.13-238.01s50.18-192.22 115.13-238.15c52.66-37.23 113.15-53.25 160.62-57.42z"/></svg>