<?xml version="1.0" standalone="no"?><!DOCTYPE svg PUBLIC "-//W3C//DTD SVG 1.1//EN" "http://www.w3.org/Graphics/SVG/1.1/DTD/svg11.dtd"><svg class="icon" width="200px" height="200.00px" viewBox="0 0 1024 1024" version="1.1" xmlns="http://www.w3.org/2000/svg"><path fill="#333333" d="M760.414815 876.088889H259.792593c-132.740741 0-242.725926-109.985185-242.725926-242.725926V242.725926C17.066667 109.985185 127.051852 0 259.792593 0h504.414814c132.740741 0 242.725926 109.985185 242.725926 242.725926v394.42963c-3.792593 132.740741-109.985185 238.933333-246.518518 238.933333zM259.792593 113.777778C187.733333 113.777778 130.844444 170.666667 130.844444 242.725926v394.42963c0 72.059259 56.888889 128.948148 128.948149 128.948148h504.414814c68.266667 0 128.948148-56.888889 128.948149-128.948148V242.725926c0-72.059259-56.888889-128.948148-128.948149-128.948148H259.792593zM316.681481 1001.244444c-15.17037 0-30.340741-3.792593-41.718518-15.17037-22.755556-22.755556-22.755556-56.888889 0-79.644444L384.948148 796.444444c22.755556-22.755556 56.888889-22.755556 79.644445 0s22.755556 56.888889 0 79.644445L354.607407 986.074074c-7.585185 7.585185-22.755556 15.17037-37.925926 15.17037zM510.103704 603.022222c-45.511111 0-91.022222-22.755556-117.570371-56.888889-18.962963-26.548148-15.17037-60.681481 7.585186-79.644444 26.548148-18.962963 60.681481-15.17037 79.644444 7.585185 15.17037 18.962963 45.511111 18.962963 56.888889 0 18.962963-22.755556 56.888889-30.340741 79.644444-7.585185s30.340741 56.888889 7.585185 79.644444c-22.755556 37.925926-68.266667 56.888889-113.777777 56.888889z" /></svg>