<svg xmlns="http://www.w3.org/2000/svg" viewBox="0 0 1024 1024"><path fill="#1A1A1A" d="M362.67 426.67a64 64 0 1 0 0-128 64 64 0 0 0 0 128z m-8.84 151.55c29.27 29.29 81.49 54.02 137.46 60.24 57.71 6.4 125.01-6.36 178.88-60.24l-60.34-60.33c-31.45 31.45-70.83 40.02-109.12 35.75-40.02-4.44-73.17-22.38-86.54-35.75l-60.34 60.33z m371.5-215.55a64 64 0 1 1-128 0 64 64 0 0 1 128 0z"/><path fill="#1A1A1A" d="M296.3 896a170.67 170.67 0 0 0-76.33 18.03l-204.52 108.84a10.67 10.67 0 0 1-15.45-9.54v-842.66a128 128 0 0 1 128-128h768a128 128 0 0 1 128 128v597.33a128 128 0 0 1-128 128h-599.7z m-168.3-768a42.67 42.67 0 0 0-42.67 42.67v715.26l96.47-48.23a255.98 255.98 0 0 1 114.5-27.03h599.7a42.67 42.67 0 0 0 42.67-42.67v-597.33a42.67 42.67 0 0 0-42.67-42.67h-768z"/></svg>