<svg xmlns="http://www.w3.org/2000/svg" viewBox="0 0 1024 1024"><path fill="#1A1A1A" d="M469.33 42.67a42.67 42.67 0 1 1 85.34 0v85.33a42.67 42.67 0 1 1-85.34 0v-85.33z m42.67 170.66c-223.85 0-405.33 181.48-405.33 405.34v234.66h810.66v-234.66c0-223.85-181.48-405.33-405.33-405.34z m320 554.67h-640v-149.33c0-176.73 143.27-320 320-320s320 143.27 320 320v149.33z m-673.83-648.83a42.67 42.67 0 0 0 0 60.33l60.35 60.35a42.67 42.67 0 1 0 60.33-60.35l-60.33-60.33a42.67 42.67 0 0 0-60.35 0z m707.66 60.33a42.67 42.67 0 0 0-60.35-60.33l-60.31 60.33a42.67 42.67 0 0 0 60.33 60.35l60.36-60.35z m-737.83 759.17a42.67 42.67 0 1 0 0 85.33h768a42.67 42.67 0 1 0 0-85.33h-768z"/></svg>