<svg xmlns="http://www.w3.org/2000/svg" viewBox="0 0 1024 1024"><path fill="undefined" d="M226.74 160.91h570.52a65.83 65.83 0 0 1 65.83 65.83v320.37h-702.18v-320.37a65.83 65.83 0 0 1 65.83-65.83z m724.12 65.83a153.6 153.6 0 0 0-153.6-153.6h-570.52a153.6 153.6 0 0 0-153.6 153.6v412.53c0 84.85 68.75 153.6 153.6 153.6h241.37v70.22h-74.6a43.89 43.89 0 1 0 0 87.77h236.98a43.89 43.89 0 1 0 0-87.77h-74.6v-70.22h241.37a153.6 153.6 0 0 0 153.6-153.6v-412.53z m-87.77 408.14v4.39a65.83 65.83 0 0 1-65.83 65.83h-570.52a65.83 65.83 0 0 1-65.83-65.83v-4.39h702.18z"/></svg>