<svg xmlns="http://www.w3.org/2000/svg" viewBox="0 0 1024 1024"><path fill="undefined" d="M310.13 226.74c0-84.85 68.75-153.6 153.6-153.6h333.53c84.85 0 153.6 68.75 153.6 153.6v333.53a153.6 153.6 0 0 1-153.6 153.6h-83.39v83.39a153.6 153.6 0 0 1-153.6 153.6h-333.53a153.6 153.6 0 0 1-153.6-153.6v-333.53c0-84.85 68.75-153.6 153.6-153.6h83.39v-83.39z m87.77 83.39h162.37c84.85 0 153.6 68.75 153.6 153.6v162.37h83.39a65.83 65.83 0 0 0 65.83-65.83v-333.53a65.83 65.83 0 0 0-65.83-65.83h-333.53a65.83 65.83 0 0 0-65.83 65.83v83.39z m-171.16 87.77a65.83 65.83 0 0 0-65.83 65.83v333.53a65.83 65.83 0 0 0 65.83 65.83h333.53a65.83 65.83 0 0 0 65.83-65.83v-333.53a65.83 65.83 0 0 0-65.83-65.83h-333.53z"/></svg>