<svg xmlns="http://www.w3.org/2000/svg" viewBox="0 0 1024 1024"><path fill="#1A1A1A" d="M298.67 469.33h170.66v85.34h-170.66v-85.34z m256 0h170.66v85.34h-170.66v-85.34z"/><path fill="#1A1A1A" d="M1013.33 410.67a11.52 11.52 0 0 0 10.67-11.16v-213.33c0-67.48-57.3-122.18-128-122.18h-768c-70.7 0-128 54.7-128 122.18v213.33a11.52 11.52 0 0 0 10.67 11.18c53.87 5.1 96 48.51 96 101.31 0 52.8-42.11 96.21-96 101.33a11.52 11.52 0 0 0-10.67 11.16v213.33c0 67.48 57.3 122.18 128 122.18h768c70.7 0 128-54.7 128-122.18v-213.33a11.52 11.52 0 0 0-10.67-11.18c-53.87-5.1-96-48.51-96-101.31 0-52.8 42.11-96.21 96-101.33z m-928-224.47c0-22.49 19.09-40.73 42.67-40.73h768c23.57 0 42.67 18.24 42.67 40.75v161.58c-63.21 29.99-106.67 92.27-106.67 164.22s43.46 134.23 106.67 164.23v161.6c0 22.49-19.09 40.73-42.67 40.72h-768c-23.57 0-42.67-18.24-42.67-40.75v-161.57c63.21-30.02 106.67-92.29 106.67-164.25s-43.46-134.23-106.67-164.22v-161.6z"/></svg>