<?xml version="1.0" standalone="no"?><!DOCTYPE svg PUBLIC "-//W3C//DTD SVG 1.1//EN" "http://www.w3.org/Graphics/SVG/1.1/DTD/svg11.dtd"><svg class="icon" width="200px" height="200.00px" viewBox="0 0 1024 1024" version="1.1" xmlns="http://www.w3.org/2000/svg"><path fill="#333333" d="M774.918919 1024H249.081081c-138.378378 0-249.081081-110.702703-249.081081-249.081081V304.432432c0-138.378378 110.702703-249.081081 249.081081-249.081081h525.837838c138.378378 0 249.081081 110.702703 249.081081 249.081081v470.486487c0 138.378378-110.702703 249.081081-249.081081 249.081081zM249.081081 138.378378c-91.32973 0-166.054054 74.724324-166.054054 166.054054v470.486487c0 91.32973 74.724324 166.054054 166.054054 166.054054h525.837838c91.32973 0 166.054054-74.724324 166.054054-166.054054V304.432432c0-91.32973-74.724324-166.054054-166.054054-166.054054H249.081081zM968.648649 442.810811H41.513514C19.372973 442.810811 0 423.437838 0 401.297297S19.372973 359.783784 41.513514 359.783784H968.648649c22.140541 0 41.513514 19.372973 41.513513 41.513513S990.789189 442.810811 968.648649 442.810811zM595.027027 719.567568h-166.054054c-22.140541 0-41.513514-19.372973-41.513514-41.513514s19.372973-41.513514 41.513514-41.513513h166.054054c22.140541 0 41.513514 19.372973 41.513514 41.513513s-19.372973 41.513514-41.513514 41.513514zM332.108108 193.72973c-22.140541 0-41.513514-19.372973-41.513513-41.513514v-110.702702c0-22.140541 19.372973-41.513514 41.513513-41.513514s41.513514 19.372973 41.513514 41.513514v110.702702c0 22.140541-19.372973 41.513514-41.513514 41.513514zM664.216216 193.72973c-22.140541 0-41.513514-19.372973-41.513513-41.513514v-110.702702c0-22.140541 19.372973-41.513514 41.513513-41.513514s41.513514 19.372973 41.513514 41.513514v110.702702c0 22.140541-19.372973 41.513514-41.513514 41.513514z" /></svg>