<svg xmlns="http://www.w3.org/2000/svg" viewBox="0 0 1024 1024"><path fill="#333" d="M774.92 1024h-525.84c-138.38 0-249.08-110.7-249.08-249.08v-470.49c0-138.38 110.7-249.08 249.08-249.08h525.84c138.38 0 249.08 110.7 249.08 249.08v470.49c0 138.38-110.7 249.08-249.08 249.08z m-525.84-885.62c-91.33 0-166.05 74.72-166.05 166.05v470.49c0 91.33 74.72 166.05 166.05 166.05h525.84c91.33 0 166.05-74.72 166.05-166.05v-470.49c0-91.33-74.72-166.05-166.05-166.05h-525.84z m719.57 304.43h-927.14c-22.14 0-41.51-19.37-41.51-41.51s19.37-41.51 41.51-41.52h927.14c22.14 0 41.51 19.37 41.51 41.52s-19.37 41.51-41.51 41.51z m-373.62 276.76h-166.06c-22.14 0-41.51-19.37-41.51-41.52s19.37-41.51 41.51-41.51h166.06c22.14 0 41.51 19.37 41.51 41.51s-19.37 41.51-41.51 41.52z m-262.92-525.84c-22.14 0-41.51-19.37-41.51-41.51v-110.71c0-22.14 19.37-41.51 41.51-41.51s41.51 19.37 41.51 41.51v110.71c0 22.14-19.37 41.51-41.51 41.51z m332.11 0c-22.14 0-41.51-19.37-41.52-41.51v-110.71c0-22.14 19.37-41.51 41.52-41.51s41.51 19.37 41.51 41.51v110.71c0 22.14-19.37 41.51-41.51 41.51z"/></svg>