<svg xmlns="http://www.w3.org/2000/svg" viewBox="0 0 1024 1024"><path fill="#1A1A1A" d="M298.67 42.67a42.67 42.67 0 1 0 0 85.33h426.66a42.67 42.67 0 1 0 0-85.33h-426.66z m149.33 426.66h-85.33v256h85.33v-256z m213.33 0h-85.33v256h85.33v-256z"/><path fill="#1A1A1A" d="M0 256a42.67 42.67 0 0 1 42.67-42.67h938.66a42.67 42.67 0 1 1 0 85.34h-47.4l-31.21 561.77a128 128 0 0 1-127.79 120.89h-525.86a128 128 0 0 1-127.79-120.89l-31.21-561.77h-47.4a42.67 42.67 0 0 1-42.67-42.67z m175.53 42.67l30.98 557.01a42.67 42.67 0 0 0 42.58 40.32h525.82a42.67 42.67 0 0 0 42.6-40.32l30.94-557.01h-672.9z"/></svg>