<?xml version="1.0" standalone="no"?><!DOCTYPE svg PUBLIC "-//W3C//DTD SVG 1.1//EN" "http://www.w3.org/Graphics/SVG/1.1/DTD/svg11.dtd"><svg class="icon" width="200px" height="200.00px" viewBox="0 0 1024 1024" version="1.1" xmlns="http://www.w3.org/2000/svg"><path fill="#333333" d="M668.444444 1024H355.555556c-142.222222 0-256-113.777778-256-256V170.666667h824.888888v597.333333c0 142.222222-113.777778 256-256 256zM184.888889 256v512c0 93.866667 76.8 170.666667 170.666667 170.666667h312.888888c93.866667 0 170.666667-76.8 170.666667-170.666667V256H184.888889zM938.666667 256h-853.333334C62.577778 256 42.666667 236.088889 42.666667 213.333333S62.577778 170.666667 85.333333 170.666667h853.333334c22.755556 0 42.666667 19.911111 42.666666 42.666666S961.422222 256 938.666667 256zM625.777778 85.333333h-227.555556c-22.755556 0-42.666667-19.911111-42.666666-42.666666S375.466667 0 398.222222 0h227.555556c22.755556 0 42.666667 19.911111 42.666666 42.666667S648.533333 85.333333 625.777778 85.333333z" /></svg>