<?xml version="1.0" standalone="no"?><!DOCTYPE svg PUBLIC "-//W3C//DTD SVG 1.1//EN" "http://www.w3.org/Graphics/SVG/1.1/DTD/svg11.dtd"><svg class="icon" width="200px" height="200.00px" viewBox="0 0 1024 1024" version="1.1" xmlns="http://www.w3.org/2000/svg"><path fill="#333333" d="M683.885714 991.085714H336.457143c-124.342857 0-226.742857-102.4-226.742857-226.742857V182.857143h804.571428v577.828571c0 128-102.4 230.4-230.4 230.4zM219.428571 292.571429v468.114285C219.428571 826.514286 274.285714 877.714286 336.457143 877.714286h347.428571c65.828571 0 117.028571-54.857143 117.028572-117.028572V292.571429H219.428571zM914.285714 292.571429H109.714286C80.457143 292.571429 54.857143 266.971429 54.857143 237.714286S80.457143 182.857143 109.714286 182.857143h804.571428c29.257143 0 54.857143 25.6 54.857143 54.857143S943.542857 292.571429 914.285714 292.571429zM640 109.714286H387.657143c-29.257143 0-54.857143-25.6-54.857143-54.857143S358.4 0 387.657143 0h252.342857c32.914286 0 54.857143 25.6 54.857143 54.857143S672.914286 109.714286 640 109.714286z" /></svg>