<svg xmlns="http://www.w3.org/2000/svg" viewBox="0 0 1024 1024"><path fill="undefined" d="M73.14 226.74c0-84.85 68.75-153.6 153.6-153.6h395.34c53.54 0 104.89 21.21 142.77 59.1l126.91 126.91a201.87 201.87 0 0 1 59.1 142.77v395.34a153.6 153.6 0 0 1-153.6 153.6h-570.52a153.6 153.6 0 0 1-153.6-153.6v-570.52z m153.6-65.83a65.83 65.83 0 0 0-65.83 65.83v570.52a65.83 65.83 0 0 0 65.83 65.83h43.89v-193.1c0-67.88 55-122.88 122.88-122.88h236.98c67.88 0 122.88 55 122.88 122.88v193.1h43.89a65.83 65.83 0 0 0 65.83-65.83v-395.34c0-30.28-12-59.25-33.43-80.68l-126.9-126.9a114.1 114.1 0 0 0-80.68-33.43h-395.34z m438.86 702.18v-193.1a35.11 35.11 0 0 0-35.11-35.11h-236.98a35.11 35.11 0 0 0-35.11 35.11v193.1h307.2z m-315.98-548.58a43.89 43.89 0 0 1 43.89-43.88h236.98a43.89 43.89 0 0 1 0 87.77h-236.98a43.89 43.89 0 0 1-43.89-43.89z"/></svg>