<?xml version="1.0" standalone="no"?><!DOCTYPE svg PUBLIC "-//W3C//DTD SVG 1.1//EN" "http://www.w3.org/Graphics/SVG/1.1/DTD/svg11.dtd"><svg class="icon" width="200px" height="189.81px" viewBox="0 0 1079 1024" version="1.1" xmlns="http://www.w3.org/2000/svg"><path fill="#333333" d="M802.594595 1018.464865h-11.070271c-58.118919-8.302703-119.005405-22.140541-182.659459-47.048649l-11.07027-5.535135h-11.070271c-16.605405 0-30.443243 2.767568-47.048648 2.767568C240.778378 968.648649 0 750.010811 0 484.324324S240.778378 0 539.675676 0 1079.351351 218.637838 1079.351351 484.324324c0 152.216216-80.259459 298.897297-218.637837 390.227027l-2.767568 2.767568v88.562162c0 27.675676-24.908108 52.583784-55.351351 52.583784z m-202.032433-135.610811c5.535135 0 13.837838 0 19.372973 2.767568l19.372973 8.302702c47.048649 16.605405 94.097297 30.443243 135.610811 38.745946v-71.956756c0-19.372973 11.07027-35.978378 27.675676-47.048649 5.535135-2.767568 11.07027-5.535135 13.837837-8.302703 116.237838-77.491892 179.891892-193.72973 179.891892-321.037838C996.324324 262.918919 791.524324 83.027027 539.675676 83.027027S83.027027 262.918919 83.027027 484.324324 287.827027 885.621622 539.675676 885.621622c13.837838 0 27.675676 0 41.513513-2.767568h19.372973z m243.545946 0zM539.675676 484.324324c77.491892 0 138.378378-24.908108 138.378378-55.351351s-60.886486-41.513514-138.378378-41.513514-138.378378 11.07027-138.378379 41.513514 60.886486 55.351351 138.378379 55.351351zM312.735135 298.897297c19.372973 11.07027 27.675676 35.978378 13.837838 55.351352l-27.675676 47.048648c-11.07027 19.372973-35.978378 27.675676-55.351351 13.837838-19.372973-11.07027-27.675676-35.978378-13.837838-55.351351l27.675676-47.048649c11.07027-19.372973 35.978378-27.675676 55.351351-13.837838zM769.383784 298.897297c-19.372973 11.07027-27.675676 35.978378-13.837838 55.351352l27.675676 47.048648c11.07027 19.372973 35.978378 27.675676 55.351351 13.837838 19.372973-11.07027 27.675676-35.978378 13.837838-55.351351l-27.675676-47.048649c-11.07027-19.372973-35.978378-27.675676-55.351351-13.837838zM539.675676 705.72973c-138.378378 0-268.454054-58.118919-351.481081-157.751352-11.07027-11.07027-8.302703-30.443243 2.767567-38.745946 11.07027-11.07027 30.443243-8.302703 38.745946 2.767568 74.724324 88.562162 188.194595 138.378378 309.967568 138.378378 121.772973 0 240.778378-52.583784 312.735135-141.145946 11.07027-11.07027 27.675676-13.837838 38.745946-2.767567 11.07027 11.07027 13.837838 27.675676 2.767567 38.745946-83.027027 99.632432-215.87027 160.518919-354.248648 160.518919z" /></svg>