<?xml version="1.0" standalone="no"?><!DOCTYPE svg PUBLIC "-//W3C//DTD SVG 1.1//EN" "http://www.w3.org/Graphics/SVG/1.1/DTD/svg11.dtd"><svg class="icon" width="200px" height="200.00px" viewBox="0 0 1024 1024" version="1.1" xmlns="http://www.w3.org/2000/svg"><path fill="#333333" d="M512 891.957895c-35.031579 0-70.063158-13.473684-99.705263-37.726316L123.957895 590.147368C99.705263 568.589474 86.231579 538.947368 83.536842 506.610526c-2.694737-32.336842 10.778947-64.673684 32.336842-86.231579 24.252632-24.252632 56.589474-40.421053 88.926316-40.421052H256V188.631579c0-88.926316 72.757895-161.684211 161.684211-161.684211h185.936842c88.926316 0 161.684211 72.757895 161.68421 161.684211v191.326316h51.2c67.368421 0 121.263158 53.894737 121.263158 121.263158 0 35.031579-13.473684 67.368421-40.421053 88.926315l-288.336842 261.389474c-24.252632 26.947368-59.284211 40.421053-97.010526 40.421053z m-307.2-431.157895c-10.778947 0-21.557895 5.389474-29.642105 13.473684-8.084211 8.084211-10.778947 18.863158-10.778948 29.642105s5.389474 21.557895 13.473685 26.947369l291.031579 261.389474c26.947368 24.252632 64.673684 24.252632 91.621052 0L848.842105 530.863158c8.084211-8.084211 13.473684-18.863158 13.473684-29.642105 0-21.557895-18.863158-40.421053-40.421052-40.421053h-134.736842V188.631579c0-45.810526-35.031579-80.842105-80.842106-80.842105h-188.631578c-45.810526 0-80.842105 35.031579-80.842106 80.842105v272.168421H204.8zM808.421053 1024h-592.842106c-21.557895 0-40.421053-18.863158-40.421052-40.421053S194.021053 943.157895 215.578947 943.157895h592.842106c21.557895 0 40.421053 18.863158 40.421052 40.421052s-18.863158 40.421053-40.421052 40.421053z" /></svg>