<svg xmlns="http://www.w3.org/2000/svg" viewBox="0 0 1024 1024"><path fill="#333" d="M512 891.96c-35.03 0-70.06-13.47-99.7-37.73l-288.34-264.08c-24.25-21.56-37.73-51.2-40.42-83.54-2.69-32.34 10.78-64.67 32.33-86.23 24.25-24.25 56.59-40.42 88.93-40.42h51.2v-191.33c0-88.93 72.76-161.69 161.68-161.68h185.94c88.93 0 161.68 72.76 161.68 161.68v191.33h51.2c67.37 0 121.26 53.9 121.27 121.26 0 35.03-13.47 67.37-40.42 88.93l-288.34 261.39c-24.25 26.95-59.28 40.42-97.01 40.42z m-307.2-431.16c-10.78 0-21.56 5.39-29.64 13.47s-10.78 18.86-10.78 29.65 5.39 21.56 13.47 26.94l291.03 261.39c26.95 24.25 64.67 24.25 91.63 0l288.33-261.39c8.08-8.08 13.47-18.86 13.48-29.64 0-21.56-18.86-40.42-40.42-40.42h-134.74v-272.17c0-45.81-35.03-80.84-80.84-80.84h-188.64c-45.81 0-80.84 35.03-80.84 80.84v272.17h-132.04z m603.62 563.2h-592.84c-21.56 0-40.42-18.86-40.42-40.42s18.86-40.42 40.42-40.42h592.84c21.56 0 40.42 18.86 40.42 40.42s-18.86 40.42-40.42 40.42z"/></svg>