<svg xmlns="http://www.w3.org/2000/svg" viewBox="0 0 1024 1024"><path fill="undefined" d="M512 146.29a43.89 43.89 0 0 1 43.89 43.88v274.36l56.75-56.69a43.89 43.89 0 1 1 62.03 62.03l-131.66 131.66a43.89 43.89 0 0 1-62.02 0l-131.66-131.66a43.89 43.89 0 1 1 62.03-62.03l56.75 56.69v-274.36a43.89 43.89 0 0 1 43.89-43.88z m-321.83 489.03a43.89 43.89 0 0 1 43.89 43.88v79.36c0 17.33 14.04 31.38 31.38 31.38h493.12a31.38 31.38 0 0 0 31.38-31.38v-79.36a43.89 43.89 0 1 1 87.77 0v79.36c0 65.83-53.39 119.15-119.15 119.15h-493.05c-65.9 0-119.22-53.39-119.22-119.15v-79.36a43.89 43.89 0 0 1 43.88-43.88z"/></svg>