<?xml version="1.0" standalone="no"?><!DOCTYPE svg PUBLIC "-//W3C//DTD SVG 1.1//EN" "http://www.w3.org/Graphics/SVG/1.1/DTD/svg11.dtd"><svg class="icon" width="200px" height="154.33px" viewBox="0 0 1327 1024" version="1.1" xmlns="http://www.w3.org/2000/svg"><path fill="#333333" d="M512 663.703704c-60.681481 0-117.57037-22.755556-174.459259-68.266667-22.755556-18.962963-26.548148-56.888889-7.585185-79.644444 18.962963-22.755556 56.888889-26.548148 79.644444-7.585186 75.851852 64.474074 136.533333 56.888889 204.8 0 22.755556-18.962963 60.681481-18.962963 79.644444 7.585186 18.962963 22.755556 18.962963 60.681481-7.585185 79.644444-53.096296 45.511111-113.777778 68.266667-174.459259 68.266667zM807.822222 659.911111c-68.266667 0-128.948148-26.548148-182.044444-79.644444-22.755556-22.755556-22.755556-56.888889-3.792593-79.644445 22.755556-22.755556 56.888889-22.755556 79.644445-3.792592 41.718519 41.718519 87.22963 53.096296 136.533333 45.511111 30.340741-7.585185 60.681481 15.17037 68.266667 45.511111 7.585185 30.340741-15.17037 60.681481-45.511111 68.266667-18.962963 3.792593-34.133333 3.792593-53.096297 3.792592zM212.385185 659.911111c-15.17037 0-34.133333 0-49.303704-3.792592-30.340741-3.792593-53.096296-34.133333-45.511111-64.474075 3.792593-30.340741 34.133333-53.096296 64.474074-45.511111 49.303704 7.585185 94.814815-7.585185 136.533334-45.511111 22.755556-22.755556 56.888889-22.755556 79.644444 0 22.755556 22.755556 22.755556 56.888889 0 79.644445-53.096296 53.096296-117.57037 79.644444-185.837037 79.644444zM910.222222 496.82963l-53.096296-219.970371c-18.962963-79.644444-75.851852-125.155556-151.703704-125.155555H318.577778C238.933333 151.703704 170.666667 204.8 155.496296 280.651852L113.777778 493.037037l-109.985185-22.755556 45.511111-212.385185C68.266667 128.948148 182.044444 37.925926 318.577778 37.925926h390.637037c128.948148 0 235.140741 87.22963 261.688889 212.385185l53.096296 219.97037-113.777778 26.548149zM174.459259 656.118519c-94.814815 0-174.459259-79.644444-174.459259-174.45926 0-30.340741 26.548148-56.888889 56.888889-56.888889s56.888889 26.548148 56.888889 56.888889c0 34.133333 26.548148 60.681481 60.681481 60.681482 30.340741 0 56.888889 26.548148 56.888889 56.888889s-26.548148 56.888889-56.888889 56.888889zM849.540741 656.118519c-30.340741 0-56.888889-26.548148-56.888889-56.888889s26.548148-56.888889 56.888889-56.888889c34.133333 0 60.681481-26.548148 60.681481-60.681482 0-30.340741 26.548148-56.888889 56.888889-56.888889s56.888889 26.548148 56.888889 56.888889c0 94.814815-79.644444 174.459259-174.459259 174.45926zM1107.437037 640.948148c-68.266667 0-128.948148-26.548148-182.044444-79.644444-22.755556-22.755556-22.755556-56.888889-3.792593-79.644445 22.755556-22.755556 56.888889-22.755556 79.644444-3.792592 34.133333 30.340741 68.266667 45.511111 106.192593 45.511111 11.377778 0 30.340741 0 37.925926-3.792593 30.340741-7.585185 60.681481 15.17037 68.266667 45.511111 7.585185 30.340741-15.17037 60.681481-45.511111 68.266667-18.962963 7.585185-45.511111 7.585185-60.681482 7.585185zM1156.740741 637.155556c-30.340741 0-56.888889-26.548148-56.888889-56.888889s26.548148-56.888889 56.888889-56.888889c37.925926 0 53.096296-30.340741 53.096296-60.681482s26.548148-56.888889 56.888889-56.888889 56.888889 26.548148 56.888889 56.888889c-3.792593 98.607407-72.059259 174.459259-166.874074 174.45926zM747.140741 986.074074H276.859259C166.874074 986.074074 75.851852 895.051852 75.851852 785.066667v-197.214815h113.777778v197.214815C189.62963 834.37037 227.555556 872.296296 276.859259 872.296296h474.074074c49.303704 0 87.22963-37.925926 87.22963-87.229629v-197.214815h113.777778v197.214815c-3.792593 109.985185-94.814815 201.007407-204.8 201.007407zM1209.837037 477.866667l-49.303704-201.007408c-15.17037-75.851852-79.644444-125.155556-159.288889-125.155555h-329.955555V37.925926h329.955555c132.740741 0 242.725926 87.22963 273.066667 212.385185l45.511111 201.007408-109.985185 26.548148zM686.459259 986.074074c-30.340741 0-56.888889-26.548148-56.888889-56.888889s26.548148-56.888889 56.888889-56.888889h364.088889c49.303704 0 87.22963-37.925926 87.22963-87.229629V606.814815c0-30.340741 26.548148-56.888889 56.888889-56.888889s56.888889 26.548148 56.888889 56.888889v178.251852c0 109.985185-91.022222 201.007407-201.007408 201.007407h-364.088889z" /></svg>