<?xml version="1.0" standalone="no"?><!DOCTYPE svg PUBLIC "-//W3C//DTD SVG 1.1//EN" "http://www.w3.org/Graphics/SVG/1.1/DTD/svg11.dtd"><svg class="icon" width="200px" height="200.00px" viewBox="0 0 1024 1024" version="1.1" xmlns="http://www.w3.org/2000/svg"><path fill="#333333" d="M285.478788 992.969697H108.606061c-27.927273 0-55.854545-12.412121-77.575758-31.030303-21.721212-21.721212-31.030303-46.545455-31.030303-77.575758l3.10303-155.151515c0-24.824242 9.309091-46.545455 27.927273-65.163636L626.812121 65.163636c83.781818-83.781818 220.315152-83.781818 307.2 0 83.781818 83.781818 83.781818 223.418182 0 307.2L328.921212 974.351515c-12.412121 12.412121-27.927273 18.618182-43.442424 18.618182z m496.484848-899.878788c-31.030303 0-65.163636 12.412121-89.987878 37.236364L96.193939 729.212121l-3.10303 155.151515c0 9.309091 6.206061 15.515152 15.515152 15.515152h161.357575L868.848485 304.09697c49.648485-49.648485 49.648485-127.224242 0-173.769697l-3.10303-3.103031c-21.721212-21.721212-52.751515-34.133333-83.781819-34.133333zM580.018424 171.597576l65.815273-65.846303 236.978424 236.978424-65.846303 65.784242zM946.424242 992.969697H217.212121c-24.824242 0-46.545455-21.721212-46.545454-46.545455S192.387879 899.878788 217.212121 899.878788h729.212121c24.824242 0 46.545455 21.721212 46.545455 46.545454s-21.721212 46.545455-46.545455 46.545455z" /></svg>