<svg xmlns="http://www.w3.org/2000/svg" viewBox="0 0 1024 1024"><path fill="#1A1A1A" d="M690.24 64.49a157.4 157.4 0 0 1 216.83 228.18l-558.06 531.78a42.67 42.67 0 0 1-29.42 11.77h-166.37a46.55 46.55 0 0 1-46.55-46.55v-144.59a64 64 0 0 1 19.96-46.45l563.61-534.14z m16.58 301.14l-102.32-102.33-412.5 390.95v96.64h110.51l404.31-385.28z m61.8-58.88l79.57-75.86a72.06 72.06 0 0 0-99.26-104.47l-82.48 78.17 102.17 102.14z m-725.95 653.25a42.67 42.67 0 0 1 42.66-42.67h853.34a42.67 42.67 0 1 1 0 85.34h-853.34a42.67 42.67 0 0 1-42.66-42.67z"/></svg>