<svg xmlns="http://www.w3.org/2000/svg" viewBox="0 0 1024 1024"><path fill="#1A1A1A" d="M512 725.33a170.67 170.67 0 1 0 0-341.33 170.67 170.67 0 0 0 0 341.33z m0-85.33a85.33 85.33 0 1 1 0-170.67 85.33 85.33 0 0 1 0 170.67z"/><path fill="#1A1A1A" d="M512 42.67a42.67 42.67 0 0 0-42.67 42.66v86.96a581.06 581.06 0 0 0-221.97 63.44l-69.23-82.51a42.67 42.67 0 1 0-65.36 54.84l61.08 72.84c-106.58 76.99-173.85 181.99-173.85 273.77 0 169.41 229.23 384 512 384s512-214.59 512-384c0-90.99-66.11-194.99-171.11-271.79l62.76-74.82a42.67 42.67 0 0 0-65.37-54.82l-70.59 84.09a581.27 581.27 0 0 0-225.02-65.04v-86.96a42.67 42.67 0 0 0-42.67-42.66z m308.44 701.14c-79.04 63.81-188.46 109.53-308.44 109.52-119.96 0-229.4-45.72-308.42-109.52-81.92-66.13-118.25-140.18-118.25-189.14s36.35-123.01 118.25-189.14c79.02-63.81 188.46-109.53 308.42-109.53 119.96 0 229.4 45.72 308.44 109.53 81.88 66.13 118.23 140.18 118.23 189.14s-36.35 123.01-118.23 189.14z"/></svg>