<?xml version="1.0" standalone="no"?><!DOCTYPE svg PUBLIC "-//W3C//DTD SVG 1.1//EN" "http://www.w3.org/Graphics/SVG/1.1/DTD/svg11.dtd"><svg class="icon" width="200px" height="169.26px" viewBox="0 0 1210 1024" version="1.1" xmlns="http://www.w3.org/2000/svg"><path fill="#333333" d="M605.090909 1024C260.654545 1024 0 684.218182 0 512S260.654545 0 605.090909 0c321.163636 0 605.090909 321.163636 605.090909 512s-283.927273 512-605.090909 512z m0-884.363636C349.090909 139.636364 139.636364 409.6 139.636364 512s209.454545 372.363636 465.454545 372.363636c260.654545 0 465.454545-265.309091 465.454546-372.363636s-204.8-372.363636-465.454546-372.363636zM605.090909 279.272727c51.2 0 97.745455 18.618182 139.636364 46.545455h4.654545c-51.2 0-93.090909 41.890909-93.090909 93.090909s41.890909 93.090909 93.090909 93.090909c37.236364 0 69.818182-23.272727 83.781818-55.854545 4.654545 18.618182 9.309091 37.236364 9.309091 55.854545 0 130.327273-102.4 232.727273-232.727272 232.727273s-232.727273-102.4-232.727273-232.727273 97.745455-232.727273 228.072727-232.727273z" /></svg>