<svg xmlns="http://www.w3.org/2000/svg" viewBox="0 0 1024 1024"><path fill="#1A1A1A" d="M268.8 384h-12.8c-141.38 0-256 114.62-256 256v128c0 141.38 114.62 256 256 256h422.1c191.02 0 345.9-154.88 345.9-345.9v-12.16c0-197.12-169.43-351.57-365.72-333.4a16.75 16.75 0 0 1-18.28-16.66v-155.54a116.69 116.69 0 0 0-7.79-41.9 184.77 184.77 0 0 0-172.46-118.44h-24.55a92.86 92.86 0 0 0-92.31 82.69l-22.68 205.74a138.28 138.28 0 0 1-36.95 79.57c-4.97 5.25-9.77 10.58-14.46 16.02z m669.87 281.94v12.16c0 143.87-116.65 260.57-260.57 260.57h-212.18a217.45 217.45 0 0 1-209.79-160.24c-33.77-123.82 0.41-258.03 89.11-351.81a223.62 223.62 0 0 0 59.77-128.87l22.68-205.72a7.53 7.53 0 0 1 7.47-6.7h24.57a99.43 99.43 0 0 1 92.82 63.75c1.39 3.58 2.09 7.4 2.1 11.26v155.52a102.08 102.08 0 0 0 111.48 101.65c146.28-13.55 272.53 101.55 272.54 248.43z m-683.44 272.73a170.67 170.67 0 0 1-169.9-170.67v-128a170.75 170.75 0 0 1 121.82-163.56c-50.01 99.14-63.23 214.87-33.35 324.41a302.14 302.14 0 0 0 81.43 137.82z"/></svg>