<?xml version="1.0" standalone="no"?><!DOCTYPE svg PUBLIC "-//W3C//DTD SVG 1.1//EN" "http://www.w3.org/Graphics/SVG/1.1/DTD/svg11.dtd"><svg class="icon" width="200px" height="193.03px" viewBox="0 0 1061 1024" version="1.1" xmlns="http://www.w3.org/2000/svg"><path fill="#333333" d="M584.059259 1024h-265.481481C144.118519 1024 0 883.674074 0 705.422222s140.325926-318.577778 318.577778-318.577778v113.777778c-113.777778 0-204.8 91.022222-204.8 204.8S204.8 910.222222 318.577778 910.222222h265.481481v113.777778zM640.948148 1024h-53.096296c-208.592593 0-379.259259-170.666667-379.259259-383.051852 0-83.437037 26.548148-163.081481 75.851851-231.348148l3.792593-3.792593c15.17037-22.755556 30.340741-60.681481 45.511111-121.362963l7.585185-34.133333c7.585185-18.962963 15.17037-41.718519 18.962963-68.266667C386.844444 22.755556 470.281481 0 519.585185 0c117.57037 0 178.251852 106.192593 178.251852 212.385185v7.585185c0 7.585185-3.792593 18.962963-3.792593 37.925926 182.044444 0 329.955556 147.911111 329.955556 329.955556v53.096296C1024 853.333333 853.333333 1024 640.948148 1024zM519.585185 113.777778c-30.340741 0-41.718519 53.096296-49.303704 87.229629-3.792593 34.133333-11.377778 60.681481-15.17037 83.437037l-7.585185 34.133334c-11.377778 45.511111-34.133333 113.777778-60.681482 155.496296l-7.585185 3.792593A269.274074 269.274074 0 0 0 322.37037 644.740741c0 147.911111 121.362963 269.274074 269.274074 269.274074H644.740741c147.911111 0 269.274074-121.362963 269.274074-269.274074v-53.096297c0-117.57037-98.607407-216.177778-216.177778-216.177777h-56.888889c-18.962963-3.792593-37.925926-15.17037-49.303704-30.340741-11.377778-15.17037-15.17037-37.925926-15.17037-56.888889 7.585185-41.718519 11.377778-64.474074 11.377778-75.851852v-3.792592c-3.792593 0-3.792593-94.814815-68.266667-94.814815z" /></svg>