<svg xmlns="http://www.w3.org/2000/svg" viewBox="0 0 1024 1024"><path fill="undefined" d="M512 160.91a351.09 351.09 0 1 0 0 702.18 351.09 351.09 0 0 0 0-702.18z m-438.86 351.09a438.86 438.86 0 1 1 877.72 0 438.86 438.86 0 0 1-877.72 0z"/><path fill="undefined" d="M360.67 699.17a43.89 43.89 0 0 0 61.66 3.95l0.51-0.44 3.8-2.85c3.66-2.56 9.58-6.29 17.48-10.09 15.65-7.61 38.77-15.36 67.88-15.36 29.04 0 52.15 7.75 67.88 15.36a130.56 130.56 0 0 1 21.21 12.94l0.58 0.44a43.89 43.89 0 0 0 57.93-65.9v-0.15h-0.07l-0.15-0.14-0.29-0.29-0.88-0.74a114.54 114.54 0 0 0-10.75-8.19 218.26 218.26 0 0 0-29.26-17.04 242.98 242.98 0 0 0-106.2-24.06c-44.98 0-81.19 12-106.2 24.13a218.19 218.19 0 0 0-40.09 25.24l-0.8 0.73-0.37 0.29-0.07 0.07h-0.07v0.15a43.89 43.89 0 0 0-3.66 61.95z m-90.04-291.03a58.51 58.51 0 1 1 117.03 0 58.51 58.51 0 0 1-117.03 0z m419.25-58.52a58.51 58.51 0 1 0 0 117.03 58.51 58.51 0 0 0 0-117.03z"/></svg>