<svg xmlns="http://www.w3.org/2000/svg" viewBox="0 0 1024 1024"><path fill="undefined" d="M512 160.91a351.09 351.09 0 1 0 0 702.18 351.09 351.09 0 0 0 0-702.18z m-438.86 351.09a438.86 438.86 0 1 1 877.72 0 438.86 438.86 0 0 1-877.72 0z"/><path fill="undefined" d="M377.27 665.89a47.54 47.54 0 0 1 47.54-47.54h181.91a47.54 47.54 0 0 1 0 95.09h-181.91a47.54 47.54 0 0 1-47.54-47.55z m-106.64-257.75a58.51 58.51 0 1 1 117.03 0 58.51 58.51 0 0 1-117.03 0z m419.25-58.52a58.51 58.51 0 1 0 0 117.03 58.51 58.51 0 0 0 0-117.03z"/></svg>