<svg xmlns="http://www.w3.org/2000/svg" viewBox="0 0 1024 1024"><path fill="undefined" d="M512 160.91a351.09 351.09 0 1 0 0 702.18 351.09 351.09 0 0 0 0-702.18z m-438.86 351.09a438.86 438.86 0 1 1 877.72 0 438.86 438.86 0 0 1-877.72 0z m287.45 89.31a43.89 43.89 0 0 1 61.66-3.95l0.52 0.44 3.8 2.85c3.66 2.56 9.65 6.29 17.48 10.09 15.73 7.61 38.77 15.36 67.88 15.36 29.04 0 52.15-7.75 67.87-15.36a130.63 130.63 0 0 0 21.21-12.94l0.59-0.44a43.89 43.89 0 0 1 57.93 65.9v0.07h-0.07l-0.15 0.15-0.29 0.29-0.88 0.73a110.81 110.81 0 0 1-10.75 8.19c-6.95 4.83-16.82 10.97-29.26 17.05-25.09 12.14-61.22 24.14-106.2 24.13s-81.19-12-106.21-24.13a218.26 218.26 0 0 1-40.01-25.24l-0.8-0.73-0.29-0.29-0.15-0.07h-0.07v-0.15a43.89 43.89 0 0 1-3.66-61.95z"/><path fill="undefined" d="M270.63 408.14a58.51 58.51 0 1 1 117.03 0 58.51 58.51 0 0 1-117.03 0z m419.25-58.52a58.51 58.51 0 1 0 0 117.03 58.51 58.51 0 0 0 0-117.03z"/></svg>