<?xml version="1.0" standalone="no"?><!DOCTYPE svg PUBLIC "-//W3C//DTD SVG 1.1//EN" "http://www.w3.org/Graphics/SVG/1.1/DTD/svg11.dtd"><svg class="icon" width="200px" height="200.00px" viewBox="0 0 1024 1024" version="1.1" xmlns="http://www.w3.org/2000/svg"><path fill="#333333" d="M512 1024C229.831111 1024 0 794.168889 0 512S229.831111 0 512 0 1024 229.831111 1024 512 794.168889 1024 512 1024z m0-955.733333C266.24 68.266667 68.266667 266.24 68.266667 512S266.24 955.733333 512 955.733333 955.733333 757.76 955.733333 512 757.76 68.266667 512 68.266667zM623.502222 350.435556c13.653333-13.653333 34.133333-13.653333 47.786667 0 11.377778 11.377778 13.653333 31.857778 2.275555 45.511111l-2.275555 2.275555-111.502222 111.502222 111.502222 111.502223c13.653333 13.653333 13.653333 34.133333 0 47.786666-13.653333 13.653333-34.133333 13.653333-47.786667 0l-111.502222-111.502222-111.502222 111.502222c-11.377778 11.377778-31.857778 13.653333-45.511111 2.275556l-2.275556-2.275556c-11.377778-11.377778-13.653333-31.857778-2.275555-45.511111l2.275555-2.275555 111.502222-111.502223-111.502222-111.502222c-13.653333-13.653333-13.653333-34.133333 0-47.786666s34.133333-13.653333 47.786667 0l111.502222 111.502222 111.502222-111.502222z" /></svg>