<svg xmlns="http://www.w3.org/2000/svg" viewBox="0 0 1024 1024"><path fill="#1A1A1A" d="M313.3 373.65l138.35 138.35-138.35 138.35 60.35 60.35 138.35-138.37 138.35 138.37 60.33-60.35-138.35-138.35 138.37-138.35-60.35-60.35-138.35 138.37-138.35-138.37-60.35 60.35z"/><path fill="#1A1A1A" d="M1024 512c0 282.77-229.23 512-512 512s-512-229.23-512-512 229.23-512 512-512 512 229.23 512 512z m-85.33 0c0-235.65-191.02-426.67-426.67-426.67s-426.67 191.02-426.67 426.67 191.02 426.67 426.67 426.67 426.67-191.02 426.67-426.67z"/></svg>