<svg xmlns="http://www.w3.org/2000/svg" viewBox="0 0 1024 1024"><path fill="undefined" d="M73.14 226.74a190.17 190.17 0 0 1 190.17-190.17h497.38a190.17 190.17 0 0 1 190.17 190.17v570.52a190.17 190.17 0 0 1-190.17 190.17h-497.38a190.17 190.17 0 0 1-190.17-190.17v-570.52z m190.17-102.4a102.4 102.4 0 0 0-102.4 102.4v570.52a102.4 102.4 0 0 0 102.4 102.4h497.38a102.4 102.4 0 0 0 102.4-102.4v-570.52a102.4 102.4 0 0 0-102.4-102.4h-497.38z m-14.62 171.89a43.89 43.89 0 0 1 43.88-43.89h438.86a43.89 43.89 0 1 1 0 87.77h-438.86a43.89 43.89 0 0 1-43.88-43.88z m0 215.77a43.89 43.89 0 0 1 43.88-43.89h438.86a43.89 43.89 0 1 1 0 87.78h-438.86a43.89 43.89 0 0 1-43.88-43.89z m0 215.77a43.89 43.89 0 0 1 43.88-43.88h219.43a43.89 43.89 0 0 1 0 87.77h-219.43a43.89 43.89 0 0 1-43.88-43.89z"/></svg>