<svg xmlns="http://www.w3.org/2000/svg" viewBox="0 0 1024 1024"><path fill="undefined" d="M204.8 73.14a43.89 43.89 0 0 1 43.89 43.89v270.77a131.66 131.66 0 0 1 0 248.4v270.77a43.89 43.89 0 1 1-87.78 0v-270.77a131.66 131.66 0 0 1 0-248.4v-270.77a43.89 43.89 0 0 1 43.89-43.89z m307.2 0a43.89 43.89 0 0 1 43.89 43.89v51.34a131.66 131.66 0 1 1-87.78 0v-51.34a43.89 43.89 0 0 1 43.89-43.89z m307.2 0a43.89 43.89 0 0 1 43.89 43.89v394.97a43.89 43.89 0 1 1-87.78 0v-394.97a43.89 43.89 0 0 1 43.89-43.89z m-307.2 175.55a43.89 43.89 0 1 0 0 87.77 43.89 43.89 0 0 0 0-87.77z m-307.2 219.42a43.89 43.89 0 1 0 0 87.78 43.89 43.89 0 0 0 0-87.78z m307.2 0a43.89 43.89 0 0 1 43.89 43.89v394.97a43.89 43.89 0 1 1-87.78 0v-394.97a43.89 43.89 0 0 1 43.89-43.89z m307.2 219.43a43.89 43.89 0 1 0 0 87.77 43.89 43.89 0 0 0 0-87.77z m-131.66 43.89a131.66 131.66 0 1 1 175.55 124.2v51.34a43.89 43.89 0 1 1-87.78 0v-51.34a131.66 131.66 0 0 1-87.77-124.2z"/></svg>