<svg xmlns="http://www.w3.org/2000/svg" viewBox="0 0 1024 1024"><path fill="undefined" d="M512 160.91a43.89 43.89 0 1 0 0 87.78 43.89 43.89 0 0 0 0-87.78z m-124.2 0a131.66 131.66 0 0 1 248.4 0h270.77a43.89 43.89 0 1 1 0 87.78h-270.77a131.66 131.66 0 0 1-248.4 0h-270.77a43.89 43.89 0 0 1 0-87.78h270.77z m343.63 307.2a43.89 43.89 0 1 0 0 87.78 43.89 43.89 0 0 0 0-87.78z m-131.66 43.89a131.66 131.66 0 0 1 255.86-43.89h51.34a43.89 43.89 0 1 1 0 87.78h-51.34a131.66 131.66 0 0 1-255.86-43.89z m-526.63 0a43.89 43.89 0 0 1 43.89-43.89h394.97a43.89 43.89 0 0 1 0 87.78h-394.97a43.89 43.89 0 0 1-43.89-43.89z m219.43 263.31a43.89 43.89 0 1 0 0 87.78 43.89 43.89 0 0 0 0-87.78z m-124.2 0a131.66 131.66 0 1 1 0 87.78h-51.34a43.89 43.89 0 1 1 0-87.78h51.34z m299.74 43.89a43.89 43.89 0 0 1 43.89-43.89h394.97a43.89 43.89 0 1 1 0 87.78h-394.97a43.89 43.89 0 0 1-43.89-43.89z"/></svg>