<?xml version="1.0" standalone="no"?><!DOCTYPE svg PUBLIC "-//W3C//DTD SVG 1.1//EN" "http://www.w3.org/Graphics/SVG/1.1/DTD/svg11.dtd"><svg class="icon" width="200px" height="200.00px" viewBox="0 0 1024 1024" version="1.1" xmlns="http://www.w3.org/2000/svg"><path fill="#333333" d="M512 1024C230.4 1024 0 793.6 0 512S230.4 0 512 0s512 230.4 512 512-230.4 512-512 512z m0-930.909091C281.6 93.090909 93.090909 281.6 93.090909 512s188.509091 418.909091 418.909091 418.909091 418.909091-188.509091 418.909091-418.909091S742.4 93.090909 512 93.090909zM377.018182 695.854545c-20.945455 0-39.563636-11.636364-46.545455-32.581818l-6.981818-16.290909 6.981818-18.618182 69.818182-186.181818c11.636364-32.581818 37.236364-55.854545 67.490909-67.490909l204.8-76.8 18.618182 9.309091c11.636364 4.654545 20.945455 16.290909 25.6 27.927273l4.654545 16.290909-4.654545 18.618182-69.818182 186.181818c-11.636364 32.581818-37.236364 55.854545-67.490909 67.490909l-186.181818 69.818182c-4.654545 2.327273-11.636364 2.327273-16.290909 2.327272z m218.763636-267.636363l-95.418182 34.909091c-6.981818 2.327273-11.636364 6.981818-13.963636 13.963636l-34.909091 95.418182 95.418182-34.909091c6.981818-2.327273 11.636364-6.981818 13.963636-13.963636l34.909091-95.418182z" /></svg>