<svg xmlns="http://www.w3.org/2000/svg" viewBox="0 0 1024 1024"><path fill="#333" d="M512 1024c-281.6 0-512-230.4-512-512s230.4-512 512-512 512 230.4 512 512-230.4 512-512 512z m0-930.91c-230.4 0-418.91 188.51-418.91 418.91s188.51 418.91 418.91 418.91 418.91-188.51 418.91-418.91-188.51-418.91-418.91-418.91z m-134.98 602.77c-20.95 0-39.56-11.64-46.55-32.59l-6.98-16.29 6.98-18.62 69.82-186.18c11.64-32.58 37.24-55.85 67.49-67.49l204.8-76.8 18.62 9.31c11.64 4.66 20.95 16.29 25.6 27.93l4.66 16.29-4.66 18.62-69.82 186.18c-11.64 32.58-37.24 55.85-67.49 67.49l-186.18 69.82c-4.65 2.33-11.64 2.33-16.29 2.33z m218.76-267.64l-95.42 34.91c-6.98 2.33-11.64 6.98-13.96 13.96l-34.91 95.42 95.42-34.91c6.98-2.33 11.63-6.98 13.96-13.96l34.91-95.42z"/></svg>