<svg xmlns="http://www.w3.org/2000/svg" viewBox="0 0 1024 1024"><path fill="undefined" d="M117.03 0a43.89 43.89 0 0 1 43.88 43.89v2.92h460.8c84.85 0 153.6 68.75 153.6 153.6v33.65h21.95c84.85 0 153.6 68.75 153.6 153.6v265.73a153.6 153.6 0 0 1-153.6 153.6h-394.97a153.6 153.6 0 0 1-153.6-153.6v-3.88h-87.78v330.6a43.89 43.89 0 1 1-87.77 0v-936.22a43.89 43.89 0 0 1 43.89-43.89z m43.88 561.74h460.8a65.83 65.83 0 0 0 65.83-65.83v-295.5a65.83 65.83 0 0 0-65.83-65.83h-460.8v427.16z m175.55 87.77v3.88a65.83 65.83 0 0 0 65.83 65.82h394.97a65.83 65.83 0 0 0 65.83-65.82v-265.73a65.83 65.83 0 0 0-65.83-65.83h-21.95v174.08a153.6 153.6 0 0 1-153.6 153.6h-285.25z"/></svg>