<svg xmlns="http://www.w3.org/2000/svg" viewBox="0 0 1024 1024"><path fill="#333" d="M1024.71 337.08h-80.9c0-126.74-102.47-231.91-229.21-231.91-59.32 0-115.95 24.27-159.1 64.72l-5.39 5.39c-21.57 21.57-56.63 21.57-78.2 0-2.7-2.7-2.7-5.39-5.4-5.39-43.15-40.45-99.78-64.72-159.1-64.72-124.04 0-226.52 105.17-226.51 231.91h-80.9c0-172.58 140.22-312.81 310.11-312.81 75.51 0 145.62 26.97 202.25 75.5 56.63-48.54 126.74-75.51 202.24-75.5 169.89 0 310.11 140.22 310.11 312.81z m-911.45 275.05c-13.48 0-24.27-5.39-32.36-16.18-2.7-5.39-8.09-10.79-10.79-16.18-45.84-72.81-70.11-156.4-70.11-242.69 0-21.57 18.88-40.45 40.45-40.45s40.45 18.88 40.45 40.45c0 70.11 18.88 137.53 56.63 196.85 2.7 5.39 5.39 8.09 8.09 13.48 13.48 18.88 8.09 43.15-10.79 56.63-5.39 5.39-13.48 8.09-21.57 8.09z m844.04-86.29c-5.39 0-10.79 0-13.49-2.7-21.57-8.09-32.36-32.36-21.57-51.23 16.18-43.15 24.27-88.99 24.27-134.83-2.7-21.57 16.18-40.45 37.75-40.45s40.45 18.88 40.45 40.45c0 56.63-10.79 113.26-32.36 164.49-5.39 16.18-18.88 24.27-35.05 24.27z m-444.94 407.19c-8.09 0-18.88-2.7-26.97-5.4-10.79-5.39-16.18-5.39-18.88-8.09-159.1-72.81-293.93-186.07-391-331.68-13.48-18.88-8.09-43.15 10.78-56.63s43.15-8.09 56.63 10.79c88.99 132.13 213.03 237.3 358.65 304.71l2.7 2.7c2.7 0 2.7 2.7 8.09 2.7l13.48-5.4 48.54-24.26c18.88-10.79 43.15-2.7 53.93 16.17 10.79 18.88 2.7 43.15-16.18 53.94s-37.75 18.88-53.93 26.96l-18.88 8.09c-8.09 5.39-18.88 5.39-26.96 5.4z m-5.4-78.21z m10.79 0z m439.55-99.77h-269.67c-21.57 0-40.45-18.88-40.44-40.45s18.88-40.45 40.44-40.45h269.67c21.57 0 40.45 18.88 40.44 40.45s-18.88 40.45-40.44 40.45z m-134.83 134.83c-21.57 0-40.45-18.88-40.45-40.45v-269.66c0-21.57 18.88-40.45 40.45-40.45s40.45 18.88 40.44 40.45v269.66c0 21.57-18.88 40.45-40.44 40.45z"/></svg>