<svg xmlns="http://www.w3.org/2000/svg" viewBox="0 0 1024 1024"><path fill="#333" d="M1024.18 334.77h-85.11c0-124.83-102.13-224.13-224.13-224.12-59.58 0-113.48 22.7-156.04 62.41l-2.84 2.84c-22.7 22.7-59.58 22.7-82.27 0l-5.68-5.68c-42.56-39.72-96.46-62.42-156.03-62.41-124.83 0-224.13 102.13-224.13 224.13h-85.11c0-170.22 139.02-309.24 309.24-309.24 73.76 0 144.69 25.53 201.43 73.76 56.74-48.23 127.67-73.76 201.43-73.76 170.22 2.84 309.24 141.85 309.24 312.07z m-941.91 255.34c-2.84-5.67-8.51-11.35-11.34-17.02-45.39-70.93-70.93-153.2-70.93-238.32h85.11c0 68.09 19.86 136.18 56.74 192.92 2.84 5.67 5.67 8.51 8.51 11.35l-68.09 51.07z m865.31-5.68l-70.93-48.23c39.72-59.58 62.42-130.51 62.42-201.43h85.11c0 90.79-25.53 175.9-76.6 249.66z m-434.07 343.29c-8.51 0-19.86-2.84-28.37-5.68-8.51-2.84-14.19-5.67-17.03-8.51-158.88-70.93-292.22-184.41-388.67-329.09l70.92-48.24c87.95 130.51 209.94 235.48 354.64 297.9l2.83 2.83s2.84 2.84 5.68 2.84l11.35-5.67c141.85-65.25 263.85-167.39 351.79-300.73l70.93 48.23c-96.46 144.69-229.8 258.17-388.68 331.93l-17.02 8.51c-8.51 2.84-19.86 5.67-28.37 5.68z"/></svg>