<?xml version="1.0" standalone="no"?><!DOCTYPE svg PUBLIC "-//W3C//DTD SVG 1.1//EN" "http://www.w3.org/Graphics/SVG/1.1/DTD/svg11.dtd"><svg class="icon" width="200px" height="182.86px" viewBox="0 0 1120 1024" version="1.1" xmlns="http://www.w3.org/2000/svg"><path fill="#333333" d="M1120.193939 366.157576h-93.090909c0-136.533333-111.709091-245.139394-245.139394-245.139394-65.163636 0-124.121212 24.824242-170.666666 68.266666l-3.103031 3.103031c-24.824242 24.824242-65.163636 24.824242-89.987878 0l-6.206061-6.206061c-46.545455-43.442424-105.50303-68.266667-170.666667-68.266666C204.8 117.915152 96.193939 229.624242 96.193939 363.054545H3.10303C3.10303 176.872727 155.151515 24.824242 341.333333 24.824242c80.678788 0 158.254545 27.927273 220.315152 80.678788C623.709091 52.751515 701.284848 24.824242 781.963636 24.824242c186.181818 3.10303 338.230303 155.151515 338.230303 341.333334zM89.987879 645.430303c-3.10303-6.206061-9.309091-12.412121-12.412121-18.618182-49.648485-77.575758-77.575758-167.563636-77.575758-260.654545h93.090909c0 74.472727 21.721212 148.945455 62.060606 211.00606 3.10303 6.206061 6.206061 9.309091 9.309091 12.412122l-74.472727 55.854545z m946.424242-6.206061l-77.575757-52.751515c43.442424-65.163636 68.266667-142.739394 68.266666-220.315151h93.090909c0 99.29697-27.927273 192.387879-83.781818 273.066666zM561.648485 1014.690909c-9.309091 0-21.721212-3.10303-31.030303-6.206061-9.309091-3.10303-15.515152-6.206061-18.618182-9.30909-173.769697-77.575758-319.612121-201.69697-425.115152-359.951516l77.575758-52.751515c96.193939 142.739394 229.624242 257.551515 387.878788 325.818182l3.10303 3.10303s3.10303 3.10303 6.206061 3.103031l12.412121-6.206061c155.151515-71.369697 288.581818-183.078788 384.775758-328.921212l77.575757 52.751515c-105.50303 158.254545-251.345455 282.375758-425.115151 363.054546l-18.618182 9.30909c-9.309091 3.10303-21.721212 6.206061-31.030303 6.206061z" /></svg>