<?xml version="1.0" standalone="no"?><!DOCTYPE svg PUBLIC "-//W3C//DTD SVG 1.1//EN" "http://www.w3.org/Graphics/SVG/1.1/DTD/svg11.dtd"><svg class="icon" width="200px" height="200.00px" viewBox="0 0 1024 1024" version="1.1" xmlns="http://www.w3.org/2000/svg"><path fill="#333333" d="M960.384569 91.477333a42.666667 42.666667 0 1 1-44.088889 73.045334C821.205902 107.121778 739.797902 85.333333 600.306347 85.333333c-54.044444 0-118.698667 10.069333-158.492445 25.543111a42.666667 42.666667 0 0 1-30.919111-79.530666C461.497458 11.662222 536.39168 0 600.334791 0c154.709333 0 251.392 25.884444 360.049778 91.477333zM506.354347 673.080889a42.752 42.752 0 0 1 17.038222-57.884445 42.439111 42.439111 0 0 1 57.656889 17.095112c4.209778 7.793778 60.188444 147.342222 64.853333 160.426666 1.706667 4.778667 3.413333 9.927111 5.290667 15.559111 2.929778 8.817778 11.121778 34.816 12.088889 37.717334 18.545778 55.808 64.199111 92.672 117.333333 92.672 67.868444 0 116.081778-49.493333 115.370667-122.538667-0.170667-15.701333-3.299556-34.304-16.782223-104.277333l-2.901333-15.36c-10.808889-57.173333-15.758222-92.131556-15.36-120.433778 0.312889-22.243556 2.076444-30.151111 17.436445-90.311111 5.831111-22.840889 9.244444-38.030222 11.662222-53.077334a218.453333 218.453333 0 0 0 3.128889-34.446222c0-90.823111-115.712-142.222222-297.585778-142.222222-179.057778 0-297.557333 65.507556-297.557333 160C298.027236 509.639111 430.720569 597.333333 595.584569 597.333333c23.466667 0 42.496 19.114667 42.496 42.666667S619.051236 682.666667 595.584569 682.666667C389.419236 682.666667 213.006791 566.072889 213.006791 416 213.006791 260.636444 375.822791 170.666667 595.584569 170.666667c223.658667 0 382.577778 70.599111 382.577778 227.555555 0 15.217778-1.450667 31.061333-4.181334 48.071111-2.929778 18.147556-6.826667 35.470222-13.255111 60.643556-12.714667 49.777778-14.592 58.311111-14.762666 70.314667-0.284444 20.48 4.152889 52.024889 13.852444 103.338666l2.901333 15.075556c15.132444 78.734222 18.033778 96.028444 18.289778 119.608889C982.144569 935.537778 896.014791 1024 780.61568 1024c-91.676444 0-168.391111-61.923556-197.973333-151.04-1.251556-3.669333-9.472-29.752889-12.145778-37.859556a643.527111 643.527111 0 0 0-4.693333-13.710222 11056.384 11056.384 0 0 0-59.448889-148.309333zM310.400569 65.934222a42.666667 42.666667 0 1 1-52.565333 67.242667C243.726791 122.140444 218.980124 113.777778 198.784569 113.777778 156.686791 113.777778 127.673458 142.933333 127.673458 182.328889c0 17.180444 13.852444 38.343111 35.612444 50.972444a42.666667 42.666667 0 1 1-42.780444 73.841778C73.79968 280.064 42.340124 231.936 42.340124 182.328889 42.340124 95.857778 109.525902 28.444444 198.784569 28.444444c39.054222 0 82.346667 14.620444 111.616 37.489778z" /></svg>