<svg xmlns="http://www.w3.org/2000/svg" viewBox="0 0 1024 1024"><path fill="undefined" d="M231.13 196.02c0-67.88 55-122.88 122.88-122.88 64 0 120.98 29.77 157.99 76.22a201.51 201.51 0 0 1 157.99-76.22 122.88 122.88 0 0 1 117.76 157.99h40.23c67.88 0 122.88 55 122.88 122.88v39.5a122.88 122.88 0 0 1-79 114.83v319.64a122.88 122.88 0 0 1-122.88 122.88h-473.96a122.88 122.88 0 0 1-122.88-122.88v-319.64a122.88 122.88 0 0 1-79-114.83v-39.5c0-67.88 55-122.88 122.88-122.88h40.23a122.88 122.88 0 0 1-5.12-35.11z m122.88 35.11h105.33a114.1 114.1 0 0 0-105.33-70.22 35.11 35.11 0 1 0 0 70.22z m114.1 87.77h-272.09a35.11 35.11 0 0 0-35.11 35.11v39.5c0 19.38 15.73 35.11 35.11 35.11h272.09v-109.72z m0 197.49h-228.2v311.59c0 19.38 15.73 35.11 35.11 35.11h193.09v-346.7z m87.78 346.7h193.09a35.11 35.11 0 0 0 35.11-35.11v-311.59h-228.2v346.7z m0-434.47h272.09a35.11 35.11 0 0 0 35.11-35.11v-39.5a35.11 35.11 0 0 0-35.11-35.11h-272.09v109.72z m8.77-197.49h105.33a35.11 35.11 0 1 0 0-70.22 114.1 114.1 0 0 0-105.33 70.22z"/></svg>