<svg xmlns="http://www.w3.org/2000/svg" viewBox="0 0 1024 1024"><path fill="#333" d="M512 12.67c-282.88 0-512 229.25-512 512 0 226.26 146.69 418.13 350.08 485.76 25.6 4.82 34.99-11.01 34.99-24.62 0-12.16-0.43-44.37-0.64-87.04-142.42 30.89-172.46-68.69-172.46-68.69-23.3-59.09-56.96-74.88-56.96-74.88-46.38-31.74 3.58-31.1 3.58-31.1 51.41 3.58 78.42 52.74 78.42 52.73 45.65 78.29 119.85 55.68 149.12 42.58 4.61-33.11 17.79-55.68 32.43-68.48-113.71-12.8-233.22-56.83-233.22-253.01 0-55.89 19.84-101.55 52.7-137.39-5.76-12.93-23.04-64.98 4.48-135.51 0 0 42.88-13.74 140.8 52.48 40.96-11.39 84.48-17.02 128-17.28 43.52 0.26 87.04 5.89 128 17.28 97.28-66.22 140.16-52.48 140.16-52.48 27.52 70.53 10.24 122.58 5.12 135.51 32.64 35.84 52.48 81.49 52.48 137.39 0 196.69-119.68 240-233.6 252.59 17.92 15.36 34.56 46.76 34.56 94.72 0 68.52-0.64 123.56-0.64 140.2 0 13.44 8.96 29.44 35.2 24.32 204.84-67.16 351.4-259.16 351.4-485.08 0-282.75-229.25-512-512-512"/></svg>