<svg xmlns="http://www.w3.org/2000/svg" viewBox="0 0 1024 1024"><path fill="undefined" d="M135.09 579.66a352.11 352.11 0 0 0 191.93 210.06 441.27 441.27 0 0 1-11.41-26.04 678.55 678.55 0 0 1-38.4-147.38c-37.01-5.85-71.02-13.39-100.94-22.38a482.82 482.82 0 0 1-41.18-14.26z m333.02 327.31a438.86 438.86 0 1 1 0-877.71 438.86 438.86 0 0 1 0 877.71z m333.02-327.31a483.62 483.62 0 0 1-41.1 14.26c-29.99 9-64 16.53-100.94 22.38a678.55 678.55 0 0 1-38.55 147.38c-3.51 8.92-7.31 17.55-11.33 25.97a352.18 352.18 0 0 0 191.85-209.92z m0-223.09a352.18 352.18 0 0 0-191.92-210.06 397.31 397.31 0 0 1 11.33 26.03c16.9 42.2 29.99 92.31 38.48 147.39 37.01 5.85 71.02 13.39 100.93 22.38 14.41 4.32 28.16 9.07 41.18 14.26z m-232.88-47.18a560.86 560.86 0 0 0-29.19-104.37c-13.09-32.62-27.5-56.17-41.32-70.73-13.75-14.48-23.77-17.26-29.63-17.26-5.85 0-15.87 2.78-29.62 17.33-13.82 14.63-28.31 38.03-41.32 70.73a560.79 560.79 0 0 0-29.19 104.38 1331.86 1331.86 0 0 1 200.27 0z m-211.68 89.09a936.52 936.52 0 0 0 0 139.27c35.11 3.22 72.48 4.97 111.54 4.97s76.51-1.76 111.55-4.97a936.52 936.52 0 0 0 0-139.27c-35.11-3.22-72.48-4.97-111.55-4.97-39.06 0-76.51 1.76-111.54 4.97z m-88.72 12.07a643.44 643.44 0 0 0-66.41 15.8c-33.43 10.02-57.34 21.14-71.9 31.45a51.93 51.93 0 0 0-11.56 10.31 51.93 51.93 0 0 0 11.56 10.32c14.63 10.31 38.47 21.43 71.9 31.45 19.75 5.92 42.06 11.26 66.41 15.8a1032.92 1032.92 0 0 1 0-115.13z m9.36-90.7a678.62 678.62 0 0 1 38.4-147.31c3.66-8.92 7.31-17.55 11.41-26.03a352.11 352.11 0 0 0-191.93 210.06c13.02-5.19 26.77-9.95 41.11-14.26 29.99-9 64-16.53 100.94-22.38z m90.7 306.98c7.31 39.5 17.33 74.83 29.18 104.38 13.02 32.62 27.5 56.17 41.33 70.73 13.75 14.56 23.77 17.33 29.62 17.33 5.85 0 15.87-2.78 29.62-17.33 13.82-14.63 28.23-38.03 41.33-70.73 11.85-29.55 21.8-64.8 29.18-104.38a1331.42 1331.42 0 0 1-200.26 0z m300.4-101.08c24.36-4.53 46.59-9.87 66.41-15.8 33.43-10.02 57.34-21.14 71.83-31.45a51.93 51.93 0 0 0 11.55-10.31 51.93 51.93 0 0 0-11.55-10.32c-14.48-10.31-38.4-21.43-71.83-31.45a643.51 643.51 0 0 0-66.41-15.8 1032.92 1032.92 0 0 1 0 115.13z"/></svg>