<svg xmlns="http://www.w3.org/2000/svg" viewBox="0 0 1024 1024"><path fill="undefined" d="M512 160.91a351.09 351.09 0 0 0-351.09 351.09v43.89h87.78a131.66 131.66 0 0 1 131.65 131.65v131.66a131.66 131.66 0 0 1-131.65 131.66h-43.89a131.66 131.66 0 0 1-131.66-131.66v-307.2a438.86 438.86 0 1 1 877.72 0v307.2a131.66 131.66 0 0 1-131.66 131.66h-43.89a131.66 131.66 0 0 1-131.65-131.66v-131.66a131.66 131.66 0 0 1 131.65-131.65h87.78v-43.89a351.09 351.09 0 0 0-351.09-351.09z m351.09 482.75h-87.78a43.89 43.89 0 0 0-43.88 43.88v131.66a43.89 43.89 0 0 0 43.88 43.89h43.89a43.89 43.89 0 0 0 43.89-43.89v-175.54z m-702.18 0v175.54a43.89 43.89 0 0 0 43.89 43.89h43.89a43.89 43.89 0 0 0 43.88-43.89v-131.66a43.89 43.89 0 0 0-43.88-43.88h-87.78z"/></svg>