<svg xmlns="http://www.w3.org/2000/svg" viewBox="0 0 1024 1024"><path fill="#1A1A1A" d="M554.67 128v64h64v85.33h-64v64h-85.34v-64h-64v-85.33h64v-64h85.34z m-200.84 578.22c29.27 29.29 81.49 54.02 137.46 60.24 57.71 6.4 125.01-6.36 178.88-60.24l-60.34-60.33c-31.45 31.45-70.83 40.02-109.12 35.75-40.02-4.44-73.15-22.38-86.54-35.75l-60.34 60.33z"/><path fill="#1A1A1A" d="M85.33 128v384c0 108.61 40.58 207.74 107.42 283.07-55.55 42.88-103.94 96.62-142.85 158.3-13.12 20.78-7.89 48.98 11.67 62.93 19.56 13.95 46.08 8.41 59.2-12.4 37.42-59.31 84.67-109.59 138.88-147.84a424.75 424.75 0 0 0 252.35 82.61 424.75 424.75 0 0 0 252.35-82.58c54.21 38.23 101.46 88.51 138.88 147.81 13.14 20.8 39.64 26.37 59.22 12.4 19.56-13.95 24.77-42.15 11.65-62.93-38.91-61.7-87.3-115.41-142.85-158.3a425.07 425.07 0 0 0 107.42-283.07v-384a128 128 0 0 0-128-128h-597.34a128 128 0 0 0-128 128z m725.34-42.67a42.67 42.67 0 0 1 42.66 42.67v256h-682.66v-256a42.67 42.67 0 0 1 42.66-42.67h597.34z m42.66 426.67c0 188.52-152.81 341.33-341.33 341.33s-341.33-152.81-341.33-341.33v-42.67h682.66v42.67z"/></svg>