<?xml version="1.0" standalone="no"?><!DOCTYPE svg PUBLIC "-//W3C//DTD SVG 1.1//EN" "http://www.w3.org/Graphics/SVG/1.1/DTD/svg11.dtd"><svg class="icon" width="200px" height="179.02px" viewBox="0 0 1144 1024" version="1.1" xmlns="http://www.w3.org/2000/svg"><path fill="#333333" d="M572.235294 1020.988235l-54.211765-33.129411s-120.470588-78.305882-243.952941-189.741177c-72.282353-66.258824-129.505882-132.517647-174.682353-195.764706-27.105882-39.152941-48.188235-78.305882-63.247059-117.458823-18.070588-45.176471-27.105882-90.352941-27.105882-132.517647 0-45.176471 9.035294-90.352941 27.105882-132.517647 18.070588-39.152941 42.164706-75.294118 72.282353-108.42353 30.117647-30.117647 69.270588-54.211765 108.42353-72.282353 99.388235-42.164706 219.858824-33.129412 313.223529 24.094118l36.141177 27.105882 36.141176-27.105882c93.364706-57.223529 213.835294-66.258824 313.22353-24.094118 42.164706 18.070588 78.305882 42.164706 108.423529 72.282353 33.129412 30.117647 57.223529 66.258824 72.282353 108.42353 18.070588 42.164706 27.105882 87.341176 27.105882 132.517647 0 42.164706-9.035294 87.341176-27.105882 132.517647-15.058824 36.141176-36.141176 78.305882-63.247059 117.458823-42.164706 63.247059-99.388235 129.505882-174.682353 195.764706-117.458824 108.423529-231.905882 183.717647-243.952941 189.741177L572.235294 1020.988235zM355.388235 102.4c-33.129412 0-66.258824 6.023529-96.37647 18.070588-30.117647 12.047059-57.223529 30.117647-81.317647 54.211765-24.094118 24.094118-42.164706 48.188235-54.211765 78.305882-12.047059 30.117647-21.082353 63.247059-21.082353 96.376471s6.023529 66.258824 21.082353 102.4c12.047059 33.129412 30.117647 66.258824 54.211765 99.388235 39.152941 57.223529 93.364706 117.458824 159.623529 180.705883 114.447059 105.411765 228.894118 180.705882 231.905882 180.705882l6.02353 3.011765 3.011765-3.011765c6.023529-3.011765 117.458824-75.294118 231.905882-180.705882 66.258824-63.247059 120.470588-123.482353 159.623529-180.705883C993.882353 515.011765 1011.952941 481.882353 1024 451.764706c15.058824-36.141176 21.082353-69.270588 21.082353-102.4s-6.023529-66.258824-21.082353-96.376471c-12.047059-30.117647-30.117647-54.211765-54.211765-78.305882-27.105882-24.094118-51.2-42.164706-81.317647-54.211765-72.282353-30.117647-162.635294-24.094118-231.905882 18.070588l-27.105882 18.070589c-9.035294 6.023529-15.058824 15.058824-24.094118 21.082353L572.235294 213.835294 539.105882 180.705882c-9.035294-9.035294-15.058824-15.058824-24.094117-21.082353l-27.105883-18.070588c-39.152941-27.105882-84.329412-39.152941-132.517647-39.152941z" /></svg>