<svg xmlns="http://www.w3.org/2000/svg" viewBox="0 0 1024 1024"><path fill="#333" d="M988.3 193.72a301.23 301.23 0 0 0-65.92-95.91 306.28 306.28 0 0 0-97.32-64.3 307.35 307.35 0 0 0-118.61-23.51c-57.07 0-112.79 15.64-161.22 45.18a300.48 300.48 0 0 0-33.02 23.3 301.96 301.96 0 0 0-33.02-23.3 309.38 309.38 0 0 0-161.21-45.2c-41.14 0-80.98 7.87-118.62 23.5a305.63 305.63 0 0 0-97.32 64.3 299.37 299.37 0 0 0-90.26 213.94c0 38.58 7.9 78.77 23.54 119.7 13.07 34.16 31.84 69.61 55.8 105.4 38.01 56.61 90.26 115.71 155.12 175.58 107.51 99.29 213.97 167.87 218.47 170.65l27.47 17.6a37.2 37.2 0 0 0 39.95 0l27.45-17.6c4.53-2.91 110.88-71.36 218.47-170.65 64.89-59.87 117.11-118.97 155.12-175.6 23.99-35.77 42.86-71.22 55.8-105.41 15.66-40.9 23.53-81.09 23.54-119.67a294.93 294.93 0 0 0-24.21-118.02z"/></svg>