<svg xmlns="http://www.w3.org/2000/svg" viewBox="0 0 1024 1024"><path fill="#1A1A1A" d="M512 132.39c-53.65-42.84-121.02-68.39-194.11-68.39-172.93 0-313.24 142.7-317.76 319.96-3.11 126.29 51.16 243.18 128.04 340.52 91.24 115.52 209.98 209.62 344.47 269.8a95.79 95.79 0 0 0 78.55-0.08c135.57-60.99 254.89-155.26 346.62-272.22 75.09-95.74 126.19-204.97 126.19-329.17 0-181.33-142.08-328.81-317.87-328.81-73.11 0-140.48 25.56-194.13 68.39z m17.37 776.88a40.34 40.34 0 0 1-34.76 0.04c-114.77-54.63-220.42-137.64-299.47-237.72-69.16-87.57-112.15-185.51-109.7-285.46 3.43-133.87 108.61-236.8 232.43-236.8 52.78 0 101.55 18.37 140.88 49.75l53.25 42.52 53.25-42.52c39.32-31.36 88.11-49.75 140.86-49.75 125.91 0 232.55 106.45 232.56 243.48 0 99.35-40.55 190.51-108.01 276.5-79.42 101.27-185.32 184.58-301.29 239.98z"/><path fill="undefined" d="M490.07 955.35c-127.79-57.19-240.96-146.73-328.04-256.85 83.2 105.17 193.96 192.06 314.24 249.34a83.01 83.01 0 0 0 71.48-0.06c121.47-58.03 232.49-145.22 316.1-251.65-87.49 111.4-201.17 201.13-330.15 259.16a53.12 53.12 0 0 1-43.63 0.06z"/></svg>