<?xml version="1.0" standalone="no"?><!DOCTYPE svg PUBLIC "-//W3C//DTD SVG 1.1//EN" "http://www.w3.org/Graphics/SVG/1.1/DTD/svg11.dtd"><svg class="icon" width="200px" height="179.02px" viewBox="0 0 1144 1024" version="1.1" xmlns="http://www.w3.org/2000/svg"><path fill="#333333" d="M1104.112941 216.425412a336.534588 336.534588 0 0 0-73.637647-107.158588 342.166588 342.166588 0 0 0-108.724706-71.830589 343.371294 343.371294 0 0 0-132.517647-26.262588c-63.759059 0-126.012235 17.468235-180.103529 50.477177-12.950588 7.890824-25.238588 16.564706-36.894118 26.021647a337.347765 337.347765 0 0 0-36.894118-26.021647A345.630118 345.630118 0 0 0 355.237647 11.143529c-45.959529 0-90.473412 8.794353-132.517647 26.262589a341.443765 341.443765 0 0 0-108.724706 71.830588 334.456471 334.456471 0 0 0-100.833882 239.013647c0 43.098353 8.824471 88.003765 26.292706 133.722353 14.607059 38.159059 35.568941 77.763765 62.343529 117.76 42.465882 63.247059 100.833882 129.264941 173.296941 196.156235 120.109176 110.923294 239.043765 187.542588 244.073412 190.644706l30.689882 19.666824a41.562353 41.562353 0 0 0 44.634353 0l30.659765-19.666824c5.059765-3.252706 123.873882-79.721412 244.073412-190.644706 72.493176-66.891294 130.831059-132.909176 173.296941-196.186353 26.804706-39.966118 47.887059-79.570824 62.343529-117.76 17.498353-45.688471 26.292706-90.593882 26.292706-133.692235a329.487059 329.487059 0 0 0-27.045647-131.855059z" /></svg>