<svg xmlns="http://www.w3.org/2000/svg" viewBox="0 0 1024 1024"><path fill="undefined" d="M476.16 387.66c0-12.73 12.43-29.26 35.84-29.26 23.33 0 35.77 16.53 35.77 29.26a24.72 24.72 0 0 1-4.68 14.33c-4.46 6.36-10.24 13.17-17.56 21.58l-3.58 4.02a595.89 595.89 0 0 0-19.75 23.34c-15.07 18.87-34.08 47.18-34.09 83.01v18.29a43.89 43.89 0 0 0 87.78 0v-18.29c0-4.53 2.49-12.65 15.06-28.52 4.97-6.29 10.24-12.29 16.46-19.31l4.1-4.68c7.39-8.48 16.02-18.43 23.4-29.04 12.87-18.36 20.63-40.67 20.63-64.73 0-68.02-58.95-117.03-123.61-117.03-64.59 0-123.47 49.01-123.47 117.03a43.89 43.89 0 0 0 87.77 0z m79.73 288.77a43.89 43.89 0 0 0-87.78 0v3.8a43.89 43.89 0 0 0 87.78 0v-3.8z"/><path fill="undefined" d="M616.96 101.74a206.99 206.99 0 0 0-209.92 0l-193.02 113.3a212.85 212.85 0 0 0-104.31 183.59v226.74a212.85 212.85 0 0 0 104.38 183.66l192.88 113.3a206.99 206.99 0 0 0 209.99 0l192.88-113.3a212.85 212.85 0 0 0 104.45-183.66v-226.74a212.85 212.85 0 0 0-104.45-183.66l-192.88-113.3z m-165.52 75.7a119.22 119.22 0 0 1 121.05 0l192.88 113.3c37.6 22.02 61.15 63.12 61.14 107.96v226.67a125.07 125.07 0 0 1-61.14 107.96l-192.88 113.37a119.22 119.22 0 0 1-121.05 0l-192.88-113.37a125.07 125.07 0 0 1-61.07-107.96v-226.74c0-44.84 23.48-85.94 61.07-107.96l192.88-113.37z"/></svg>