<?xml version="1.0" standalone="no"?><!DOCTYPE svg PUBLIC "-//W3C//DTD SVG 1.1//EN" "http://www.w3.org/Graphics/SVG/1.1/DTD/svg11.dtd"><svg class="icon" width="200px" height="200.00px" viewBox="0 0 1024 1024" version="1.1" xmlns="http://www.w3.org/2000/svg"><path fill="#333333" d="M761.435897 1024H262.564103c-131.282051 0-236.307692-105.025641-236.307693-236.307692V404.348718c0-52.512821 26.25641-102.4 68.266667-131.282051L467.364103 21.005128c26.25641-18.379487 60.389744-18.379487 89.271794 0l372.841026 252.061539c42.010256 28.882051 68.266667 78.769231 68.266667 131.282051V787.692308c0 131.282051-105.025641 236.307692-236.307693 236.307692zM139.158974 338.707692c-21.005128 15.753846-34.133333 39.384615-34.133333 65.641026V787.692308c0 86.646154 70.892308 157.538462 157.538462 157.538461h498.871794c86.646154 0 157.538462-70.892308 157.538462-157.538461V404.348718c0-26.25641-13.128205-49.887179-34.133333-65.641026L512 86.646154 139.158974 338.707692zM590.769231 735.179487h-157.538462c-21.005128 0-39.384615-18.379487-39.384615-39.384615s18.379487-39.384615 39.384615-39.384616h157.538462c21.005128 0 39.384615 18.379487 39.384615 39.384616s-18.379487 39.384615-39.384615 39.384615z" /></svg>