<svg xmlns="http://www.w3.org/2000/svg" viewBox="0 0 1024 1024"><path fill="#11141a" d="M885.33 408.96v401.71c0 26.45-9.39 49.07-28.16 67.84-18.77 18.77-41.39 28.16-67.84 28.16h-245.33v-245.34c0-11.73-9.6-21.33-21.33-21.33h-21.34c-11.73 0-21.33 9.6-21.33 21.33v245.34h-245.33c-26.45 0-49.07-9.39-67.84-28.16-18.77-18.77-28.16-41.39-28.16-67.84v-401.71l338.13-296.53c10.03-8.75 21.76-13.23 35.2-13.23 13.44 0 25.17 4.48 35.2 13.23l338.13 296.53z m64 56.11l16.22 14.29c8.75 7.68 22.4 6.83 30.08-1.92l14.08-16.21c7.68-8.96 6.83-22.4-1.92-30.08l-418.35-366.94c-22.19-19.41-48-29.01-77.44-29.01s-55.25 9.81-77.44 29.01l-418.35 366.94c-8.96 7.68-9.81 21.33-1.92 30.08l14.08 16.21c7.68 8.96 21.33 9.81 30.08 1.92l16.22-14.29v345.6c0 44.16 15.57 81.92 46.93 113.06 31.15 31.36 68.91 46.93 113.07 46.94h554.66c44.16 0 81.92-15.57 113.07-46.94 31.36-31.15 46.93-68.91 46.93-113.06v-345.6z"/></svg>