<?xml version="1.0" standalone="no"?><!DOCTYPE svg PUBLIC "-//W3C//DTD SVG 1.1//EN" "http://www.w3.org/Graphics/SVG/1.1/DTD/svg11.dtd"><svg class="icon" width="200px" height="187.89px" viewBox="0 0 1090 1024" version="1.1" xmlns="http://www.w3.org/2000/svg"><path fill="#333333" d="M977.454545 124.121212h-930.90909C21.721212 124.121212 0 102.4 0 77.575758S21.721212 31.030303 46.545455 31.030303h930.90909c24.824242 0 46.545455 21.721212 46.545455 46.545455S1002.278788 124.121212 977.454545 124.121212zM977.454545 992.969697h-930.90909C21.721212 992.969697 0 971.248485 0 946.424242S21.721212 899.878788 46.545455 899.878788h930.90909c24.824242 0 46.545455 21.721212 46.545455 46.545454s-21.721212 46.545455-46.545455 46.545455zM977.454545 558.545455h-620.60606c-24.824242 0-46.545455-21.721212-46.545455-46.545455s21.721212-46.545455 46.545455-46.545455h620.60606c24.824242 0 46.545455 21.721212 46.545455 46.545455s-21.721212 46.545455-46.545455 46.545455z"  /></svg>