<svg xmlns="http://www.w3.org/2000/svg" viewBox="0 0 1024 1024"><path fill="#333" d="M918.27 116.61h-874.54c-23.32 0-43.73-20.41-43.73-43.73s20.41-43.73 43.73-43.73h874.54c23.32 0 43.73 20.41 43.73 43.73s-20.41 43.73-43.73 43.73z m0 816.24h-874.54c-23.32 0-43.73-20.41-43.73-43.73s20.41-43.73 43.73-43.73h874.54c23.32 0 43.73 20.41 43.73 43.73s-20.41 43.73-43.73 43.73z m0-408.13h-583.03c-23.32 0-43.73-20.4-43.73-43.72s20.41-43.73 43.73-43.73h583.03c23.32 0 43.73 20.4 43.73 43.73s-20.41 43.73-43.73 43.72z"/></svg>