<svg xmlns="http://www.w3.org/2000/svg" viewBox="0 0 1024 1024"><path fill="#333" d="M696.43 465.25c40.61 0 73.53-32.72 73.53-73.09s-32.96-73.08-73.53-73.08-73.54 32.72-73.54 73.08 32.92 73.09 73.54 73.09z m-160.69 185.37l-273.61-259.4a56.19 56.19 0 0 0-15.36 11.58l-114 119.63-6-222.77c-0.73-26.82 20.84-49.41 47.67-50.14l201.77-5.44 47.34-50-250.43 6.75c-54.12 1.5-96.79 46.34-95.34 100.17l7.32 271.4 4.5 166.78c1.46 53.82 46.45 96.29 100.6 94.82l176-4.75 12-0.32 47.34-50 116.18-122.64z"/><path fill="#333" d="M861.71 214.8l-242.83-33.86-55.09 41.46 291.21 40.6a49.05 49.05 0 0 1 41.79 55.13l-54.33 389.59-120.87-159.05a59.86 59.86 0 0 0-83.53-11.67l-44 33.08 65.07 86.15-55.29 41.77-79.57 60.1-54.92 41.48 34.17 4.76 270.73 37.76a97.55 97.55 0 0 0 109.88-79.6 22.37 22.37 0 0 0 0.65-3.44l60.53-434.16c7.44-53.32-29.95-102.62-83.6-110.1z"/></svg>