<svg xmlns="http://www.w3.org/2000/svg" viewBox="0 0 1024 1024"><path fill="#171a26" d="M255.78 255.78a42.48 42.48 0 0 0-42.63 42.63c0 23.66 18.97 42.63 42.63 42.63 23.66 0 42.63-18.97 42.63-42.63 0-23.66-18.97-42.63-42.63-42.63z"/><path fill="#171a26" d="M1023.13 809.98v-365.56c1.07-4.9 1.07-10.02 0-14.92v-216.35c0-94.21-76.31-170.52-170.52-170.52h-682.09c-94.21 0-170.52 76.31-170.52 170.52v596.83c0 94.21 76.31 170.52 170.52 170.52h682.09c94.21 0 170.52-76.31 170.52-170.52z m-170.52-703.4c58.83 0 106.58 47.75 106.57 106.57v169.88a458.19 458.19 0 0 0-191.83-41.99c-187.79 0-348.93 112.76-419.91 274.33a350.21 350.21 0 0 0-198.23-61.18c-29.41 0-57.98 3.62-85.26 10.45v-351.49c0-58.83 47.75-106.58 106.57-106.57h682.09z m-788.66 703.4v-179.05c26.86-8.31 55.63-12.79 85.26-12.79 73.75 0 140.89 27.71 191.83 73.32a32.02 32.02 0 0 0 53.08-19.61c53.07-155.39 200.15-266.87 373.23-266.86 69.7 0 135.14 18.12 191.83 49.66v355.33c0 58.83-47.75 106.58-106.57 106.57h-682.09c-58.83 0-106.58-47.75-106.57-106.57z"/></svg>