<svg xmlns="http://www.w3.org/2000/svg" viewBox="0 0 1024 1024"><path fill="undefined" d="M73.14 226.74c0-84.85 68.75-153.6 153.6-153.6h570.52c84.85 0 153.6 68.75 153.6 153.6v570.52a153.6 153.6 0 0 1-153.6 153.6h-570.52a153.6 153.6 0 0 1-153.6-153.6v-570.52z m87.77 449.9v120.62a65.83 65.83 0 0 0 65.83 65.83h570.52a65.83 65.83 0 0 0 65.83-65.83v-183.81l-97.87-70.44a114.1 114.1 0 0 0-142.99 7.83l-161.72 145.48a201.87 201.87 0 0 1-253.08 13.82l-46.52-33.57z m702.18-171.3v-278.6a65.83 65.83 0 0 0-65.83-65.83h-570.52a65.83 65.83 0 0 0-65.83 65.83v341.8l97.87 70.44a114.1 114.1 0 0 0 142.99-7.83l161.8-145.55a201.87 201.87 0 0 1 253-13.83l46.52 33.57z m-489.33-186.44a54.86 54.86 0 1 0 0 109.72 54.86 54.86 0 0 0 0-109.72z m-142.63 54.86a142.63 142.63 0 1 1 285.26 0 142.63 142.63 0 0 1-285.26 0z"/></svg>