<svg xmlns="http://www.w3.org/2000/svg" viewBox="0 0 1024 1024"><path fill="#1A1A1A" d="M384 341.33a85.33 85.33 0 1 1-170.67 0 85.33 85.33 0 0 1 170.67 0z"/><path fill="#1A1A1A" d="M0 170.67a128 128 0 0 1 128-128h768a128 128 0 0 1 128 128v682.66a128 128 0 0 1-128 128h-768a128 128 0 0 1-128-128v-682.66z m128-42.67a42.67 42.67 0 0 0-42.67 42.67v405.84a383.38 383.38 0 0 1 128-21.84c71.89 0 139.16 19.75 196.68 54.12 82.45-134.83 231.04-224.79 400.66-224.79 44.37 0 87.32 6.17 128 17.66v-230.99a42.67 42.67 0 0 0-42.67-42.67h-768z m-42.67 540.74v184.59a42.67 42.67 0 0 0 42.67 42.67h380.97c-20.69-144.75-145.17-256-295.64-256-45.8 0-89.19 10.3-128 28.74z m509.66 227.26h301.01a42.67 42.67 0 0 0 42.67-42.67v-362.15a383.36 383.36 0 0 0-128-21.85c-141.91 0-265.81 76.97-332.31 191.45a382.98 382.98 0 0 1 116.63 235.22z"/></svg>