<svg xmlns="http://www.w3.org/2000/svg" viewBox="0 0 1024 1024"><path fill="#1A1A1A" d="M512 0c282.77 0 512 229.23 512 512v4.29a299.31 299.31 0 0 0-89.3-62.72c-20.84-152.26-122.03-278.89-259.39-335.85 46.7 77.42 79.4 187.35 89.45 312.45a296.88 296.88 0 0 0-83.74 26.02c-6.36-107.58-30.76-200.96-64.32-268.07-41.81-83.58-83.75-102.78-104.7-102.79-20.95 0-62.91 19.2-104.7 102.79-34.9 69.85-59.93 168.11-65.01 281.21h314.46a300.2 300.2 0 0 0-91.22 85.34h-223.24c5.08 113.11 30.08 211.37 65.01 281.21 41.81 83.58 83.75 102.78 104.7 102.79 13.65 0 36.16-8.13 61.74-36.85a509.01 509.01 0 0 0 45.1 52.53 1134.12 1134.12 0 0 0 47.91 45.86 511.79 511.79 0 0 1-154.75 23.79c-282.77 0-512-229.23-512-512s229.23-512 512-512z m-163.31 117.72c-142.1 58.9-245.44 192.38-261.27 351.61h169.43c5.82-141.23 40.32-266.22 91.8-351.61z m0 788.58c-51.52-85.42-85.99-210.41-91.84-351.63h-169.38c15.79 159.23 119.15 292.69 261.22 351.63z"/><path fill="#1A1A1A" d="M853.33 725.33a42.67 42.67 0 1 0-85.33 0 42.67 42.67 0 0 0 85.33 0z"/><path fill="#1A1A1A" d="M886.83 946.5c65.32-59.41 137.17-124.67 137.17-221.17 0-117.82-95.51-213.33-213.33-213.33s-213.33 95.51-213.34 213.33c0 96.49 71.81 161.75 137.18 221.17 5.63 5.08 11.18 10.13 16.64 15.14 22.7 20.89 43.71 41.28 59.52 62.36 15.81-21.08 36.82-41.47 59.52-62.36 5.46-5.01 11.03-10.07 16.64-15.14z m-6.66-111.15c-15.55 15.98-31.68 30.63-49.49 46.83-5.61 5.12-11.41 10.37-17.41 15.89l-2.6 2.39-2.61-2.41c-5.99-5.5-11.8-10.77-17.4-15.87-17.81-16.21-33.94-30.85-49.5-46.83-40.32-41.45-58.5-74.15-58.49-110.02a128 128 0 0 1 256 0c0 35.86-18.18 68.57-58.5 110.02z"/></svg>