<svg xmlns="http://www.w3.org/2000/svg" viewBox="0 0 1024 1024"><path fill="undefined" d="M109.71 196.75c0-68.1 55.22-123.61 123.54-123.61h557.5a123.61 123.61 0 0 1 123.54 123.61v604.46a123.61 123.61 0 0 1-165.38 116.29l-62.17-22.38a35.69 35.69 0 0 0-26.77 1.03l-97.28 43.81c-32.18 14.56-69.12 14.56-101.38 0l-97.28-43.89a35.69 35.69 0 0 0-26.7-0.95l-62.17 22.38a123.61 123.61 0 0 1-165.45-116.29v-604.46z m123.54-35.84a35.84 35.84 0 0 0-35.76 35.84v604.46c0 24.87 24.65 42.13 47.83 33.72l62.17-22.39a123.39 123.39 0 0 1 92.6 3.59l97.28 43.81a35.62 35.62 0 0 0 29.26 0l97.28-43.89a123.15 123.15 0 0 1 92.52-3.51l62.18 22.39a35.84 35.84 0 0 0 47.9-33.72v-604.46a35.84 35.84 0 0 0-35.76-35.91h-557.42z m75.56 155.51a43.89 43.89 0 0 1 43.88-43.89h159.31a43.89 43.89 0 0 1 0 87.77h-159.31a43.89 43.89 0 0 1-43.88-43.88z m0 159.52a43.89 43.89 0 0 1 43.88-43.89h318.62a43.89 43.89 0 0 1 0 87.78h-318.62a43.89 43.89 0 0 1-43.88-43.89z m0 159.53a43.89 43.89 0 0 1 43.88-43.89h318.62a43.89 43.89 0 0 1 0 87.77h-318.62a43.89 43.89 0 0 1-43.88-43.88z"/></svg>