<?xml version="1.0" standalone="no"?><!DOCTYPE svg PUBLIC "-//W3C//DTD SVG 1.1//EN" "http://www.w3.org/Graphics/SVG/1.1/DTD/svg11.dtd"><svg class="icon" width="200px" height="200.00px" viewBox="0 0 1024 1024" version="1.1" xmlns="http://www.w3.org/2000/svg"><path fill="#333333" d="M512 1024C229.831111 1024 0 794.168889 0 512S229.831111 0 512 0 1024 229.831111 1024 512 794.168889 1024 512 1024z m0-955.733333C266.24 68.266667 68.266667 266.24 68.266667 512S266.24 955.733333 512 955.733333 955.733333 757.76 955.733333 512 757.76 68.266667 512 68.266667zM543.857778 446.008889c18.204444 0 34.133333 15.928889 34.133333 34.133333 0 2.275556 0 15.928889-2.275555 18.204445l-34.133334 195.697777h29.582222c18.204444 0 34.133333 15.928889 34.133334 34.133334s-15.928889 34.133333-34.133334 34.133333h-91.022222c-18.204444 0-34.133333-15.928889-34.133333-34.133333v-20.48l34.133333-195.697778h-29.582222c-18.204444 0-34.133333-15.928889-34.133333-34.133333s15.928889-34.133333 34.133333-34.133334h93.297778z m-34.133334-207.075556c38.684444 0 68.266667 29.582222 68.266667 68.266667s-29.582222 68.266667-68.266667 68.266667-68.266667-29.582222-68.266666-68.266667 29.582222-68.266667 68.266666-68.266667z" /></svg>