<?xml version="1.0" standalone="no"?><!DOCTYPE svg PUBLIC "-//W3C//DTD SVG 1.1//EN" "http://www.w3.org/Graphics/SVG/1.1/DTD/svg11.dtd"><svg class="icon" width="200px" height="144.84px" viewBox="0 0 1414 1024" version="1.1" xmlns="http://www.w3.org/2000/svg"><path fill="#333333" d="M78.019048 1024c-34.133333 0-68.266667-24.380952-73.142858-63.390476-4.87619-39.009524 24.380952-78.019048 63.390477-82.895238 131.657143-14.628571 224.304762-121.904762 224.304762-248.685715V146.285714H234.057143C195.047619 146.285714 160.914286 112.152381 160.914286 73.142857S195.047619 0 234.057143 0h73.142857C380.342857 0 438.857143 58.514286 438.857143 126.780952v502.247619C438.857143 828.952381 287.695238 999.619048 87.771429 1024h-9.752381zM307.2 146.285714zM292.571429 126.780952s0 4.87619 0 0zM297.447619 0H438.857143v268.190476H297.447619zM877.714286 1024h-219.428572v-146.285714H877.714286c190.171429 0 341.333333-151.161905 341.333333-341.333334v-48.761904c0-190.171429-151.161905-341.333333-341.333333-341.333334h-219.428572V0H877.714286c268.190476 0 487.619048 219.428571 487.619047 487.619048v48.761904c0 268.190476-219.428571 487.619048-487.619047 487.619048zM658.285714 0c39.009524 0 73.142857 34.133333 73.142857 73.142857v877.714286c0 39.009524-34.133333 73.142857-73.142857 73.142857s-73.142857-34.133333-73.142857-73.142857v-877.714286c0-39.009524 34.133333-73.142857 73.142857-73.142857z" /></svg>