<svg xmlns="http://www.w3.org/2000/svg" viewBox="0 0 1024 1024"><path fill="#333" d="M56.5 741.57c-24.72 0-49.44-17.66-52.97-45.91-3.53-28.25 17.66-56.5 45.91-60.03 95.35-10.59 162.44-88.28 162.44-180.09v-349.6h-42.38c-28.25 0-52.97-24.72-52.97-52.97s24.72-52.97 52.97-52.97h52.97c52.97 0 95.34 42.38 95.34 91.81v363.72c0 144.78-109.47 268.38-254.25 286.04h-7.06z m165.97-635.63z m-10.59-14.13s0 3.53 0 0z m3.53-91.81h102.41v194.22h-102.41z m420.22 741.57h-158.91v-105.94h158.91c137.72 0 247.19-109.47 247.19-247.19v-35.31c0-137.72-109.47-247.19-247.19-247.19h-158.91v-105.94h158.91c194.22 0 353.13 158.91 353.13 353.13v35.31c0 194.22-158.91 353.13-353.13 353.13z m-158.91-741.57c28.25 0 52.97 24.72 52.97 52.97v635.63c0 28.25-24.72 52.97-52.97 52.97s-52.97-24.72-52.97-52.97v-635.63c0-28.25 24.72-52.97 52.97-52.97z"/></svg>