<?xml version="1.0" standalone="no"?><!DOCTYPE svg PUBLIC "-//W3C//DTD SVG 1.1//EN" "http://www.w3.org/Graphics/SVG/1.1/DTD/svg11.dtd"><svg class="icon" width="200px" height="173.41px" viewBox="0 0 1181 1024" version="1.1" xmlns="http://www.w3.org/2000/svg"><path fill="#333333" d="M964.923077 1024c-98.461538 0-181.169231-66.953846-208.738462-157.538462h-212.676923c-27.569231 90.584615-110.276923 157.538462-208.738461 157.538462s-185.107692-66.953846-208.738462-161.476923C59.076923 846.769231 7.876923 787.692308 0 716.8v-267.815385c0-27.569231 11.815385-51.2 27.569231-70.892307l153.6-153.6c15.753846-15.753846 39.384615-23.630769 63.015384-23.63077H315.076923v-15.753846C315.076923 82.707692 401.723077 0 504.123077 0h405.661538C1059.446154 0 1181.538462 122.092308 1181.538462 271.753846v535.630769c0 118.153846-98.461538 216.615385-216.615385 216.615385z m-468.676923-275.692308h307.2c35.446154 0 63.015385 27.569231 63.015384 59.076923v7.876923c3.938462 47.261538 47.261538 86.646154 98.461539 86.646154 55.138462 0 98.461538-43.323077 98.461538-98.461538V271.753846C1063.384615 189.046154 992.492308 118.153846 909.784615 118.153846H504.123077c-39.384615 0-66.953846 31.507692-66.953846 66.953846v59.076923c0 39.384615-31.507692 70.892308-74.830769 70.892308H259.938462L118.153846 456.861538v256c0 19.692308 19.692308 35.446154 39.384616 35.446154h11.815384c35.446154 0 63.015385 27.569231 63.015385 59.076923v11.815385c11.815385 51.2 51.2 86.646154 102.4 86.646154s90.584615-35.446154 98.461538-82.707692v-3.938462c0-43.323077 27.569231-70.892308 63.015385-70.892308zM118.153846 815.261538zM248.123077 319.015385z m19.692308-7.876923zM315.076923 244.184615z m43.323077-43.323077zM374.153846 472.615385c-31.507692 0-59.076923-27.569231-59.076923-59.076923v-157.538462C315.076923 224.492308 342.646154 196.923077 374.153846 196.923077s59.076923 27.569231 59.076923 59.076923v157.538462c0 31.507692-27.569231 59.076923-59.076923 59.076923z" /></svg>