<svg xmlns="http://www.w3.org/2000/svg" viewBox="0 0 1024 1024"><path fill="#333" d="M836.65 887.87c-85.37 0-157.09-58.05-180.99-136.59h-184.4c-23.9 78.54-95.62 136.6-180.99 136.59s-160.5-58.05-180.99-140.01c-58.05-13.66-102.45-64.88-109.28-126.35v-232.21c0-23.9 10.24-44.39 23.9-61.47l133.19-133.18c13.66-13.66 34.15-20.49 54.63-20.49h61.47v-13.66c0-88.79 75.13-160.5 163.92-160.5h351.73c129.77 0 235.63 105.86 235.63 235.63v464.42c0 102.45-85.37 187.82-187.82 187.82z m-406.37-239.04h266.36c30.73 0 54.64 23.9 54.64 51.22v6.83c3.41 40.98 40.98 75.13 85.37 75.13 47.81 0 85.37-37.56 85.37-85.37v-461.01c0-71.71-61.47-133.18-133.18-133.18h-351.73c-34.15 0-58.05 27.32-58.06 58.05v51.22c0 34.15-27.32 61.47-64.88 61.47h-88.79l-122.93 122.94v221.97c0 17.07 17.07 30.73 34.14 30.73h10.25c30.73 0 54.64 23.9 54.64 51.22v10.25c10.25 44.39 44.39 75.13 88.78 75.12s78.54-30.73 85.38-71.71v-3.41c0-37.56 23.9-61.47 54.64-61.47z m-327.83 58.05z m112.69-430.27z m17.07-6.83z m40.98-58.06z m37.56-37.56z m13.66 235.63c-27.32 0-51.22-23.9-51.22-51.23v-136.59c0-27.32 23.9-51.22 51.22-51.23s51.22 23.9 51.23 51.23v136.59c0 27.32-23.9 51.22-51.23 51.23z"/></svg>