<svg xmlns="http://www.w3.org/2000/svg" viewBox="0 0 1024 1024"><path fill="#333" d="M512.5 1024c-302.08 0-499.2-161.28-499.2-409.6 0-168.96 89.6-332.8 232.96-430.08 0 0 2.56 0 2.56-2.56l-2.56-7.68c-10.24-61.44 25.6-117.76 81.92-133.12 30.72-7.68 61.44-2.56 87.04 10.24 20.48-28.16 56.32-51.2 99.84-51.2 40.96 0 76.8 23.04 97.28 53.76 25.6-12.8 56.32-17.92 87.04-10.24 56.32 15.36 92.16 71.68 81.92 130.56l-2.56 10.24c143.36 97.28 232.96 261.12 232.96 430.08 0 248.32-197.12 409.6-499.2 409.6z m-153.6-906.24c-2.56 0-7.68 0-10.24 2.56-17.92 5.12-30.72 23.04-28.16 43.52l5.12 20.48c5.12 23.04-2.56 46.08-23.04 56.32-7.68 5.12-12.8 7.68-15.36 10.24-120.32 79.36-197.12 220.16-197.12 363.52 0 245.76 217.6 332.8 422.4 332.8s422.4-87.04 422.4-332.8c0-143.36-76.8-284.16-199.68-366.08-2.56-2.56-7.68-5.12-12.8-7.68-17.92-12.8-28.16-35.84-23.04-56.32l5.12-25.6c2.56-17.92-7.68-35.84-28.16-40.96-20.48-5.12-40.96 7.68-46.08 25.6v2.56c-10.24 33.28-38.4 33.28-43.52 33.28h-30.72l-5.12-33.28v-38.4c0-15.36-17.92-30.72-35.84-30.72-20.48 0-38.4 17.92-38.4 38.4 0 30.72 0 46.08-12.8 58.88l-10.24 10.24h-15.36c-7.68 0-38.4-2.56-40.96-43.52-7.68-15.36-23.04-23.04-38.4-23.04z m404.48 56.32z m-207.36-48.64v2.56l35.84 7.68-35.84-10.24z m-94.72 460.8c0-38.4 38.4-51.2 51.2-51.2s51.2 12.8 51.2 51.2c0 79.36-12.8 148.48-35.84 207.36-2.56 12.8-7.68 25.6-15.36 25.6s-12.8-12.8-15.36-25.6c-23.04-58.88-35.84-128-35.84-207.36z m243.2 15.36a64 64 0 1 0 128 0 64 64 0 1 0-128 0z m-512 0a64 64 0 1 0 128 0 64 64 0 1 0-128 0z m629.76 192c-107.52 0-194.56-87.04-194.56-192s87.04-192 194.56-192c51.2 0 99.84 17.92 135.68 53.76 20.48 17.92 35.84 40.96 46.08 66.56 7.68 20.48 0 40.96-20.48 51.2-20.48 7.68-40.96 0-51.2-20.48-5.12-15.36-15.36-28.16-28.16-38.4-23.04-20.48-51.2-33.28-81.92-33.28-64 0-117.76 51.2-117.76 115.2s53.76 115.2 117.76 115.2c51.2 0 94.72-30.72 112.64-79.36 7.68-20.48 28.16-30.72 48.64-23.04s30.72 28.16 23.04 48.64c-25.6 76.8-99.84 128-184.32 128z m-619.52 0c-92.16 0-174.08-66.56-189.44-156.16-5.12-20.48 10.24-40.96 30.72-43.52 20.48-5.12 40.96 7.68 46.08 28.16 10.24 56.32 58.88 94.72 112.64 94.72 64 0 117.76-51.2 117.76-115.2s-51.2-115.2-117.76-115.2c-48.64 0-89.6 28.16-107.52 71.68-7.68 20.48-30.72 30.72-48.64 23.04-20.48-7.68-28.16-30.72-20.48-48.64 28.16-74.24 99.84-120.32 179.2-120.32 107.52 0 194.56 87.04 194.56 192s-89.6 189.44-197.12 189.44z"/></svg>