<svg xmlns="http://www.w3.org/2000/svg" viewBox="0 0 1024 1024"><path fill="#1A1A1A" d="M522.15 306.94l4.06-42.45-84.91-8.15-4.09 42.45a215.85 215.85 0 0 1-73.95 142.3l-32.34 27.84 55.68 64.66 32.34-27.84a301.16 301.16 0 0 0 103.21-198.81z"/><path fill="#1A1A1A" d="M242.77 250.41a347.65 347.65 0 0 1 312.07-248.45l20.65-1.23c57.6-3.52 115.29 5.87 168.83 27.45 117.16 47.21 205.38 147.71 237.65 270.08a624.51 624.51 0 0 1-9.51 351.28l-9.96 30.72a486.93 486.93 0 0 1-304.86 310.61l-11.62 3.99a536.75 536.75 0 0 1-275.37 19.56l-18.52-3.54c-317.01-60.69-419.48-464.49-169.86-669.55l8.11-6.65a153.26 153.26 0 0 0 49.62-74.88l2.77-9.37z m317.29-162.35a261.55 261.55 0 0 0-234.77 186.93l-2.77 9.38a239.53 239.53 0 0 1-77.59 117l-8.11 6.65c-193.15 158.7-113.88 471.17 131.46 518.12l18.51 3.57a450.97 450.97 0 0 0 231.3-16.43l11.63-4.01a400.77 400.77 0 0 0 250.92-255.62l9.96-30.72a538.11 538.11 0 0 0 8.17-302.59c-25.39-96.17-94.72-175.1-186.56-212.12a302.63 302.63 0 0 0-131.52-21.39l-20.65 1.23z"/></svg>