<svg xmlns="http://www.w3.org/2000/svg" viewBox="0 0 1024 1024"><path fill="undefined" d="M454.44 85.65a138.53 138.53 0 0 1 115.12 0l321.1 147.68c66.49 30.5 66.49 121.42 0 151.91l-321.1 147.61a138.53 138.53 0 0 1-115.12 0l-321.1-147.61a82.8 82.8 0 0 1 0-151.91l321.1-147.68z m78.48 79.73a50.76 50.76 0 0 0-41.84 0l-312.83 143.94 312.83 143.87a50.76 50.76 0 0 0 41.84 0l312.9-143.87-312.9-143.8z m-456.49 369.37a43.89 43.89 0 0 1 57.2-23.99l359.35 146.87a50.91 50.91 0 0 0 38.04 0l359.35-146.87a43.89 43.89 0 1 1 33.2 81.26l-359.27 146.87a138.68 138.68 0 0 1-104.6 0l-359.2-146.87a43.89 43.89 0 0 1-23.99-57.2z m0 201.87a43.89 43.89 0 0 1 57.2-24.14l359.35 146.95a50.98 50.98 0 0 0 38.04 0l359.35-146.8a43.89 43.89 0 0 1 33.2 81.19l-359.27 146.8a138.68 138.68 0 0 1-104.6 0l-359.27-146.8a43.89 43.89 0 0 1-24-57.27z"/></svg>