<svg xmlns="http://www.w3.org/2000/svg" viewBox="0 0 1024 1024"><path fill="undefined" d="M777.87 246.13a166.03 166.03 0 0 0-234.78 0l-74.39 74.24a43.89 43.89 0 0 1-62.03-62.1l74.24-74.24a253.81 253.81 0 0 1 358.99 358.98l-74.17 74.32a43.89 43.89 0 1 1-62.1-62.03l74.24-74.24a166.03 166.03 0 0 0 0-234.86z m-140.43 140.43a43.89 43.89 0 0 1 0 62.03l-188.78 188.92a43.89 43.89 0 1 1-62.1-62.1l188.93-188.92a43.89 43.89 0 0 1 62.1 0z m-317.07 20.11a43.89 43.89 0 0 1 0 62.03l-74.24 74.31a166.03 166.03 0 0 0 234.78 234.86l74.39-74.24a43.89 43.89 0 0 1 62.03 62.1l-74.24 74.17a253.81 253.81 0 1 1-358.99-358.91l74.17-74.32a43.89 43.89 0 0 1 62.1 0z"/></svg>