<?xml version="1.0" standalone="no"?><!DOCTYPE svg PUBLIC "-//W3C//DTD SVG 1.1//EN" "http://www.w3.org/Graphics/SVG/1.1/DTD/svg11.dtd"><svg class="icon" width="200px" height="200.00px" viewBox="0 0 1024 1024" version="1.1" xmlns="http://www.w3.org/2000/svg"><path fill="#333333" d="M313.034437 1004.045128c-66.848821 0-124.402872-24.155897-170.797949-70.577231l-40.854974-40.828718C54.960181 846.217846 28.966334 783.097436 30.830539 714.410667c3.702154-66.848821 31.560205-131.807179 79.819488-180.118975l137.399795-137.373538c14.861128-14.861128 40.854974-14.861128 55.689846 0 14.861128 14.861128 16.725333 38.990769 0 55.689846L166.392386 590.007795a187.470769 187.470769 0 0 0-55.689847 126.24082c-1.864205 46.421333 14.834872 89.114256 46.395077 120.674462l40.854975 40.854974c31.560205 31.560205 74.253128 48.285538 120.674461 46.421334 46.421333-1.837949 92.842667-22.291692 126.240821-55.689847l137.399795-137.399794c14.861128-14.861128 40.854974-14.861128 55.689846 0 14.861128 14.861128 14.861128 40.854974 0 55.689846L500.557719 924.225641c-48.285538 48.259282-113.270154 76.117333-180.118974 79.819487a5.645128 5.645128 0 0 0-7.404308 0z m475.293538-382.477128c-11.132718 0-18.563282-3.702154-27.831794-12.996923-14.861128-14.861128-14.861128-40.854974 0-55.689846l115.081846-115.108103a187.470769 187.470769 0 0 0 55.716102-126.267077c1.837949-46.395077-14.861128-89.114256-46.421333-120.674461l-40.854974-40.854975c-64.984615-64.958359-176.364308-61.256205-246.915283 9.29477l-118.836512 118.836512c-14.834872 14.834872-40.828718 14.834872-55.689846 0-14.861128-14.861128-14.861128-40.854974 0-55.716102l118.810256-118.810257c102.137436-102.137436 261.77641-105.813333 358.347487-9.294769l40.828718 40.854975c46.421333 46.421333 72.415179 109.541744 70.550974 178.228512-3.702154 66.848821-31.560205 131.807179-79.819487 180.092718l-115.108102 115.108103c-7.430564 7.430564-18.563282 11.132718-27.858052 12.996923zM456.000591 619.703795c-11.158974 0-18.563282-3.702154-27.831795-12.996923-14.887385-14.834872-14.887385-40.828718 0-55.689846l148.506256-148.532513c14.861128-14.861128 40.854974-14.861128 55.689846 0 14.861128 14.861128 14.861128 40.854974 0 55.689846l-148.532512 148.532513c-7.404308 7.430564-18.563282 11.158974-27.831795 12.996923z" /></svg>