<svg xmlns="http://www.w3.org/2000/svg" viewBox="0 0 1024 1024"><path fill="#1A1A1A" d="M682.67 470.04c0 94.4-76.42 170.94-170.67 170.94s-170.67-76.54-170.67-170.94 76.42-170.92 170.67-170.93 170.67 76.52 170.67 170.93z m-85.34 0a85.4 85.4 0 0 0-85.33-85.46c-47.15 0-85.33 38.27-85.33 85.46a85.4 85.4 0 0 0 85.33 85.46c47.15 0 85.33-38.25 85.33-85.46z"/><path fill="#1A1A1A" d="M981.33 470.04c0 277.76-312.75 465.73-464.15 552.53a10.22 10.22 0 0 1-10.36 0c-151.4-86.78-464.15-274.75-464.15-552.51 0-259.61 210.13-470.06 469.33-470.06s469.33 210.45 469.33 470.04z m-85.33 0c0-212.39-171.93-384.58-384-384.58s-384 172.18-384 384.58c0 106.24 60.52 202.73 151.85 288.85 74.6 70.4 161.98 126.46 232.15 167.89 70.19-41.43 157.55-97.49 232.15-167.89 91.31-86.12 151.85-182.61 151.85-288.85z"/></svg>