<?xml version="1.0" standalone="no"?><!DOCTYPE svg PUBLIC "-//W3C//DTD SVG 1.1//EN" "http://www.w3.org/Graphics/SVG/1.1/DTD/svg11.dtd"><svg class="icon" width="200px" height="200.00px" viewBox="0 0 1024 1024" version="1.1" xmlns="http://www.w3.org/2000/svg"><path fill="#333333" d="M499.512195 1001.521951l-9.990244-7.492683c-34.965854-22.478049-52.44878-34.965854-59.941463-39.960975-102.4-82.419512-164.839024-137.365854-194.809756-169.834147-44.956098-49.95122-77.42439-92.409756-107.395122-142.360975C94.907317 579.434146 74.926829 507.004878 74.926829 432.078049c0-114.887805 44.956098-224.780488 127.37561-304.702439C284.721951 44.956098 394.614634 0 512 0s227.278049 44.956098 309.697561 127.37561c82.419512 82.419512 127.37561 189.814634 127.37561 304.702439 0 74.926829-19.980488 147.356098-54.946342 209.795122-24.97561 44.956098-59.941463 89.912195-104.897561 142.360975-27.473171 32.468293-89.912195 84.917073-197.307317 172.331708-2.497561 2.497561-9.990244 7.492683-47.453658 32.468292-9.990244 7.492683-22.478049 9.990244-32.468293 12.487805H499.512195zM512 74.926829C414.595122 74.926829 324.682927 112.390244 254.75122 179.82439 187.317073 247.258537 149.853659 337.170732 149.853659 432.078049c0 59.941463 14.985366 122.380488 44.956097 174.829268 24.97561 44.956098 57.443902 84.917073 97.404878 129.873171 24.97561 29.970732 87.414634 82.419512 184.819512 159.843902 2.497561 2.497561 12.487805 9.990244 34.965854 22.478049 17.482927-12.487805 29.970732-19.980488 32.468293-22.478049 99.902439-79.921951 164.839024-134.868293 187.317073-162.341463 42.458537-49.95122 72.429268-89.912195 94.907317-132.370732 29.970732-52.44878 44.956098-112.390244 44.956097-174.829268 0-94.907317-37.463415-184.819512-104.89756-252.253659-67.434146-62.439024-157.346341-99.902439-254.75122-99.902439zM512 624.390244c-102.4 0-187.317073-84.917073-187.317073-187.317073s84.917073-187.317073 187.317073-187.317073 187.317073 84.917073 187.317073 187.317073-84.917073 187.317073-187.317073 187.317073z m0-299.707317C449.560976 324.682927 399.609756 374.634146 399.609756 437.073171s49.95122 112.390244 112.390244 112.390244 112.390244-49.95122 112.390244-112.390244-49.95122-112.390244-112.390244-112.390244z" /></svg>