<?xml version="1.0" standalone="no"?><!DOCTYPE svg PUBLIC "-//W3C//DTD SVG 1.1//EN" "http://www.w3.org/Graphics/SVG/1.1/DTD/svg11.dtd"><svg class="icon" width="200px" height="200.00px" viewBox="0 0 1024 1024" version="1.1" xmlns="http://www.w3.org/2000/svg"><path fill="#333333" d="M530.285714 1005.714286l-25.6-10.971429c-36.571429-14.628571-58.514286-25.6-73.142857-36.571428-102.4-84.114286-164.571429-135.314286-193.828571-171.885715-43.885714-51.2-76.8-91.428571-106.057143-142.628571-36.571429-65.828571-54.857143-138.971429-54.857143-212.114286 0-117.028571 43.885714-226.742857 128-307.2C285.257143 43.885714 394.971429 0 512 0s226.742857 43.885714 310.857143 128c84.114286 80.457143 128 190.171429 128 307.2 0 73.142857-18.285714 146.285714-54.857143 212.114286-25.6 43.885714-58.514286 91.428571-106.057143 142.628571-29.257143 32.914286-87.771429 84.114286-197.485714 171.885714 0 0-7.314286 7.314286-18.285714 10.971429l-43.885715 32.914286z m-32.914285-131.657143s3.657143 3.657143 14.628571 7.314286c3.657143-3.657143 7.314286-3.657143 10.971429-7.314286 98.742857-76.8 160.914286-131.657143 182.857142-157.257143 40.228571-47.542857 69.485714-87.771429 91.428572-128 25.6-47.542857 40.228571-102.4 40.228571-157.257143 0-87.771429-32.914286-168.228571-95.085714-230.4C683.885714 142.628571 599.771429 109.714286 512 109.714286s-171.885714 32.914286-234.057143 95.085714C215.771429 266.971429 182.857143 347.428571 182.857143 435.2c0 54.857143 14.628571 109.714286 40.228571 157.257143 25.6 43.885714 54.857143 80.457143 95.085715 124.342857 25.6 29.257143 84.114286 80.457143 179.2 157.257143zM515.657143 625.371429c-102.4 0-182.857143-80.457143-182.857143-182.857143s80.457143-182.857143 182.857143-182.857143 182.857143 80.457143 182.857143 182.857143-80.457143 182.857143-182.857143 182.857143z m0-256c-40.228571 0-73.142857 32.914286-73.142857 73.142857s32.914286 73.142857 73.142857 73.142857 73.142857-32.914286 73.142857-73.142857-32.914286-73.142857-73.142857-73.142857z" /></svg>