<?xml version="1.0" standalone="no"?><!DOCTYPE svg PUBLIC "-//W3C//DTD SVG 1.1//EN" "http://www.w3.org/Graphics/SVG/1.1/DTD/svg11.dtd"><svg class="icon" width="200px" height="200.00px" viewBox="0 0 1024 1024" version="1.1" xmlns="http://www.w3.org/2000/svg"><path fill="#333333" d="M512 971.487179C259.938462 971.487179 52.512821 764.061538 52.512821 512S259.938462 52.512821 512 52.512821 971.487179 259.938462 971.487179 512 764.061538 971.487179 512 971.487179z m0-840.205128C301.948718 131.282051 131.282051 301.948718 131.282051 512S301.948718 892.717949 512 892.717949 892.717949 722.051282 892.717949 512 722.051282 131.282051 512 131.282051zM512 708.923077c-107.651282 0-196.923077-89.271795-196.923077-196.923077s89.271795-196.923077 196.923077-196.923077 196.923077 89.271795 196.923077 196.923077-89.271795 196.923077-196.923077 196.923077z m0-315.076923C446.358974 393.846154 393.846154 446.358974 393.846154 512s52.512821 118.153846 118.153846 118.153846 118.153846-52.512821 118.153846-118.153846-52.512821-118.153846-118.153846-118.153846zM512 183.794872c-21.005128 0-39.384615-18.379487-39.384615-39.384616v-105.025641c0-21.005128 18.379487-39.384615 39.384615-39.384615S551.384615 18.379487 551.384615 39.384615v105.025641c0 21.005128-18.379487 39.384615-39.384615 39.384616zM512 1024c-21.005128 0-39.384615-18.379487-39.384615-39.384615v-105.025641c0-21.005128 18.379487-39.384615 39.384615-39.384616s39.384615 18.379487 39.384615 39.384616v105.025641c0 21.005128-18.379487 39.384615-39.384615 39.384615zM984.615385 551.384615h-105.025641c-21.005128 0-39.384615-18.379487-39.384616-39.384615s18.379487-39.384615 39.384616-39.384615h105.025641c21.005128 0 39.384615 18.379487 39.384615 39.384615s-18.379487 39.384615-39.384615 39.384615zM144.410256 551.384615h-105.025641C18.379487 551.384615 0 533.005128 0 512S18.379487 472.615385 39.384615 472.615385h105.025641c21.005128 0 39.384615 18.379487 39.384616 39.384615S165.415385 551.384615 144.410256 551.384615z" /></svg>