<svg xmlns="http://www.w3.org/2000/svg" viewBox="0 0 1024 1024"><path fill="undefined" d="M512 160.91c65.39 0 117.03 51.86 117.03 114.11v35.11h-234.06v-35.11c0-62.24 51.64-114.1 117.03-114.11z m204.8 149.22v-35.11c0-112.27-92.45-201.87-204.8-201.88-112.35 0-204.8 89.6-204.8 201.88v35.11h-43.89a117.03 117.03 0 0 0-117.02 117.02v406.68a117.03 117.03 0 0 0 117.02 117.03h497.38a117.03 117.03 0 0 0 117.02-117.03v-406.68a117.03 117.03 0 0 0-117.02-117.02h-43.89z m-453.49 87.77h497.38a29.26 29.26 0 0 1 29.25 29.25v406.68a29.26 29.26 0 0 1-29.25 29.26h-497.38a29.26 29.26 0 0 1-29.25-29.26v-406.68a29.26 29.26 0 0 1 29.25-29.25z m248.69 149.21a43.89 43.89 0 0 1 43.89 43.88v79a43.89 43.89 0 0 1-87.78 0v-79a43.89 43.89 0 0 1 43.89-43.88z"/></svg>