<svg xmlns="http://www.w3.org/2000/svg" viewBox="0 0 1024 1024"><path fill="undefined" d="M73.14 192.29c0-65.83 53.39-119.15 119.15-119.15h225.65a43.89 43.89 0 0 1 0 87.77h-225.57a31.38 31.38 0 0 0-31.38 31.38v639.42c0 17.33 14.04 31.38 31.38 31.38h225.64a43.89 43.89 0 1 1 0 87.77h-225.64c-65.9 0-119.22-53.39-119.23-119.15v-639.34z m469.87 157.04a43.89 43.89 0 0 1 0 62.03l-56.61 56.75h420.57a43.89 43.89 0 1 1 0 87.78h-420.64l56.68 56.75a43.89 43.89 0 1 1-62.02 62.03l-131.66-131.66a43.89 43.89 0 0 1 0-62.02l131.66-131.66a43.89 43.89 0 0 1 62.02 0z"/></svg>