<?xml version="1.0" standalone="no"?><!DOCTYPE svg PUBLIC "-//W3C//DTD SVG 1.1//EN" "http://www.w3.org/Graphics/SVG/1.1/DTD/svg11.dtd"><svg class="icon" width="200px" height="200.00px" viewBox="0 0 1024 1024" version="1.1" xmlns="http://www.w3.org/2000/svg"><path fill="#333333" d="M877.318919 1024c-5.535135 0-13.837838 0-19.372973-2.767568l-152.216216-38.745946c-11.07027 5.535135-22.140541 8.302703-27.675676 11.070271-52.583784 16.605405-107.935135 27.675676-166.054054 27.675675C229.708108 1021.232432 0 791.524324 0 512 0 229.708108 229.708108 0 512 0S1024 229.708108 1024 509.232432c0 85.794595-22.140541 168.821622-60.886486 243.545946-2.767568 8.302703-8.302703 16.605405-16.605406 27.675676l13.837838 152.216216c2.767568 22.140541-5.535135 44.281081-19.372973 60.886487-13.837838 16.605405-33.210811 27.675676-55.351351 30.443243h-8.302703z m-174.356757-124.540541c5.535135 0 8.302703 0 13.837838 2.767568l163.286486 41.513514-16.605405-160.518919c0-11.07027 2.767568-24.908108 8.302703-35.978379 8.302703-13.837838 13.837838-24.908108 19.372973-30.443243 33.210811-60.886486 52.583784-132.843243 52.583784-204.8 0-235.243243-193.72973-426.205405-428.972973-426.205405S83.027027 273.989189 83.027027 509.232432s193.72973 426.205405 428.972973 426.205406c47.048649 0 94.097297-8.302703 138.378378-22.140541 8.302703-2.767568 16.605405-5.535135 30.443244-11.07027 8.302703-2.767568 13.837838-2.767568 22.14054-2.767568zM514.767568 678.054054c-22.140541 0-41.513514-19.372973-41.513514-41.513513v-251.848649c0-22.140541 19.372973-41.513514 41.513514-41.513514s41.513514 19.372973 41.513513 41.513514V636.540541c0 24.908108-19.372973 41.513514-41.513513 41.513513zM512 675.286486c-8.302703 0-16.605405-2.767568-24.908108-8.302702l-119.005406-88.562162c-19.372973-13.837838-22.140541-38.745946-8.302702-58.118919 13.837838-19.372973 38.745946-22.140541 58.118919-8.302703l119.005405 88.562162c19.372973 13.837838 22.140541 38.745946 8.302703 58.118919-8.302703 11.07027-22.140541 16.605405-33.210811 16.605405zM517.535135 675.286486c-13.837838 0-24.908108-5.535135-33.210811-16.605405-13.837838-19.372973-8.302703-44.281081 8.302703-58.118919l119.005405-88.562162c19.372973-13.837838 44.281081-8.302703 58.118919 8.302703 13.837838 19.372973 8.302703 44.281081-8.302702 58.118919l-119.005406 88.562162c-8.302703 5.535135-16.605405 8.302703-24.908108 8.302702z" /></svg>