<svg xmlns="http://www.w3.org/2000/svg" viewBox="0 0 1024 1024"><path fill="#333" d="M877.32 1024c-5.54 0-13.84 0-19.37-2.77l-152.22-38.74c-11.07 5.54-22.14 8.3-27.68 11.07-52.58 16.61-107.94 27.68-166.05 27.67-282.29 0-512-229.71-512-509.23 0-282.29 229.71-512 512-512s512 229.71 512 509.23c0 85.8-22.14 168.82-60.89 243.55-2.77 8.3-8.3 16.61-16.6 27.67l13.84 152.22c2.77 22.14-5.54 44.28-19.38 60.89s-33.21 27.68-55.35 30.44h-8.3z m-174.36-124.54c5.54 0 8.3 0 13.84 2.77l163.29 41.51-16.61-160.52c0-11.07 2.77-24.91 8.3-35.98 8.3-13.84 13.84-24.91 19.38-30.44 33.21-60.89 52.58-132.84 52.58-204.8 0-235.24-193.73-426.2-428.97-426.2s-431.74 188.19-431.74 423.43 193.73 426.21 428.97 426.21c47.05 0 94.1-8.3 138.38-22.14 8.3-2.77 16.61-5.54 30.44-11.07 8.3-2.77 13.84-2.77 22.14-2.77z m-188.19-221.41c-22.14 0-41.51-19.37-41.52-41.51v-251.85c0-22.14 19.37-41.51 41.52-41.51s41.51 19.37 41.51 41.51v251.85c0 24.91-19.37 41.51-41.51 41.51z m-2.77-2.76c-8.3 0-16.61-2.77-24.91-8.31l-119-88.56c-19.37-13.84-22.14-38.75-8.31-58.12 13.84-19.37 38.75-22.14 58.12-8.3l119.01 88.56c19.37 13.84 22.14 38.75 8.3 58.12-8.3 11.07-22.14 16.6-33.21 16.61z m5.53 0c-13.84 0-24.91-5.54-33.21-16.61-13.84-19.37-8.3-44.28 8.31-58.12l119-88.56c19.37-13.84 44.28-8.3 58.12 8.3 13.84 19.37 8.3 44.28-8.3 58.12l-119.01 88.56c-8.3 5.54-16.61 8.3-24.91 8.31z"/></svg>