<svg xmlns="http://www.w3.org/2000/svg" viewBox="0 0 1024 1024"><path fill="#1A1A1A" d="M191.49 377.47a42.67 42.67 0 0 0-64.11-30.06l-106.67 64a42.67 42.67 0 0 0 43.91 73.18l57.19-34.33a370.52 370.52 0 0 0 80 132.99l-69.93 83.35a42.67 42.67 0 0 0 65.37 54.83l69.03-82.24a427.46 427.46 0 0 0 203.05 74.24v97.24a42.67 42.67 0 1 0 85.34 0v-97.24a427.43 427.43 0 0 0 203.05-74.24l69.01 82.26a42.67 42.67 0 0 0 65.37-54.85l-69.91-83.35a370.54 370.54 0 0 0 80-132.99l57.17 34.33a42.67 42.67 0 1 0 43.93-73.18l-106.67-64a42.67 42.67 0 0 0-64.13 30.06c-21.7 140.16-155.33 252.69-320.49 252.7s-298.82-112.58-320.51-252.7z"/></svg>