<?xml version="1.0" standalone="no"?><!DOCTYPE svg PUBLIC "-//W3C//DTD SVG 1.1//EN" "http://www.w3.org/Graphics/SVG/1.1/DTD/svg11.dtd"><svg class="icon" width="200px" height="100.24px" viewBox="0 0 2043 1024" version="1.1" xmlns="http://www.w3.org/2000/svg"><path fill="#333333" d="M1007.9606874 698.55991154C733.94800247 698.55991154 524.95527617 489.56718525 473.86816544 289.86302483c-9.28856589-37.15426225 9.28856589-74.30852451 46.44282813-83.59709038 37.15426225-9.28856589 74.30852451 9.28856589 83.59709039 46.44282813C645.70662883 401.32581222 803.61224435 559.23142713 1007.9606874 559.23142713c199.70416041 0 362.25405857-157.90561553 404.05260408-311.1669478 9.28856589-37.15426225 46.44282814-60.37567663 83.59709037-51.08711076 37.15426225 9.28856589 60.37567663 46.44282814 51.08711078 83.59709037-51.08711077 204.34844302-260.07983705 417.98545194-538.73680523 417.9854526z"  /><path fill="#333333" d="M1412.01329149 717.13704267c-23.22141375 0-46.44282814-13.9328485-60.37567666-37.1542629l-46.44282812-78.95280713c-18.57713113-32.50997963-4.64428261-74.30852451 27.86569699-92.88565627 32.50997963-18.57713113 74.30852451-4.64428261 92.88565629 27.865697l46.44282748 78.95280777c18.57713113 32.50997963 4.64428261 74.30852451-27.86569638 92.88565564-9.28856589 4.64428261-23.22141375 9.28856589-32.5099796 9.28856589zM1583.85175487 396.68152899c-13.9328485 0-27.86569701-4.64428261-41.79854487-13.93284852l-102.17422216-69.66424188c-32.50997963-23.22141375-37.15426225-65.01995925-18.57713111-97.52993891 23.22141375-32.50997963 65.01995925-37.15426225 97.52993887-18.57713111l102.17422154 69.66424188c32.50997963 23.22141375 37.15426225 65.01995925 18.57713111 97.52993889-9.28856589 23.22141375-32.50997963 32.50997963-55.73139338 32.50997964zM603.90808395 717.13704267c-9.28856589 0-23.22141375-4.64428261-32.50997964-9.28856589-32.50997963-18.57713113-46.44282814-60.37567663-27.86569699-92.88565564l46.44282812-78.95280776c18.57713113-32.50997963 60.37567663-46.44282814 92.88565627-27.86569701s46.44282814 60.37567663 27.86569638 92.88565627l-46.44282749 78.95280713c-9.28856589 23.22141375-32.50997963 37.15426225-60.37567664 37.1542629zM432.06961991 396.68152899c-23.22141375 0-41.79854553-9.28856589-55.73139338-27.86569639-23.22141375-32.50997963-13.9328485-74.30852451 18.57713113-97.52993887L497.08957918 201.62165182c27.86569701-23.22141375 69.66424189-13.9328485 92.88565626 13.93284786 23.22141375 32.50997963 13.9328485 74.30852451-18.57713113 97.52993891L473.86816544 382.74868047c-13.9328485 9.28856589-27.86569701 13.9328485-41.79854553 13.93284852zM1007.9606874 814.66698155c-37.15426225 0-69.66424189-32.50997963-69.6642419-69.66424251v-92.88565564c0-37.15426225 32.50997963-69.66424189 69.6642419-69.66424187s69.66424189 32.50997963 69.66424251 69.66424187v92.88565564c0 37.15426225-32.50997963 69.66424189-69.66424251 69.66424252z"  /></svg>