<svg xmlns="http://www.w3.org/2000/svg" viewBox="0 0 1024 1024"><path fill="#333" d="M512 14.9c-273.41 0-497.1 223.7-497.1 497.1s223.7 497.1 497.1 497.1 497.1-223.7 497.1-497.1-223.7-497.1-497.1-497.1z m207.13 646.23c16.57 16.57 16.57 41.42 0 58s-41.42 16.57-58 0l-149.13-149.13-149.13 149.13c-16.57 16.57-41.43 16.57-58 0s-16.57-41.42 0-58l149.13-149.13-149.13-149.13c-16.57-16.57-16.57-41.43 0-58s41.42-16.57 58 0l149.13 149.13 149.13-149.13c16.57-16.57 41.43-16.57 58 0s16.57 41.42 0 58l-149.13 149.13 149.13 149.13z"/></svg>