<svg xmlns="http://www.w3.org/2000/svg" viewBox="0 0 1024 1024"><path fill="undefined" d="M643.29 163.11a44.98 44.98 0 0 1 0-89.97h262.58c24.87 0 44.98 20.19 44.99 44.99v262.58a44.98 44.98 0 1 1-89.97 0v-153.89l-229.59 229.52a44.98 44.98 0 0 1-63.64-63.64l229.45-229.52h-153.82z m-186.95 404.62c17.55 17.55 17.55 46.08 0 63.64l-229.6 229.52h153.9a44.98 44.98 0 1 1 0 90.04h-262.59a44.98 44.98 0 0 1-44.91-45.06v-262.58a44.98 44.98 0 1 1 89.97 0v153.89l229.59-229.59c17.55-17.55 46.08-17.55 63.64 0z"/></svg>