<?xml version="1.0" standalone="no"?><!DOCTYPE svg PUBLIC "-//W3C//DTD SVG 1.1//EN" "http://www.w3.org/Graphics/SVG/1.1/DTD/svg11.dtd"><svg class="icon" width="200px" height="200.00px" viewBox="0 0 1024 1024" version="1.1" xmlns="http://www.w3.org/2000/svg"><path fill="#333333" d="M879.589744 1024c-5.251282 0-13.128205 0-18.379488-2.625641l-154.91282-39.384615c-13.128205 5.251282-21.005128 7.876923-28.882051 10.502564-52.512821 18.379487-107.651282 26.25641-165.415385 26.25641C228.430769 1021.374359 0 792.94359 0 509.374359S228.430769 0 512 0 1024 228.430769 1024 509.374359c0 84.020513-21.005128 170.666667-63.015385 244.184615-2.625641 7.876923-10.502564 15.753846-18.379487 28.882052l15.753846 152.287179c2.625641 21.005128-5.251282 42.010256-18.379487 57.764103-13.128205 15.753846-31.507692 26.25641-55.138461 28.882051 0 2.625641-2.625641 2.625641-5.251282 2.625641z m-165.415385-44.635897z m-10.502564-76.14359c5.251282 0 7.876923 0 13.128205 2.625641l162.789744 39.384615-13.128206-162.789743c0-10.502564 2.625641-23.630769 7.876924-34.133334 7.876923-13.128205 15.753846-23.630769 18.379487-31.507692 34.133333-63.015385 52.512821-133.907692 52.51282-207.425641C945.230769 273.066667 750.933333 78.769231 512 78.769231S78.769231 273.066667 78.769231 509.374359c0 238.933333 194.297436 430.605128 433.230769 430.605128 47.261538 0 94.523077-7.876923 139.158974-23.630769 7.876923-2.625641 18.379487-7.876923 31.507693-13.128205 7.876923 2.625641 13.128205 0 21.005128 0zM512 735.179487c-39.384615 0-78.769231-13.128205-105.025641-36.758974-15.753846-13.128205-18.379487-39.384615-2.625641-55.138462 13.128205-15.753846 39.384615-18.379487 55.138461-2.625641 23.630769 21.005128 81.394872 21.005128 105.025642 0 15.753846-13.128205 42.010256-13.128205 55.138461 5.251282 13.128205 15.753846 13.128205 42.010256-5.251282 55.138462-23.630769 21.005128-63.015385 34.133333-102.4 34.133333z" /></svg>