<svg xmlns="http://www.w3.org/2000/svg" viewBox="0 0 1024 1024"><path fill="#1A1A1A" d="M342.06 690.35l13.61 14.67c84.39 90.88 228.27 90.88 312.66 0l13.61-14.65-62.55-58.07-13.59 14.65a128 128 0 0 1-187.6 0l-13.59-14.65-62.55 58.07z"/><path fill="#1A1A1A" d="M0 512c0-282.77 229.23-512 512-512s512 229.23 512 512-229.23 512-512 512h-256a85.33 85.33 0 0 1-85.33-85.33v-45.04c-104.75-93.76-170.67-229.99-170.67-381.63z m227.58 318.04a85.33 85.33 0 0 1 28.42 63.57v45.06h256c235.65 0 426.67-191.02 426.67-426.67s-191.02-426.67-426.67-426.67-426.67 191.02-426.67 426.67c0 126.36 54.83 239.79 142.25 318.04z"/></svg>