<?xml version="1.0" standalone="no"?><!DOCTYPE svg PUBLIC "-//W3C//DTD SVG 1.1//EN" "http://www.w3.org/Graphics/SVG/1.1/DTD/svg11.dtd"><svg class="icon" width="200px" height="200.00px" viewBox="0 0 1024 1024" version="1.1" xmlns="http://www.w3.org/2000/svg"><path fill="#333333" d="M512.000183 658.285714c-142.628571 0-256-113.371429-256-256V256c0-142.628571 113.371429-256 256-256s256 113.371429 256 256v146.285714c0 142.628571-113.371429 256-256 256z m0-548.571428C431.54304 109.714286 365.714469 175.542857 365.714469 256v146.285714c0 80.457143 65.828571 146.285714 146.285714 146.285715s146.285714-65.828571 146.285714-146.285715V256c0-80.457143-65.828571-146.285714-146.285714-146.285714zM512.000183 841.142857c-146.285714 0-285.257143-76.8-358.4-197.485714-14.628571-25.6-7.314286-58.514286 18.285714-76.8 25.6-14.628571 58.514286-7.314286 76.8 18.285714 51.2 91.428571 153.6 146.285714 263.314286 146.285714s212.114286-54.857143 263.314286-146.285714c14.628571-25.6 47.542857-32.914286 76.8-18.285714 25.6 14.628571 32.914286 47.542857 18.285714 76.8-73.142857 120.685714-208.457143 197.485714-358.4 197.485714zM603.428754 1024h-182.857143c-29.257143 0-54.857143-25.6-54.857142-54.857143S391.314469 914.285714 420.571611 914.285714h182.857143c29.257143 0 54.857143 25.6 54.857143 54.857143s-25.6 54.857143-54.857143 54.857143z" /></svg>