<svg xmlns="http://www.w3.org/2000/svg" viewBox="0 0 1024 1024"><path fill="undefined" d="M316.56 154.55a219.79 219.79 0 0 1 195.44-117.98c120.47 0 219.43 96.26 219.43 216.5v248.18a43.89 43.89 0 0 1-87.77 0v-248.18c0-70.44-58.22-128.73-131.66-128.73-51.49 0-95.82 28.89-117.54 70.59a43.89 43.89 0 0 1-77.9-40.38z m-230.84-72.48a43.89 43.89 0 0 1 62.1-0.52l603.94 593.92a43.74 43.74 0 0 1 27.21 26.7l158.72 156.16a43.89 43.89 0 1 1-61.44 62.54l-142.85-140.44c-49.74 39.94-110.74 66.63-177.51 74.83v44.4h87.77a43.89 43.89 0 1 1 0 87.77h-263.32a43.89 43.89 0 1 1 0-87.77h87.77v-44.4c-172.62-21.21-307.2-166.25-307.2-343.26v-43.15a43.89 43.89 0 0 1 87.78 0v43.15c0 141.9 117.17 258.19 263.31 258.19 59.47 0 114.25-19.31 158.28-51.78l-30.72-30.21a220.6 220.6 0 0 1-127.56 40.3c-120.47 0-219.43-96.26-219.43-216.5v-165.01l-206.26-202.9a43.89 43.89 0 0 1-0.59-62.02z m294.62 351.23v78.7c0 70.44 58.22 128.73 131.66 128.73 22.97 0 44.47-5.71 63.27-15.8l-194.93-191.63z m438.86-8.34a43.89 43.89 0 0 1 43.89 43.89v43.15c0 40.67-7.17 79.87-20.34 116.22a43.89 43.89 0 1 1-82.5-29.84c9.73-26.99 15.07-56.03 15.06-86.38v-43.15a43.89 43.89 0 0 1 43.89-43.89z"/></svg>