<svg xmlns="http://www.w3.org/2000/svg" viewBox="0 0 1024 1024"><path fill="undefined" d="M937.69 86.31c17.55 17.55 17.55 46.08 0 63.63l-229.52 229.6h153.89a44.98 44.98 0 1 1 0 89.96h-262.58a44.98 44.98 0 0 1-44.98-44.98v-262.58a44.98 44.98 0 1 1 90.03 0v153.96l229.53-229.59c17.55-17.55 46.08-17.55 63.63 0z m-820.81 513.24c0-24.87 20.19-45.06 45.06-45.05h262.58c24.87 0 44.98 20.19 44.98 45.05v262.58a44.98 44.98 0 1 1-90.03 0v-154.03l-229.45 229.59a44.98 44.98 0 0 1-63.64-63.63l229.45-229.53h-153.89a44.98 44.98 0 0 1-45.06-44.98z"/></svg>