<?xml version="1.0" standalone="no"?><!DOCTYPE svg PUBLIC "-//W3C//DTD SVG 1.1//EN" "http://www.w3.org/Graphics/SVG/1.1/DTD/svg11.dtd"><svg class="icon" width="200px" height="200.00px" viewBox="0 0 1024 1024" version="1.1" xmlns="http://www.w3.org/2000/svg"><path fill="#333333" d="M937.115152 428.218182c-43.442424 0-80.678788 37.236364-80.678788 80.678788s37.236364 80.678788 80.678788 80.678788c43.442424 0 80.678788-37.236364 80.678787-80.678788s-34.133333-80.678788-80.678787-80.678788M508.89697 375.466667c-74.472727 0-133.430303 58.957576-133.430303 133.430303s58.957576 133.430303 133.430303 133.430303 133.430303-58.957576 133.430303-133.430303-58.957576-133.430303-133.430303-133.430303M83.781818 428.218182C40.339394 428.218182 3.10303 465.454545 3.10303 508.89697S37.236364 589.575758 83.781818 589.575758s80.678788-37.236364 80.678788-80.678788-37.236364-80.678788-80.678788-80.678788"  /></svg>