<svg xmlns="http://www.w3.org/2000/svg" viewBox="0 0 1024 1024"><path fill="undefined" d="M219.43 558.67c0-55.66-0.15-107.3 3.51-154.99 4.1-54.35 12.8-100.21 29.91-137.15a172.84 172.84 0 0 1 80.46-84.7c40.01-20.7 96.91-33.65 178.62-33.42h0.14c81.7-0.15 138.61 12.73 178.54 33.42 39.06 20.19 63.93 48.71 80.54 84.7 17.12 37.01 25.82 82.8 29.98 137.15 3.58 47.69 3.51 99.33 3.44 154.99v24.13c0 160.91-130.19 292.79-292.57 292.79s-292.57-131.95-292.57-292.79v-24.13z m292.57-485.53c-88.5-0.15-157.84 13.68-211.46 41.47a247 247 0 0 0-113.81 119.67c-22.67 49.01-32.33 105.33-36.71 163.62-3.88 50.83-3.8 105.76-3.66 160.98v23.92c-0.07 204.07 164.5 368.05 365.64 368.06 201.14 0 365.71-163.91 365.71-368.06v-23.92c0-55.22 0.15-110.15-3.65-160.98-4.39-58.29-14.19-114.61-36.79-163.62a247.08 247.08 0 0 0-113.89-119.67c-53.54-27.79-122.88-41.69-211.38-41.47z"/><path fill="undefined" d="M512 238.37a43.89 43.89 0 0 1 43.89 43.89v188.05a43.89 43.89 0 0 1-87.78 0v-187.98a43.89 43.89 0 0 1 43.89-43.88z"/></svg>