<?xml version="1.0" standalone="no"?><!DOCTYPE svg PUBLIC "-//W3C//DTD SVG 1.1//EN" "http://www.w3.org/Graphics/SVG/1.1/DTD/svg11.dtd"><svg class="icon" width="200px" height="200.00px" viewBox="0 0 1024 1024" version="1.1" xmlns="http://www.w3.org/2000/svg"><path fill="#333333" d="M511.862839 804.297106C288.853187 804.297106 109.714286 625.158205 109.714286 402.148553S288.853187 0 511.862839 0s402.148553 179.138901 402.148553 402.148553-179.138901 402.148553-402.148553 402.148553z m0-694.620228c-160.859421 0-292.471675 131.612254-292.471675 292.471675s131.612254 292.471675 292.471675 292.471675 292.471675-131.612254 292.471674-292.471675-131.612254-292.471675-292.471674-292.471675zM749.496074 1023.650862c-29.247167 0-51.182543-21.935376-54.838439-51.182543-7.311792-95.053294-87.741502-168.171213-182.794796-168.171213s-175.483005 73.117919-182.794797 168.171213c-3.655896 29.247167-29.247167 54.838439-58.494335 51.182543-29.247167 0-51.182543-29.247167-51.182543-58.494335 10.967688-153.547629 138.924046-270.536299 292.471675-270.536299s281.503987 120.644566 292.471674 270.536299c3.655896 29.247167-21.935376 54.838439-51.182543 58.494335h-3.655896zM511.862839 548.38439c-47.526647 0-91.397398-21.935376-120.644566-58.494335-18.27948-25.591272-14.623584-58.494335 7.311792-76.773814 25.591272-18.27948 58.494335-14.623584 76.773814 7.311792 18.27948 21.935376 51.182543 21.935376 69.462023 0s54.838439-29.247167 76.773815-7.311792c21.935376 18.27948 29.247167 54.838439 7.311792 76.773814-25.591272 40.214855-69.462023 58.494335-116.98867 58.494335z" /></svg>