<?xml version="1.0" standalone="no"?><!DOCTYPE svg PUBLIC "-//W3C//DTD SVG 1.1//EN" "http://www.w3.org/Graphics/SVG/1.1/DTD/svg11.dtd"><svg class="icon" width="200px" height="200.00px" viewBox="0 0 1024 1024" version="1.1" xmlns="http://www.w3.org/2000/svg"><path fill="#333333" d="M512 813.948718C286.194872 813.948718 105.025641 630.153846 105.025641 406.974359S286.194872 0 512 0 918.974359 181.169231 918.974359 406.974359 735.179487 813.948718 512 813.948718z m0-735.179487C330.830769 78.769231 183.794872 225.805128 183.794872 406.974359S330.830769 735.179487 512 735.179487 840.205128 588.14359 840.205128 406.974359 693.169231 78.769231 512 78.769231zM714.174359 1018.748718c-21.005128 0-39.384615-18.379487-39.384615-39.384615 0-89.271795-73.517949-162.789744-162.789744-162.789744-89.271795 0-162.789744 73.517949-162.789744 162.789744 0 21.005128-18.379487 39.384615-39.384615 39.384615s-39.384615-18.379487-39.384615-39.384615c0-133.907692 107.651282-241.558974 241.558974-241.558975s241.558974 107.651282 241.558974 241.558975c0 21.005128-15.753846 39.384615-39.384615 39.384615zM512 525.128205c-39.384615 0-78.769231-13.128205-105.025641-36.758974-15.753846-13.128205-18.379487-39.384615-2.625641-55.138462 13.128205-15.753846 39.384615-18.379487 55.138461-2.625641 23.630769 21.005128 81.394872 21.005128 105.025642 0 15.753846-13.128205 42.010256-13.128205 55.138461 5.251282 13.128205 15.753846 13.128205 42.010256-5.251282 55.138462-23.630769 21.005128-63.015385 34.133333-102.4 34.133333z" /></svg>