<svg xmlns="http://www.w3.org/2000/svg" viewBox="0 0 1024 1024"><path fill="#1A1A1A" d="M12.65 246.21a42.03 42.03 0 0 0 0 60.09c16.85 16.6 44.2 16.6 61.08 0 242.05-238.19 634.52-238.19 876.58 0 16.85 16.6 44.2 16.6 61.06 0a42.03 42.03 0 0 0 0-60.09c-275.78-271.38-722.92-271.38-998.72 0z"/><path fill="#1A1A1A" d="M169.77 485.27a41.86 41.86 0 0 1 0-59.84c189.01-186.01 495.47-186.01 684.5 0a41.84 41.84 0 0 1 0 59.84 43.52 43.52 0 0 1-60.82 0c-155.43-152.94-407.42-152.94-562.86 0a43.52 43.52 0 0 1-60.8 0z m342.25 496.08c119.04 0 215.55-94.98 215.55-212.11s-96.51-212.12-215.55-212.12-215.55 94.98-215.55 212.12 96.51 212.12 215.55 212.11z m116.14-157.67l-59.84 60.8-56.32-55.36-56.3 55.4-59.84-60.82 55.32-54.44-55.32-54.42 59.84-60.82 56.3 55.38 56.3-55.41 59.84 60.85-55.32 54.42 55.32 54.44z"/></svg>