<svg xmlns="http://www.w3.org/2000/svg" viewBox="0 0 1024 1024"><path fill="undefined" d="M320.59 156.09c16.68-47.4 60.05-82.94 113.95-82.95h154.99c53.91 0 97.28 35.55 113.96 82.95h57.27c84.85 0 153.6 68.75 153.6 153.6v487.57a153.6 153.6 0 0 1-153.6 153.6h-497.45a153.6 153.6 0 0 1-153.6-153.6v-487.57c0-84.85 68.75-153.6 153.6-153.6h57.28z m0.65 87.77h-57.93a65.83 65.83 0 0 0-65.82 65.83v487.57a65.83 65.83 0 0 0 65.82 65.83h497.38a65.83 65.83 0 0 0 65.82-65.83v-487.57a65.83 65.83 0 0 0-65.82-65.83h-57.93c-17.04 46.45-60.05 81.19-113.37 81.19h-154.78c-53.25 0-96.26-34.74-113.37-81.19z m113.37-82.95c-16.24 0-33.65 14.63-33.64 38.18 0 23.41 17.41 38.11 33.64 38.11h154.85c16.09 0 33.5-14.63 33.5-38.11 0-23.55-17.33-38.18-33.5-38.18h-154.99z m-121.41 259.3a43.89 43.89 0 0 1 43.88-43.89h309.76a43.89 43.89 0 0 1 0 87.77h-309.68a43.89 43.89 0 0 1-43.89-43.88z m0 164.06a43.89 43.89 0 0 1 43.88-43.89h309.76a43.89 43.89 0 0 1 0 87.77h-309.68a43.89 43.89 0 0 1-43.89-43.88z m0 164.13a43.89 43.89 0 0 1 43.88-43.89h154.92a43.89 43.89 0 0 1 0 87.77h-154.84a43.89 43.89 0 0 1-43.89-43.88z"/></svg>