<?xml version="1.0" standalone="no"?><!DOCTYPE svg PUBLIC "-//W3C//DTD SVG 1.1//EN" "http://www.w3.org/Graphics/SVG/1.1/DTD/svg11.dtd"><svg class="icon" width="200px" height="199.42px" viewBox="0 0 1027 1024" version="1.1" xmlns="http://www.w3.org/2000/svg"><path fill="#333333" d="M940.872533 819.2h-85.333333v-388.266667c0-192-153.6-345.6-341.333333-345.6s-341.333333 153.6-341.333334 345.6v388.266667h-85.333333v-388.266667c0-238.933333 192-430.933333 426.666667-430.933333s426.666667 192 426.666666 430.933333v388.266667zM514.632533 1024c-68.266667 0-132.266667-29.866667-174.933333-85.333333-17.066667-17.066667-12.8-42.666667 4.266667-59.733334 17.066667-12.8 46.933333-12.8 59.733333 8.533334 29.866667 34.133333 68.266667 51.2 110.933333 51.2s81.066667-17.066667 106.666667-51.2c12.8-17.066667 42.666667-21.333333 59.733333-8.533334 17.066667 12.8 21.333333 42.666667 8.533334 59.733334-42.666667 55.466667-106.666667 85.333333-174.933334 85.333333zM983.965867 861.866667h-12.8c-294.4-89.6-618.666667-89.6-913.066667 0-21.333333 4.266667-46.933333-8.533333-55.466667-29.866667-8.533333-21.333333 4.266667-46.933333 29.866667-51.2 311.466667-93.866667 652.8-89.6 964.266667 0 21.333333 8.533333 34.133333 29.866667 29.866666 51.2-8.533333 21.333333-25.6 29.866667-42.666666 29.866667z" /></svg>