<?xml version="1.0" standalone="no"?><!DOCTYPE svg PUBLIC "-//W3C//DTD SVG 1.1//EN" "http://www.w3.org/Graphics/SVG/1.1/DTD/svg11.dtd"><svg class="icon" width="200px" height="200.00px" viewBox="0 0 1024 1024" version="1.1" xmlns="http://www.w3.org/2000/svg"><path fill="#333333" d="M751.542857 1024H268.8C140.8 1024 34.742857 914.285714 34.742857 782.628571V362.057143c0-135.314286 106.057143-241.371429 234.057143-241.371429v109.714286C199.314286 226.742857 144.457143 288.914286 144.457143 362.057143v420.571428c0 73.142857 54.857143 131.657143 124.342857 131.657143h486.4c65.828571 0 124.342857-58.514286 124.342857-131.657143V362.057143c0-73.142857-54.857143-131.657143-124.342857-131.657143v-109.714286c128 0 234.057143 109.714286 234.057143 241.371429v420.571428C985.6 914.285714 883.2 1024 751.542857 1024zM601.6 329.142857h-182.857143C327.314286 329.142857 254.171429 256 254.171429 164.571429S327.314286 0 418.742857 0h182.857143C693.028571 0 766.171429 73.142857 766.171429 164.571429S693.028571 329.142857 601.6 329.142857z m-182.857143-219.428571C389.485714 109.714286 363.885714 135.314286 363.885714 164.571429S389.485714 219.428571 418.742857 219.428571h182.857143c29.257143 0 54.857143-25.6 54.857143-54.857142S630.857143 109.714286 601.6 109.714286h-182.857143zM601.6 768h-182.857143c-29.257143 0-54.857143-25.6-54.857143-54.857143s25.6-54.857143 54.857143-54.857143h182.857143c29.257143 0 54.857143 25.6 54.857143 54.857143s-25.6 54.857143-54.857143 54.857143zM601.6 585.142857h-182.857143c-29.257143 0-54.857143-25.6-54.857143-54.857143s25.6-54.857143 54.857143-54.857143h182.857143c29.257143 0 54.857143 25.6 54.857143 54.857143s-25.6 54.857143-54.857143 54.857143z" /></svg>