<svg xmlns="http://www.w3.org/2000/svg" viewBox="0 0 1024 1024"><path fill="#1A1A1A" d="M320 256h512v85.33h-512v-85.33z m0 170.67h298.67v85.33h-298.67v-85.33z"/><path fill="#1A1A1A" d="M277.33 0a128 128 0 0 0-128 128v554.67h-42.66a85.33 85.33 0 0 0-85.34 85.33v10.67c0 135.49 109.85 245.33 245.34 245.33h522.66c117.82 0 213.33-95.51 213.34-213.33v-682.67a128 128 0 0 0-128-128h-597.34z m490.67 938.67h-6.74a102.4 102.4 0 0 1-63.98-22.45l-16.55-13.24a165.33 165.33 0 0 1-62.06-129.11c0-18.07-0.81-36.74-9.26-52.7-13.59-25.71-39.13-38.51-95.7-38.5h-279.04v-554.67a42.67 42.67 0 0 1 42.66-42.67h597.34a42.67 42.67 0 0 1 42.66 42.67v661.33a149.33 149.33 0 0 1-149.33 149.34z m-655.15-116.7a41.58 41.58 0 0 1 39.68-53.97h337.86c18.33 0 33.66 13.87 35.5 32.13a244.33 244.33 0 0 0 55.4 132.09l5.38 6.45h-315.08a166.29 166.29 0 0 1-158.72-116.7z"/></svg>