<svg xmlns="http://www.w3.org/2000/svg" viewBox="0 0 1024 1024"><path fill="#1A1A1A" d="M554.67 640h-298.67v85.33h298.67v-85.33z m-298.67-213.33h512v85.33h-512v-85.33z"/><path fill="#1A1A1A" d="M263.27 85.33h-71.27a128 128 0 0 0-128 128v682.67a128 128 0 0 0 128 128h640a128 128 0 0 0 128-128v-682.67a128 128 0 0 0-128-128h-71.27a128.06 128.06 0 0 0-120.73-85.33h-256a128.06 128.06 0 0 0-120.73 85.33z m120.73 0h256a42.67 42.67 0 1 1 0 85.34h-256a42.67 42.67 0 1 1 0-85.34z m-120.73 85.34c17.58 49.71 65 85.33 120.73 85.33h256a128.06 128.06 0 0 0 120.73-85.33h71.27a42.67 42.67 0 0 1 42.67 42.66v682.67a42.67 42.67 0 0 1-42.67 42.67h-640a42.67 42.67 0 0 1-42.67-42.67v-682.67a42.67 42.67 0 0 1 42.67-42.66h71.27z"/></svg>