<svg xmlns="http://www.w3.org/2000/svg" viewBox="0 0 1024 1024"><path fill="undefined" d="M656.82 484.5a36.57 36.57 0 0 1 3.37 51.56l-97.28 111.25a105.55 105.55 0 0 1-145.41 12.95l-49.01-39.28a36.57 36.57 0 1 1 45.64-57.05l49.01 39.21a32.4 32.4 0 0 0 44.62-3.95l97.5-111.33a36.57 36.57 0 0 1 51.56-3.43z"/><path fill="undefined" d="M200.63 138.61a174.52 174.52 0 0 1 136.27-65.47h350.2c52.96 0 103.13 24.14 136.27 65.47l89.23 111.61c24.8 30.94 38.25 69.41 38.26 108.98v417.14a174.52 174.52 0 0 1-174.52 174.52h-528.68a174.52 174.52 0 0 1-174.52-174.52v-417.14c0-39.57 13.46-78.04 38.26-108.98l89.23-111.61z m136.27 7.68c-30.72 0-59.9 13.97-79.14 38.03l-71.98 89.97h652.44l-71.98-89.97a101.38 101.38 0 0 0-79.14-38.03h-350.2z m540.08 200.99a36.86 36.86 0 0 1-2.92 0.15h-724.12c-1.02 0-1.97 0-2.92-0.15-0.51 3.95-0.73 7.97-0.73 11.92v417.14c0 56.03 45.35 101.38 101.37 101.37h528.68c56.03 0 101.38-45.35 101.37-101.37v-417.14c0-3.95-0.22-7.97-0.73-11.92z"/></svg>