<svg xmlns="http://www.w3.org/2000/svg" viewBox="0 0 1024 1024"><path fill="#333" d="M263.31 1024h-3.65c-29.26-3.66-51.2-29.26-51.2-58.51 14.63-149.94 142.63-270.63 292.57-270.63 29.26 0 54.86 25.6 54.86 54.85s-25.6 54.86-54.86 54.86c-95.09 0-175.54 73.14-186.52 168.23 0 29.26-25.6 51.2-51.2 51.2z m263.32-438.86c-43.89 0-87.77-21.94-117.03-54.85-18.29-21.94-14.63-58.52 7.32-76.8 21.94-18.29 58.52-14.63 76.8 7.31 14.63 18.29 43.89 18.29 58.51 0 18.29-21.94 54.86-29.26 76.8-7.31 21.94 18.29 29.26 54.86 7.31 76.8-21.94 32.91-62.17 54.86-109.71 54.85z m-18.29-212.11c-142.63 0-277.94-29.26-409.6-84.12-29.26-10.97-40.23-43.88-29.25-73.14 10.97-29.26 43.88-40.23 73.14-29.26 117.03 51.2 237.71 73.14 365.71 73.15 95.09 0 190.17-14.63 281.6-43.89 29.26-10.97 58.51 7.32 69.49 36.57 10.97 29.26-7.32 58.51-36.57 69.49-102.4 36.57-208.46 51.2-314.52 51.2z m314.52 650.97h-73.15c-80.46 0-146.28-65.83-146.28-146.29s65.83-146.28 146.28-146.28h73.15c80.46 0 146.29 65.83 146.28 146.28s-65.83 146.29-146.28 146.29z m-73.15-182.86c-21.94 0-36.57 14.63-36.57 36.57s14.63 36.57 36.57 36.58h73.15c21.94 0 36.57-14.63 36.57-36.58s-14.63-36.57-36.57-36.57h-73.15z m-237.71-36.57c-18.29 0-29.26-3.66-43.89-3.66-193.83-29.26-340.11-201.14-340.11-398.62 0-223.09 179.2-402.29 402.29-402.29s402.28 179.2 402.28 402.29c0 65.83-18.29 131.66-47.54 190.17-7.32 14.63-18.29 32.91-29.26 43.88-18.29 25.6-51.2 29.26-76.8 10.97-25.6-18.29-29.26-51.2-10.97-76.8l21.94-32.91c21.94-43.89 36.57-91.43 36.57-138.97 0-160.91-131.66-292.57-292.57-292.57s-292.57 131.66-292.57 292.57c0 142.63 106.06 266.97 248.69 288.91 10.97 0 18.29 3.66 29.25 3.66 29.26 0 54.86 25.6 51.2 58.51-3.66 32.91-29.26 54.86-58.51 54.86z"/></svg>