<?xml version="1.0" standalone="no"?><!DOCTYPE svg PUBLIC "-//W3C//DTD SVG 1.1//EN" "http://www.w3.org/Graphics/SVG/1.1/DTD/svg11.dtd"><svg class="icon" width="200px" height="200.00px" viewBox="0 0 1024 1024" version="1.1" xmlns="http://www.w3.org/2000/svg"><path fill="#333333" d="M263.314286 1024h-3.657143c-29.257143-3.657143-51.2-29.257143-51.2-58.514286 14.628571-149.942857 142.628571-270.628571 292.571428-270.628571 29.257143 0 54.857143 25.6 54.857143 54.857143S530.285714 804.571429 501.028571 804.571429c-95.085714 0-175.542857 73.142857-186.514285 168.228571 0 29.257143-25.6 51.2-51.2 51.2zM526.628571 585.142857c-43.885714 0-87.771429-21.942857-117.028571-54.857143-18.285714-21.942857-14.628571-58.514286 7.314286-76.8 21.942857-18.285714 58.514286-14.628571 76.8 7.314286 14.628571 18.285714 43.885714 18.285714 58.514285 0 18.285714-21.942857 54.857143-29.257143 76.8-7.314286 21.942857 18.285714 29.257143 54.857143 7.314286 76.8-21.942857 32.914286-62.171429 54.857143-109.714286 54.857143zM508.342857 373.028571c-142.628571 0-277.942857-29.257143-409.6-84.114285-29.257143-10.971429-40.228571-43.885714-29.257143-73.142857 10.971429-29.257143 43.885714-40.228571 73.142857-29.257143 117.028571 51.2 237.714286 73.142857 365.714286 73.142857 95.085714 0 190.171429-14.628571 281.6-43.885714 29.257143-10.971429 58.514286 7.314286 69.485714 36.571428 10.971429 29.257143-7.314286 58.514286-36.571428 69.485714-102.4 36.571429-208.457143 51.2-314.514286 51.2zM822.857143 1024h-73.142857c-80.457143 0-146.285714-65.828571-146.285715-146.285714s65.828571-146.285714 146.285715-146.285715h73.142857c80.457143 0 146.285714 65.828571 146.285714 146.285715s-65.828571 146.285714-146.285714 146.285714z m-73.142857-182.857143c-21.942857 0-36.571429 14.628571-36.571429 36.571429s14.628571 36.571429 36.571429 36.571428h73.142857c21.942857 0 36.571429-14.628571 36.571428-36.571428s-14.628571-36.571429-36.571428-36.571429h-73.142857zM512 804.571429c-18.285714 0-29.257143-3.657143-43.885714-3.657143C274.285714 771.657143 128 599.771429 128 402.285714 128 179.2 307.2 0 530.285714 0s402.285714 179.2 402.285715 402.285714c0 65.828571-18.285714 131.657143-47.542858 190.171429-7.314286 14.628571-18.285714 32.914286-29.257142 43.885714-18.285714 25.6-51.2 29.257143-76.8 10.971429-25.6-18.285714-29.257143-51.2-10.971429-76.8l21.942857-32.914286c21.942857-43.885714 36.571429-91.428571 36.571429-138.971429 0-160.914286-131.657143-292.571429-292.571429-292.571428s-292.571429 131.657143-292.571428 292.571428c0 142.628571 106.057143 266.971429 248.685714 288.914286 10.971429 0 18.285714 3.657143 29.257143 3.657143 29.257143 0 54.857143 25.6 51.2 58.514286-3.657143 32.914286-29.257143 54.857143-58.514286 54.857143z" /></svg>