<svg xmlns="http://www.w3.org/2000/svg" viewBox="0 0 1024 1024"><path fill="#1A1A1A" d="M7.15 33.79a42.67 42.67 0 0 1 41.72-33.79h185.8a170.67 170.67 0 0 1 170.66 170.67v148.65a85.33 85.33 0 0 1-35.86 69.54l-143.27 101.89a913.17 913.17 0 0 0 106.19 118.15 1295.17 1295.17 0 0 0 221.17 166.46l83.3-120.02a85.33 85.33 0 0 1 70.11-36.67h146.36a170.67 170.67 0 0 1 170.67 170.66v192a42.67 42.67 0 0 1-47.68 42.37c-85.87-10.15-252.52-54.29-431.02-154.49-89.98-50.52-183.47-115.54-271.34-198.11-58.45-54.95-105.34-111.15-142.63-166.61-131.11-195.07-143.27-381.01-124.18-470.7z m621.31 783.32c122.9 63.57 235.48 98.45 310.21 113.88v-141.66a85.33 85.33 0 0 0-85.34-85.33h-146.36l-78.51 113.11z m-449.75-397.29l141.29-100.46v-148.69a85.33 85.33 0 0 0-85.33-85.34h-148.53c-4.91 72.02 10.88 196.91 92.57 334.51z"/></svg>