<svg xmlns="http://www.w3.org/2000/svg" viewBox="0 0 1024 1024"><path fill="#1A1A1A" d="M512 768c117.82 0 213.33-95.51 213.33-213.33s-95.51-213.33-213.33-213.34-213.33 95.51-213.33 213.34 95.51 213.33 213.33 213.33z m0-85.33a128 128 0 1 1 0-256 128 128 0 0 1 0 256z m298.67-256a42.67 42.67 0 1 0 0-85.34 42.67 42.67 0 0 0 0 85.34z"/><path fill="#1A1A1A" d="M256 170.67h-128a128 128 0 0 0-128 128v554.66a128 128 0 0 0 128 128h768a128 128 0 0 0 128-128v-554.66a128 128 0 0 0-128-128h-128l-47.34-71a128 128 0 0 0-106.47-57h-204.38a128 128 0 0 0-106.49 57l-47.32 71z m45.65 85.33l72.69-109.01a42.67 42.67 0 0 1 35.49-18.99h204.34a42.67 42.67 0 0 1 35.49 18.99l72.67 109.01h173.67a42.67 42.67 0 0 1 42.67 42.67v554.66a42.67 42.67 0 0 1-42.67 42.67h-768a42.67 42.67 0 0 1-42.67-42.67v-554.66a42.67 42.67 0 0 1 42.67-42.67h173.65z"/></svg>