<?xml version="1.0" standalone="no"?><!DOCTYPE svg PUBLIC "-//W3C//DTD SVG 1.1//EN" "http://www.w3.org/Graphics/SVG/1.1/DTD/svg11.dtd"><svg class="icon" width="200px" height="179.49px" viewBox="0 0 1141 1024" version="1.1" xmlns="http://www.w3.org/2000/svg"><path fill="#333333" d="M570.514286 789.942857c-119.954286 0-219.428571-99.474286-219.428572-219.428571s99.474286-219.428571 219.428572-219.428572 219.428571 99.474286 219.428571 219.428572-99.474286 219.428571-219.428571 219.428571z m0-351.085714C497.371429 438.857143 438.857143 497.371429 438.857143 570.514286s58.514286 131.657143 131.657143 131.657143 131.657143-58.514286 131.657143-131.657143-58.514286-131.657143-131.657143-131.657143zM877.714286 1024H263.314286c-146.285714 0-263.314286-117.028571-263.314286-263.314286V380.342857c0-146.285714 117.028571-263.314286 263.314286-263.314286h32.182857c0-2.925714 2.925714-8.777143 2.925714-11.702857C315.977143 43.885714 374.491429 0 438.857143 0h263.314286c70.217143 0 128.731429 49.737143 143.36 117.028571H877.714286c146.285714 0 263.314286 117.028571 263.314285 263.314286v380.342857c0 146.285714-117.028571 263.314286-263.314285 263.314286zM263.314286 204.8c-96.548571 0-175.542857 78.994286-175.542857 175.542857v380.342857c0 96.548571 78.994286 175.542857 175.542857 175.542857h614.4c96.548571 0 175.542857-78.994286 175.542857-175.542857V380.342857c0-96.548571-78.994286-175.542857-175.542857-175.542857h-58.514286c-32.182857 0-58.514286-26.331429-58.514286-58.514286s-26.331429-58.514286-58.514285-58.514285h-263.314286c-26.331429 0-49.737143 17.554286-55.588572 40.96-2.925714 5.851429-2.925714 11.702857-2.925714 17.554285 0 32.182857-26.331429 58.514286-58.514286 58.514286H263.314286zM248.685714 365.714286m-73.142857 0a73.142857 73.142857 0 1 0 146.285714 0 73.142857 73.142857 0 1 0-146.285714 0Z" /></svg>