<svg xmlns="http://www.w3.org/2000/svg" viewBox="0 0 1024 1024"><path fill="#1A1A1A" d="M512 768c7.17 0 14.29-0.21 21.33-0.64v85.44a424.85 424.85 0 0 1-216.06-46.4c-80.51 40.34-155.2 97.98-192.32 190.78a42.67 42.67 0 0 1-79.23-31.7c40.6-101.48 115.05-167.38 191.36-212.52-92.82-78.29-151.74-195.41-151.75-326.29 0-14.4 0.7-28.63 2.12-42.67h-44.78a42.67 42.67 0 1 1 0-85.33h62.2c54.36-173.1 216.09-298.67 407.13-298.67 235.65 0 426.67 191.02 426.67 426.67 0 60.67-12.67 118.4-35.5 170.66h-95.51a339.78 339.78 0 0 0 45.67-170.66c0-14.44-0.9-28.69-2.64-42.67h-677.38a344.7 344.7 0 0 0-2.64 42.67c0 188.52 152.81 341.33 341.33 341.33z m-316.52-469.33h633.04c-50.65-125.1-173.27-213.33-316.52-213.34s-265.88 88.23-316.52 213.34z"/><path fill="#1A1A1A" d="M354.5 574.83s-0.02-0.02 29.5-30.83c29.53-30.81 29.53-30.81 29.5-30.83l-0.04-0.04-0.04-0.04-0.04-0.04 0.12 0.12 1.18 1.05c1.13 1 3.03 2.6 5.54 4.61a191.57 191.57 0 0 0 22.06 14.93c19.29 11.22 43.78 20.91 69.72 20.91 25.94 0 50.43-9.69 69.72-20.91a191.57 191.57 0 0 0 27.6-19.54l1.18-1.05 0.12-0.12-0.04 0.04-0.04 0.04-0.02 0.04h-0.02s-0.02 0.02 29.5 30.83a6276.1 6276.1 0 0 1 29.5 30.83l-0.06 0.06-0.11 0.11-0.3 0.25a112.6 112.6 0 0 1-3.41 3.12 276.59 276.59 0 0 1-41.02 29.18c-26.67 15.47-66.18 32.45-112.6 32.45-46.44 0-85.95-16.98-112.58-32.43a276.59 276.59 0 0 1-32-21.71 223.68 223.68 0 0 1-12.45-10.61l-0.3-0.25-0.11-0.11-0.04-0.06h-0.02z m392.17 107.84a128 128 0 0 0-128 128v85.33a128 128 0 0 0 128 128h149.33a128 128 0 0 0 128-128v-85.33a128 128 0 0 0-128-128h-149.33z m149.33 85.33a42.67 42.67 0 0 1 42.67 42.67v85.33a42.67 42.67 0 0 1-42.67 42.67h-149.33a42.67 42.67 0 0 1-42.67-42.67v-85.33a42.67 42.67 0 0 1 42.67-42.67h149.33z"/></svg>