<svg xmlns="http://www.w3.org/2000/svg" viewBox="0 0 1024 1024"><path fill="undefined" d="M420.21 206.7c0-118.78 143.65-178.25 227.62-94.21l263.82 263.76c83.97 83.97 24.5 227.62-94.35 227.62a45.57 45.57 0 0 0-32.18 13.31l-73.95 74.09a45.57 45.57 0 0 0-13.39 32.19c0 118.78-143.58 178.32-227.54 94.35l-101.01-101.01-221.19 221.18a43.89 43.89 0 1 1-62.02-62.02l221.18-221.11-100.94-100.94c-83.89-83.97-24.43-227.55 94.36-227.55a45.57 45.57 0 0 0 32.18-13.31l74.09-74.09a45.57 45.57 0 0 0 13.32-32.19z m165.52-32.18a45.57 45.57 0 0 0-77.75 32.18c0 35.4-14.04 69.27-39.06 94.36l-73.95 73.94a133.34 133.34 0 0 1-94.35 39.06 45.57 45.57 0 0 0-32.19 77.75l263.83 263.83a45.57 45.57 0 0 0 77.75-32.18c0-35.4 14.04-69.34 39.06-94.36l74.02-73.95a133.34 133.34 0 0 1 94.28-39.05c40.59 0 60.85-49.01 32.18-77.75l-263.82-263.83z"/></svg>