<svg xmlns="http://www.w3.org/2000/svg" viewBox="0 0 1024 1024"><path fill="#333" d="M772.7 217.7a32.2 32.1 0 1 0 64.4 0 32.2 32.1 0 1 0-64.4 0z m-356.9 462.2c5.9 0 11.5-1.6 16.2-4.5l231.1-134.6c10.9-5.2 18.5-16.3 18.5-29.2 0-11.9-6.4-22.3-16-27.8l-225.9-131.6c-5.8-6.7-14.4-10.9-23.9-10.9-17.6 0-31.8 14.4-31.8 32.1 0 0.6 0 1.2 0.1 1.8l-0.4 0.2 0.5 269c-0.1 1.1-0.2 2.2-0.2 3.4 0 17.7 14.3 32.1 31.8 32.1z"/><path fill="#333" d="M909.8 306.6c-5.4-10.5-16.3-17.8-28.9-17.8-17.8 0-32.2 14.4-32.2 32.1 0 6 1.7 11.7 4.6 16.5l-0.1 0.1c26.9 52.4 42.1 111.8 42.1 174.7 0 211.6-171.6 383.2-383.2 383.2s-383.3-171.6-383.3-383.2 171.6-383.1 383.2-383.1c62.5 0 121.5 15 173.6 41.5l0.2-0.4c4.6 2.6 10 4.1 15.7 4.1 17.8 0 32.2-14.4 32.2-32.1 0-13.1-7.9-24.4-19.3-29.4-60.8-30.9-129.5-48.3-202.4-48.3-247.3 0-447.7 200.5-447.7 447.7s200.4 447.7 447.7 447.7 447.7-200.4 447.7-447.7c0-74.1-18-144-49.9-205.6z"/></svg>