<?xml version="1.0" standalone="no"?><!DOCTYPE svg PUBLIC "-//W3C//DTD SVG 1.1//EN" "http://www.w3.org/Graphics/SVG/1.1/DTD/svg11.dtd"><svg class="icon" width="200px" height="200.00px" viewBox="0 0 1024 1024" version="1.1" xmlns="http://www.w3.org/2000/svg"><path fill="#333333" d="M500.864 952.64c-239.648 0-434.656-194.976-434.656-434.624 0-239.68 195.008-434.624 434.656-434.624 239.68 0 434.656 194.944 434.656 434.624 0 239.68-195.008 434.624-434.656 434.624m0-933.28C225.92 19.36 2.24 243.104 2.24 518.016c0 274.944 223.68 498.624 498.624 498.624S999.52 792.96 999.52 518.016c0-274.912-223.68-498.624-498.656-498.624"  /><path fill="#333333" d="M404.864 326.016a32 32 0 0 0-32 32v320a32 32 0 0 0 64 0v-320a32 32 0 0 0-32-32m192 0a32 32 0 0 0-32 32v320a32 32 0 0 0 64 0v-320a32 32 0 0 0-32-32"  /></svg>