<?xml version="1.0" standalone="no"?><!DOCTYPE svg PUBLIC "-//W3C//DTD SVG 1.1//EN" "http://www.w3.org/Graphics/SVG/1.1/DTD/svg11.dtd"><svg class="icon" width="200px" height="200.00px" viewBox="0 0 1024 1024" version="1.1" xmlns="http://www.w3.org/2000/svg"><path fill="#333333" d="M87 775.8c-11 0-20-9-20-20V268.2c0-11 9-20 20-20s20 9 20 20v487.6c0 11-9 20-20 20z"  /><path fill="#333333" d="M94.2 512.9l423.4 244.5c0.7 0.4 1.5-0.1 1.5-0.9v-489c0-0.8-0.8-1.3-1.5-0.9L94.2 511.1c-0.7 0.4-0.7 1.4 0 1.8z"  /><path fill="#333333" d="M512.1 512.9l423.4 244.5c0.7 0.4 1.5-0.1 1.5-0.9v-489c0-0.8-0.8-1.3-1.5-0.9L512.1 511.1c-0.7 0.4-0.7 1.4 0 1.8z"  /></svg>