<svg xmlns="http://www.w3.org/2000/svg" viewBox="0 0 1024 1024"><path fill="#333" d="M500.86 952.64c-239.65 0-434.66-194.98-434.65-434.62 0-239.68 195.01-434.62 434.65-434.63 239.68 0 434.66 194.94 434.66 434.63 0 239.68-195.01 434.62-434.66 434.62m0-933.28c-274.94 0-498.62 223.74-498.62 498.66 0 274.94 223.68 498.62 498.62 498.62s498.66-223.68 498.66-498.62c0-274.91-223.68-498.62-498.66-498.63"/><path fill="#333" d="M404.86 326.02a32 32 0 0 0-32 32v320a32 32 0 0 0 64 0v-320a32 32 0 0 0-32-32m192 0a32 32 0 0 0-32 32v320a32 32 0 0 0 64 0v-320a32 32 0 0 0-32-32"/></svg>