<?xml version="1.0" standalone="no"?><!DOCTYPE svg PUBLIC "-//W3C//DTD SVG 1.1//EN" "http://www.w3.org/Graphics/SVG/1.1/DTD/svg11.dtd"><svg class="icon" width="200px" height="200.00px" viewBox="0 0 1024 1024" version="1.1" xmlns="http://www.w3.org/2000/svg"><path fill="#333333" d="M917 248.2c11 0 20 9 20 20v487.6c0 11-9 20-20 20s-20-9-20-20V268.2c0-11 9-20 20-20z"  /><path fill="#333333" d="M909.8 511.1L486.4 266.7c-0.7-0.4-1.5 0.1-1.5 0.9v488.9c0 0.8 0.8 1.3 1.5 0.9l423.4-244.5c0.7-0.4 0.7-1.4 0-1.8z"  /><path fill="#333333" d="M491.9 511.1L68.5 266.7c-0.7-0.4-1.5 0.1-1.5 0.9v488.9c0 0.8 0.8 1.3 1.5 0.9l423.4-244.5c0.7-0.4 0.7-1.4 0-1.8z"  /></svg>