<svg xmlns="http://www.w3.org/2000/svg" viewBox="0 0 1024 1024"><path fill="undefined" d="M231.13 204.8v131.66c0 0.07 0 0 0 0-91.65 2.71-157.99 84.55-157.99 175.54 0 91.06 66.34 172.98 157.99 175.54v131.66c0 68.24 50.76 131.66 122.88 131.66h79c50.32 0 83.38-43.74 83.38-87.77 0-52.96 37.67-87.77 74.6-87.78s74.61 34.82 74.61 87.78c0 44.03 33.06 87.77 83.38 87.77h79c72.12 0 122.88-63.41 122.88-131.66v-131.66c0-44.03-33.13-87.77-83.39-87.77-36.94 0-74.61-34.82-74.6-87.77s37.67-87.77 74.6-87.77c50.32 0 83.38-43.74 83.39-87.77v-131.66c0-68.24-50.76-131.66-122.88-131.66h-473.97c-72.12 0-122.88 63.41-122.88 131.66z m122.88-43.89h473.97c15.14 0 35.11 15.21 35.11 43.89v131.66c0 0.07 0 0 0 0-91.65 2.63-157.99 84.48-157.99 175.54 0 91.06 66.34 172.98 157.99 175.54v131.66c0 28.67-19.97 43.89-35.11 43.89h-74.61c0-92.45-68.46-175.54-162.38-175.55-93.92 0-162.38 83.09-162.37 175.55h-74.61c-15.14 0-35.11-15.21-35.11-43.89v-131.66c0-44.03-33.13-87.77-83.38-87.77-36.94 0-74.61-34.82-74.61-87.77s37.67-87.77 74.61-87.77c50.32 0 83.38-43.74 83.38-87.77v-131.66c0-28.67 19.97-43.89 35.11-43.89z"/></svg>