<svg xmlns="http://www.w3.org/2000/svg" viewBox="0 0 1024 1024"><path fill="undefined" d="M73.14 196.02c0-67.88 55-122.88 122.88-122.88h631.96a122.88 122.88 0 0 1 83.38 213.14v383.71a122.88 122.88 0 0 1-122.88 122.88h-232.59v114.1a43.89 43.89 0 1 1-87.78 0v-114.1h-232.59a122.88 122.88 0 0 1-122.88-122.88v-383.71a122.59 122.59 0 0 1-39.5-90.26z m122.88 35.11h631.96a35.11 35.11 0 1 0 0-70.22h-631.96a35.11 35.11 0 1 0 0 70.22z m4.39 87.77v351.09c0 19.38 15.73 35.11 35.11 35.11h552.96a35.11 35.11 0 0 0 35.11-35.11v-351.09h-623.18z m492.18 76.44a43.89 43.89 0 0 1 15.07 60.27l-42.79 71.24a114.25 114.25 0 0 1-187.17 12.58 26.48 26.48 0 0 0-43.3 2.92l-42.79 71.25a43.89 43.89 0 0 1-75.27-45.21l42.79-71.24a114.25 114.25 0 0 1 187.17-12.58 26.48 26.48 0 0 0 43.3-2.92l42.79-71.25a43.89 43.89 0 0 1 60.2-14.99z"/></svg>