<svg width="42" height="42" viewBox="0 0 42 42" fill="none" xmlns="http://www.w3.org/2000/svg"><g clip-path="url(#clip0_2192_28278)"><g clip-path="url(#clip1_2192_28278)"><path fill-rule="evenodd" clip-rule="evenodd" d="M19.5747 4.03639L19.5749 4.03621C20.3628 3.24873 21.6382 3.24874 22.4261 4.03621L22.4263 4.03639L24.7795 6.3896C25.8082 7.41838 27.2035 7.99634 28.6584 7.99634H31.9877C33.1002 7.99634 34.0038 8.89933 34.0038 10.0128V13.3414C34.0038 14.7963 34.5818 16.1916 35.6106 17.2203L37.9639 19.5736L37.964 19.5737C38.7517 20.3612 38.7517 21.6376 37.964 22.4251L37.9639 22.4252L35.6106 24.7785C34.5818 25.8072 34.0038 27.2025 34.0038 28.6575V31.9859C34.0038 33.0994 33.1002 34.0024 31.9877 34.0024H28.6584C27.2035 34.0024 25.8082 34.5804 24.7794 35.6092L22.4263 37.9624L22.4261 37.9626C21.6382 38.7501 20.3628 38.7501 19.5749 37.9626L19.5747 37.9624L17.2216 35.6092C16.1928 34.5804 14.7975 34.0024 13.3426 34.0024H10.0133C8.90082 34.0024 7.9972 33.0994 7.9972 31.9859V28.6575C7.9972 27.2025 7.41922 25.8072 6.39043 24.7785L4.03712 22.4252L4.03697 22.4251C3.24929 21.6376 3.24929 20.3612 4.03697 19.5737L4.03712 19.5736L6.39043 17.2203C7.41922 16.1916 7.9972 14.7963 7.9972 13.3414V10.0128C7.9972 8.89933 8.90082 7.99634 10.0133 7.99634H13.3426C14.7975 7.99634 16.1928 7.41838 17.2215 6.3896L19.5747 4.03639ZM24.7533 1.70866C22.6801 -0.363987 19.3209 -0.363987 17.2477 1.70866L17.2475 1.70884L14.8941 4.06223C14.4826 4.47373 13.9245 4.70491 13.3426 4.70491H10.0133C7.08332 4.70491 4.70577 7.08121 4.70577 10.0128V13.3414C4.70577 13.9233 4.47458 14.4814 4.06308 14.8929L1.70991 17.246L1.70977 17.2461C-0.363542 19.319 -0.363542 22.6798 1.70977 24.7527L1.70991 24.7528L4.06308 27.1059C4.47458 27.5174 4.70577 28.0755 4.70577 28.6575V31.9859C4.70577 34.9175 7.08332 37.2938 10.0133 37.2938H13.3426C13.9245 37.2938 14.4826 37.525 14.8941 37.9365L17.2475 40.29L17.2477 40.2901C19.3209 42.3628 22.6801 42.3628 24.7533 40.2901L24.7535 40.29L27.1069 37.9365C27.5184 37.525 28.0765 37.2938 28.6584 37.2938H31.9877C34.9177 37.2938 37.2952 34.9175 37.2952 31.9859V28.6575C37.2952 28.0755 37.5264 27.5174 37.9379 27.1059L40.2911 24.7528C42.3646 22.6799 42.3646 19.3189 40.2911 17.246L37.9379 14.8929C37.5264 14.4814 37.2952 13.9233 37.2952 13.3414V10.0128C37.2952 7.08121 34.9177 4.70491 31.9877 4.70491H28.6584C28.0765 4.70491 27.5184 4.47373 27.1069 4.06223L24.7535 1.70884L24.7533 1.70866ZM14.7728 29.7733L29.7728 14.7733L27.2273 12.2277L12.2273 27.2277L14.7728 29.7733ZM16.2756 18.8253C17.6847 18.8253 18.827 17.683 18.827 16.2739C18.827 14.8648 17.6847 13.7225 16.2756 13.7225C14.8665 13.7225 13.7242 14.8648 13.7242 16.2739C13.7242 17.683 14.8665 18.8253 16.2756 18.8253ZM28.2768 25.7236C28.2768 27.1327 27.1344 28.275 25.7253 28.275C24.3162 28.275 23.1739 27.1327 23.1739 25.7236C23.1739 24.3145 24.3162 23.1722 25.7253 23.1722C27.1344 23.1722 28.2768 24.3145 28.2768 25.7236Z" fill="black"/></g></g><defs><clipPath id="clip0_2192_28278"><rect width="42" height="42" fill="white"/></clipPath><clipPath id="clip1_2192_28278"><rect width="42" height="42" fill="white"/></clipPath></defs></svg>