<svg xmlns="http://www.w3.org/2000/svg" viewBox="0 0 1024 1024"><path fill="#1A1A1A" d="M525.44 111.42a21.33 21.33 0 0 0-26.88 0l-333.4 270.13a42.67 42.67 0 0 0-15.83 33.17v481.28a21.33 21.33 0 0 0 21.34 21.33h281.85a342.23 342.23 0 0 0 71.68 85.34h-353.53a106.67 106.67 0 0 1-106.67-106.67v-481.28a128 128 0 0 1 47.42-99.48l333.44-270.12a106.67 106.67 0 0 1 134.28 0l333.44 270.12a128 128 0 0 1 47.42 99.48v64.15a341.33 341.33 0 0 0-85.33-49.92v-14.23a42.67 42.67 0 0 0-15.81-33.15l-333.44-270.15z"/><path fill="#1A1A1A" d="M704 640h85.33v96.7l71.09 63.47-56.84 63.66-99.58-88.92v-134.91z"/><path fill="#1A1A1A" d="M1024 746.67c0 153.17-124.16 277.33-277.33 277.33s-277.33-124.16-277.34-277.33 124.16-277.33 277.34-277.34 277.33 124.16 277.33 277.34z m-85.33 0a192 192 0 1 0-384 0 192 192 0 0 0 384 0z m-298.67-426.67h-256v85.33h256v-85.33z"/><path fill="undefined" d="M782.23 744.66l63.15 56.36-42.65 47.75-88.06-78.64v-119.46h64v90.81l3.56 3.2z m-250.09-641.53a32 32 0 0 0-40.28 0l-333.44 270.14a53.33 53.33 0 0 0-19.75 41.43v481.3a32 32 0 0 0 32 32h275.84a352.6 352.6 0 0 0 50.51 64h-326.35a96 96 0 0 1-96-96v-481.28a117.33 117.33 0 0 1 43.47-91.18l333.44-270.14a96 96 0 0 1 120.86 0l333.44 270.14a117.33 117.33 0 0 1 43.45 91.16v42.81a351.79 351.79 0 0 0-64-35.69v-7.12a53.33 53.33 0 0 0-19.75-41.43l-333.44-270.14z m214.53 846.2a202.67 202.67 0 1 0 0-405.33 202.67 202.67 0 0 0 0 405.33z m266.66-202.66c0 147.29-119.38 266.67-266.66 266.66s-266.67-119.38-266.67-266.66 119.38-266.67 266.67-266.67 266.67 119.38 266.66 266.67z m-618.66-416h234.66v64h-234.66v-64z"/></svg>