<svg xmlns="http://www.w3.org/2000/svg" viewBox="0 0 1024 1024"><path fill="undefined" d="M395.26 178.98c9.73-13.53 28.53-22.67 51.5-15.65l38.84 11.85a91.47 91.47 0 0 0 52.8 0l38.77-11.85c23.11-6.95 41.84 2.12 51.57 15.65 9.36 12.87 10.09 28.23-2.93 42.28l-45.64 49.37h-136.41l-45.57-49.37c-13.02-14.04-12.29-29.4-2.93-42.28z m276.92 121.27l18-19.38c44.54-48.27 40.52-110.45 9.65-153.24a132.83 132.83 0 0 0-148.19-48.27l-38.84 11.85a3.15 3.15 0 0 1-1.75 0l-38.84-11.85a132.83 132.83 0 0 0-148.19 48.27c-30.87 42.72-34.89 105.03 9.66 153.24l17.99 19.38a285.04 285.04 0 0 0-147.75 161.65l-41.91 118.49c-65.54 185.56 81.85 370.47 279.85 370.47h140.28c198 0 345.38-184.91 279.78-370.47l-41.92-118.49a285.04 285.04 0 0 0-147.74-161.65z m-131.87 58.15c90.92 0 169.47 54.86 197.04 132.83l41.84 118.49c42.93 121.34-51.93 253.37-197.05 253.37h-140.28c-145.12 0-239.91-132.02-197.05-253.37l41.84-118.49c27.57-78.04 106.13-132.83 197.04-132.83h56.62z m136.19 370.25a43.89 43.89 0 0 1-18.51 59.24c-53.25 27.79-99.99 44.62-148.77 44.4-49.01-0.22-94.13-17.41-144.02-44.83a43.89 43.89 0 0 1 42.28-76.95c44.62 24.5 74.39 33.87 102.03 33.94 27.87 0.15 59.54-9.07 107.82-34.38a43.89 43.89 0 0 1 59.24 18.58z"/></svg>