<svg xmlns="http://www.w3.org/2000/svg" viewBox="0 0 1024 1024"><path fill="undefined" d="M73.14 138.39c0-73.29 55.95-138.39 131.66-138.39h614.4c75.7 0 131.66 65.1 131.66 138.39v716.36c0 91.28-86.82 164.94-177.23 129.83l-68.53-26.55a38.03 38.03 0 0 0-30.72 1.31l-107.23 51.93a125.95 125.95 0 0 1-110.3 0l-107.15-51.93a38.03 38.03 0 0 0-30.72-1.31l-68.61 26.55c-90.48 35.11-177.23-38.55-177.23-129.83v-716.36z m131.66-50.62c-21.21 0-43.89 19.53-43.89 50.62v716.36c0 39.64 33.79 57.27 57.79 47.98l68.53-26.55a125.88 125.88 0 0 1 100.72 4.17l107.15 51.93a38.18 38.18 0 0 0 33.8 0l107.15-51.93c31.67-15.36 67.95-16.82 100.72-4.17l68.53 26.62c23.99 9.22 57.78-8.41 57.79-48.05v-716.36c0-31.09-22.67-50.61-43.89-50.62h-614.4z m43.89 192.44a43.89 43.89 0 0 1 43.88-43.89h438.86a43.89 43.89 0 1 1 0 87.78h-438.86a43.89 43.89 0 0 1-43.88-43.89z m0 189.07a43.89 43.89 0 0 1 43.88-43.88h438.86a43.89 43.89 0 1 1 0 87.77h-438.86a43.89 43.89 0 0 1-43.88-43.89z m0 189.08a43.89 43.89 0 0 1 43.88-43.89h219.43a43.89 43.89 0 0 1 0 87.77h-219.43a43.89 43.89 0 0 1-43.88-43.88z"/></svg>