<svg xmlns="http://www.w3.org/2000/svg" viewBox="0 0 1024 1024"><path fill="#1A1A1A" d="M700.33 362.67l60.35 60.33-295.02 295.02-188.33-188.36 60.33-60.33 128 128 234.67-234.66z"/><path fill="#1A1A1A" d="M384 0a128.06 128.06 0 0 0-120.73 85.33h-92.6a128 128 0 0 0-128 128v682.67a128 128 0 0 0 128 128h682.66a128 128 0 0 0 128-128v-682.67a128 128 0 0 0-128-128h-92.6a128.06 128.06 0 0 0-120.73-85.33h-256z m256 85.33a42.67 42.67 0 1 1 0 85.34h-256a42.67 42.67 0 1 1 0-85.34h256z m-469.33 85.34h92.6c17.58 49.71 65 85.33 120.73 85.33h256a128.06 128.06 0 0 0 120.73-85.33h92.6a42.67 42.67 0 0 1 42.67 42.66v682.67a42.67 42.67 0 0 1-42.67 42.67h-682.66a42.67 42.67 0 0 1-42.67-42.67v-682.67a42.67 42.67 0 0 1 42.67-42.66z"/></svg>