<svg xmlns="http://www.w3.org/2000/svg" viewBox="0 0 1024 1024"><path fill="#1A1A1A" d="M154.3 279.3c76.2-116.86 207.96-193.96 357.7-193.97 211.07 0 386.35 153.28 420.61 354.61l-102.87-51.42a42.67 42.67 0 0 0-38.15 76.31l169.86 84.93a42.33 42.33 0 0 0 24.73 4.63 42.41 42.41 0 0 0 30.48-18.45 42.45 42.45 0 0 0 7.34-24.84c-0.49-282.35-229.55-511.1-512-511.1-179.78 0-337.92 92.69-429.18 232.7a42.67 42.67 0 1 0 71.48 46.6z m715.4 465.4c-76.2 116.86-207.96 193.96-357.7 193.97-211.07 0-386.35-153.28-420.61-354.61l102.87 51.42a42.67 42.67 0 0 0 38.15-76.31l-169.86-84.93a42.35 42.35 0 0 0-24.73-4.63 42.67 42.67 0 0 0-37.82 43.29c0.47 282.35 229.53 511.1 512 511.1 179.78 0 337.9-92.69 429.16-232.7a42.67 42.67 0 1 0-71.46-46.6z"/></svg>