<?xml version="1.0" standalone="no"?><!DOCTYPE svg PUBLIC "-//W3C//DTD SVG 1.1//EN" "http://www.w3.org/Graphics/SVG/1.1/DTD/svg11.dtd"><svg class="icon" width="200px" height="200.00px" viewBox="0 0 1024 1024" version="1.1" xmlns="http://www.w3.org/2000/svg"><path fill="#333333" d="M771.938462 315.076923H971.487179l-13.128205 154.912821-199.548718-105.025641c-13.128205-7.876923-18.379487-23.630769-10.502564-36.758975 2.625641-7.876923 13.128205-13.128205 23.63077-13.128205zM236.307692 708.923077H44.635897l13.128206-154.912821 191.671794 105.025641c13.128205 7.876923 18.379487 23.630769 10.502565 36.758975-5.251282 7.876923-15.753846 13.128205-23.63077 13.128205zM509.374359 1024C257.312821 1024 44.635897 845.45641 5.251282 596.020513c-5.251282-21.005128 10.502564-39.384615 31.507692-44.635898 21.005128-2.625641 42.010256 10.502564 44.635898 31.507693 34.133333 210.051282 215.302564 362.338462 427.979487 362.338461 191.671795 0 362.338462-128.65641 417.476923-312.451282 5.251282-21.005128 28.882051-34.133333 49.88718-26.25641 21.005128 5.251282 34.133333 28.882051 26.25641 49.887179-65.641026 215.302564-267.815385 367.589744-493.620513 367.589744z m467.364103-551.384615c-18.379487 0-36.758974-13.128205-39.384616-34.133334C903.220513 231.05641 722.051282 78.769231 509.374359 78.769231 317.702564 78.769231 147.035897 207.425641 94.523077 391.220513c-5.251282 21.005128-28.882051 34.133333-49.88718 26.25641-21.005128-5.251282-34.133333-28.882051-26.25641-49.887179C81.394872 152.287179 283.569231 0 509.374359 0 761.435897 0 974.112821 178.54359 1013.497436 427.979487c2.625641 21.005128-10.502564 42.010256-31.507692 44.635898h-5.251282z" /></svg>