<?xml version="1.0" standalone="no"?><!DOCTYPE svg PUBLIC "-//W3C//DTD SVG 1.1//EN" "http://www.w3.org/Graphics/SVG/1.1/DTD/svg11.dtd"><svg class="icon" width="200px" height="200.00px" viewBox="0 0 1024 1024" version="1.1" xmlns="http://www.w3.org/2000/svg"><path fill="#333333" d="M776.373957 334.769231h181.169231l-27.569231 149.661538-169.353846-90.584615c-15.753846-7.876923-19.692308-27.569231-11.815385-43.323077 3.938462-7.876923 15.753846-15.753846 27.569231-15.753846zM256.497034 689.230769h-196.923077l27.569231-149.661538L268.312418 630.153846c15.753846 7.876923 23.630769 27.569231 15.753847 43.323077-3.938462 7.876923-15.753846 15.753846-27.569231 15.753846zM512.497034 1024C260.435495 1024 47.758572 846.769231 0.497034 602.584615c-3.938462-31.507692 15.753846-63.015385 51.2-70.892307 31.507692-3.938462 63.015385 15.753846 66.953846 47.261538 35.446154 189.046154 200.861538 322.953846 393.846154 322.953846 189.046154 0 346.584615-126.030769 389.907692-307.2 7.876923-31.507692 39.384615-51.2 70.892308-43.323077 31.507692 7.876923 51.2 39.384615 43.323077 70.892308C961.481649 858.584615 756.681649 1024 512.497034 1024z m452.923077-523.815385c-27.569231 0-55.138462-19.692308-59.076923-51.2C874.835495 256 709.420111 118.153846 512.497034 118.153846c-185.107692 0-350.523077 129.969231-389.907692 307.2-7.876923 31.507692-39.384615 51.2-70.892308 43.323077-31.507692-7.876923-51.2-39.384615-43.323077-70.892308C59.573957 169.353846 272.25088 0 512.497034 0c256 0 472.615385 181.169231 512 429.292308 3.938462 31.507692-15.753846 63.015385-47.261539 66.953846-3.938462 3.938462-7.876923 3.938462-11.815384 3.938461z" /></svg>