<svg xmlns="http://www.w3.org/2000/svg" viewBox="0 0 1024 1024"><path fill="undefined" d="M512.15 146.29a365.86 365.86 0 1 0 365.86 365.86 36.57 36.57 0 1 1 73.14 0 439 439 0 1 1-131.66-313.42l20.19-60.34a36.57 36.57 0 0 1 69.34 23.11l-40.23 120.69a36.57 36.57 0 0 1-63.93 10.45 365.28 365.28 0 0 0-292.71-146.35z m-142.63 135.38a36.57 36.57 0 0 1 51.2 7.32l91.43 122 91.42-122a36.57 36.57 0 1 1 58.52 43.88l-76.8 102.48h47.54a36.57 36.57 0 0 1 0 73.14h-84.11v47.54h84.11a36.57 36.57 0 1 1 0 73.14h-84.11v84.19a36.57 36.57 0 0 1-73.15 0v-84.11h-84.11a36.57 36.57 0 0 1 0-73.14h84.11v-47.62h-84.11a36.57 36.57 0 0 1 0-73.14h47.54l-76.8-102.4a36.57 36.57 0 0 1 7.32-51.2z"/></svg>