<svg xmlns="http://www.w3.org/2000/svg" viewBox="0 0 1024 1024"><path fill="#1A1A1A" d="M85.33 512c0 235.65 191.02 426.67 426.67 426.67 157.87 0 295.77-85.72 369.62-213.36a42.67 42.67 0 1 1 73.86 42.69c-88.47 152.96-253.91 256-443.48 256-282.77 0-512-229.23-512-512s229.23-512 512-512c282.45 0 511.51 228.76 512 511.1a42.45 42.45 0 0 1-7.34 24.84 42.67 42.67 0 0 1-55.21 13.82l-169.86-84.93a42.67 42.67 0 0 1 38.15-76.33l102.87 51.41c-34.26-201.28-209.54-354.58-420.61-354.58-235.65 0-426.67 191.02-426.67 426.67z"/></svg>