<svg xmlns="http://www.w3.org/2000/svg" viewBox="0 0 1024 1024"><path fill="undefined" d="M420.72 33.21a142.12 142.12 0 0 1 182.56 0l32.11 26.99a54.05 54.05 0 0 0 30.5 12.43l41.99 3.29a140.43 140.43 0 0 1 129.46 128.22l3.36 41.47a51.15 51.15 0 0 0 12.44 29.48l27.28 31.6c45.13 52.37 45.13 129.46 0 181.83l-27.35 31.67a51.42 51.42 0 0 0-12.44 29.48l-3.29 41.4a139.56 139.56 0 0 1-68.1 108.76v238.15c0 61.59-62.54 102.03-118.49 79.88l-138.75-54.71-138.68 54.71c-56.03 22.16-118.49-18.29-118.49-79.88v-238.15a139.56 139.56 0 0 1-68.17-108.76l-3.36-41.4a51.42 51.42 0 0 0-12.44-29.48l-27.28-31.67a138.9 138.9 0 0 1 0-181.83l27.35-31.6a51.42 51.42 0 0 0 12.44-29.48l3.29-41.47a140.43 140.43 0 0 1 129.46-128.22l41.99-3.29a54.05 54.05 0 0 0 30.5-12.43l32.11-26.99z m-78.19 688.2v214.31l137.51-54.35c20.48-8.05 43.37-8.05 63.92 0l137.51 54.27v-214.31l-15.58 1.25a53.98 53.98 0 0 0-30.5 12.43l-32.11 27.07a142.12 142.12 0 0 1-182.56 0l-32.11-27.07a53.98 53.98 0 0 0-30.5-12.43l-15.58-1.17z m204.29-620.98a54.35 54.35 0 0 0-69.64 0l-32.03 26.91c-22.67 19.02-50.69 30.5-80.17 32.77l-41.91 3.29a52.66 52.66 0 0 0-48.93 47.84l-3.37 41.47a139.19 139.19 0 0 1-33.42 79.72l-27.28 31.6a51.13 51.13 0 0 0 0 67.15l27.28 31.59c19.31 22.38 31.09 50.32 33.42 79.73l3.37 41.47a52.66 52.66 0 0 0 48.93 47.84l41.91 3.29c29.48 2.34 57.56 13.75 80.17 32.77l32.03 26.99c20.04 16.82 49.59 16.82 69.64 0l32.03-26.99c22.67-19.02 50.69-30.43 80.17-32.77l41.98-3.29a52.66 52.66 0 0 0 48.86-47.84l3.37-41.4c2.34-29.48 14.12-57.42 33.42-79.72l27.28-31.67a51.2 51.2 0 0 0 0-67.15l-27.28-31.6a139.26 139.26 0 0 1-33.42-79.72l-3.37-41.47a52.66 52.66 0 0 0-48.86-47.84l-41.98-3.22a141.82 141.82 0 0 1-80.17-32.77l-32.03-26.91z"/></svg>