<?xml version="1.0" standalone="no"?><!DOCTYPE svg PUBLIC "-//W3C//DTD SVG 1.1//EN" "http://www.w3.org/Graphics/SVG/1.1/DTD/svg11.dtd"><svg class="icon" width="200px" height="200.00px" viewBox="0 0 1024 1024" version="1.1" xmlns="http://www.w3.org/2000/svg"><path fill="#333333" d="M381.261768 1005.56588c-16.132073 21.509431-45.70754 24.198109-67.216971 8.066037-21.509431-16.132073-24.198109-45.70754-8.066036-67.216971 107.547153-139.811299 212.405627-279.622598 319.95278-416.745218 8.066036-10.754715 8.066036-24.198109 0-34.952824C518.384388 354.905605 413.525914 215.094306 305.978761 77.971686 289.846688 56.462255 295.224045 26.886788 314.044797 10.754715c21.509431-16.132073 51.084898-10.754715 67.216971 8.066037C488.808921 161.320729 593.667395 301.132028 701.214548 438.254648c34.952825 43.018861 34.952825 104.858474 0 150.566014-107.547153 139.811299-212.405627 279.622598-319.95278 416.745218" /></svg>