<?xml version="1.0" standalone="no"?><!DOCTYPE svg PUBLIC "-//W3C//DTD SVG 1.1//EN" "http://www.w3.org/Graphics/SVG/1.1/DTD/svg11.dtd"><svg class="icon" width="200px" height="184.01px" viewBox="0 0 1113 1024" version="1.1" xmlns="http://www.w3.org/2000/svg"><path fill="#333333" d="M1113.6 349.866667h-128c0-119.466667-98.133333-217.6-217.6-217.6-55.466667 0-106.666667 21.333333-149.333333 59.733333l-4.266667 4.266667c-34.133333 34.133333-85.333333 34.133333-119.466667 0-42.666667-42.666667-93.866667-64-149.333333-64-119.466667 0-217.6 98.133333-217.6 217.6h-128C0 157.866667 153.6 4.266667 345.6 4.266667c76.8 0 149.333333 25.6 209.066667 72.533333C614.4 29.866667 686.933333 4.266667 763.733333 4.266667 960 4.266667 1113.6 157.866667 1113.6 349.866667zM588.8 102.4zM93.866667 631.466667c-4.266667-4.266667-8.533333-12.8-12.8-17.066667C29.866667 537.6 4.266667 443.733333 4.266667 354.133333h128c0 68.266667 21.333333 136.533333 55.466666 192 4.266667 0 4.266667 4.266667 8.533334 8.533334l-102.4 76.8z m934.4-8.533334l-106.666667-72.533333c38.4-59.733333 64-128 64-200.533333h128c0 98.133333-29.866667 192-85.333333 273.066666z"  /><path fill="#333333" d="M558.933333 989.866667c-12.8 0-29.866667-4.266667-42.666666-8.533334-4.266667-4.266667-8.533333-4.266667-12.8-4.266666-170.666667-76.8-311.466667-200.533333-418.133334-354.133334L192 554.666667c89.6 136.533333 217.6 243.2 362.666667 307.2l4.266666-4.266667c145.066667-68.266667 273.066667-174.933333 362.666667-307.2l106.666667 72.533333c-102.4 153.6-247.466667 277.333333-418.133334 354.133334l-8.533333 4.266666c-12.8 8.533333-29.866667 8.533333-42.666667 8.533334z m-8.533333-123.733334z m17.066667 0z"  /></svg>