<?xml version="1.0" standalone="no"?><!DOCTYPE svg PUBLIC "-//W3C//DTD SVG 1.1//EN" "http://www.w3.org/Graphics/SVG/1.1/DTD/svg11.dtd"><svg class="icon" width="200px" height="200.00px" viewBox="0 0 1024 1024" version="1.1" xmlns="http://www.w3.org/2000/svg"><path fill="#333333" d="M307.2 468.114286h-146.285714c-87.771429 0-160.914286-73.142857-160.914286-160.914286v-146.285714C0 73.142857 73.142857 0 160.914286 0h146.285714c87.771429 0 160.914286 73.142857 160.914286 160.914286v146.285714c0 87.771429-73.142857 160.914286-160.914286 160.914286z m-146.285714-380.342857C119.954286 87.771429 87.771429 119.954286 87.771429 160.914286v146.285714C87.771429 348.16 119.954286 380.342857 160.914286 380.342857h146.285714c40.96 0 73.142857-32.182857 73.142857-73.142857v-146.285714C380.342857 119.954286 348.16 87.771429 307.2 87.771429h-146.285714zM863.085714 468.114286h-146.285714c-87.771429 0-160.914286-73.142857-160.914286-160.914286v-146.285714c0-87.771429 73.142857-160.914286 160.914286-160.914286h146.285714c87.771429 0 160.914286 73.142857 160.914286 160.914286v146.285714c0 87.771429-73.142857 160.914286-160.914286 160.914286z m-146.285714-380.342857C675.84 87.771429 643.657143 119.954286 643.657143 160.914286v146.285714c0 40.96 32.182857 73.142857 73.142857 73.142857h146.285714c40.96 0 73.142857-32.182857 73.142857-73.142857v-146.285714C936.228571 119.954286 904.045714 87.771429 863.085714 87.771429h-146.285714zM307.2 1024h-146.285714c-87.771429 0-160.914286-73.142857-160.914286-160.914286v-146.285714c0-87.771429 73.142857-160.914286 160.914286-160.914286h146.285714c87.771429 0 160.914286 73.142857 160.914286 160.914286v146.285714c0 87.771429-73.142857 160.914286-160.914286 160.914286z m-146.285714-380.342857C119.954286 643.657143 87.771429 675.84 87.771429 716.8v146.285714C87.771429 904.045714 119.954286 936.228571 160.914286 936.228571h146.285714c40.96 0 73.142857-32.182857 73.142857-73.142857v-146.285714c0-40.96-32.182857-73.142857-73.142857-73.142857h-146.285714zM204.8 175.542857h58.514286c17.554286 0 29.257143 11.702857 29.257143 29.257143v58.514286c0 17.554286-11.702857 29.257143-29.257143 29.257143H204.8c-17.554286 0-29.257143-11.702857-29.257143-29.257143V204.8c0-17.554286 11.702857-29.257143 29.257143-29.257143zM687.542857 1009.371429c-23.405714 0-43.885714-20.48-43.885714-43.885715V643.657143c0-23.405714 20.48-43.885714 43.885714-43.885714s43.885714 20.48 43.885714 43.885714v321.828571c0 23.405714-20.48 43.885714-43.885714 43.885715zM921.6 1009.371429c-23.405714 0-43.885714-20.48-43.885714-43.885715V643.657143c0-23.405714 20.48-43.885714 43.885714-43.885714s43.885714 20.48 43.885714 43.885714v321.828571c0 23.405714-20.48 43.885714-43.885714 43.885715z" /></svg>