<svg xmlns="http://www.w3.org/2000/svg" viewBox="0 0 1024 1024"><path fill="#1A1A1A" d="M682.67 896a42.67 42.67 0 1 0 0 85.33h170.66a128 128 0 0 0 128-128v-170.66a42.67 42.67 0 1 0-85.33 0v170.66a42.67 42.67 0 0 1-42.67 42.67h-170.66z m-554.67-213.33a42.67 42.67 0 1 0-85.33 0v170.66a128 128 0 0 0 128 128h170.66a42.67 42.67 0 1 0 0-85.33h-170.66a42.67 42.67 0 0 1-42.67-42.67v-170.66z m213.33-554.67a42.67 42.67 0 1 0 0-85.33h-170.66a128 128 0 0 0-128 128v170.66a42.67 42.67 0 1 0 85.33 0v-170.66a42.67 42.67 0 0 1 42.67-42.67h170.66z m341.34 0a42.67 42.67 0 1 1 0-85.33h170.66a128 128 0 0 1 128 128v170.66a42.67 42.67 0 1 1-85.33 0v-170.66a42.67 42.67 0 0 0-42.67-42.67h-170.66z m0 341.33v85.34h-341.34v-85.34h341.34z"/></svg>