<?xml version="1.0" standalone="no"?><!DOCTYPE svg PUBLIC "-//W3C//DTD SVG 1.1//EN" "http://www.w3.org/Graphics/SVG/1.1/DTD/svg11.dtd"><svg class="icon" width="200px" height="189.81px" viewBox="0 0 1079 1024" version="1.1" xmlns="http://www.w3.org/2000/svg"><path fill="#333333" d="M802.594595 1024H276.756757c-121.772973 0-221.405405-99.632432-221.405406-221.405405v-69.18919c0-22.140541 19.372973-41.513514 41.513514-41.513513s41.513514 19.372973 41.513513 41.513513V802.594595c0 77.491892 60.886486 138.378378 138.378379 138.378378h525.837838c77.491892 0 138.378378-60.886486 138.378378-138.378378v-66.421622c0-22.140541 19.372973-41.513514 41.513513-41.513514s41.513514 19.372973 41.513514 41.513514V802.594595c0 121.772973-99.632432 221.405405-221.405405 221.405405zM96.864865 332.108108c-22.140541 0-41.513514-16.605405-41.513514-41.513513V221.405405c0-121.772973 99.632432-221.405405 221.405406-221.405405h525.837838c121.772973 0 221.405405 99.632432 221.405405 221.405405v69.18919c0 22.140541-19.372973 41.513514-41.513514 41.513513s-41.513514-16.605405-41.513513-41.513513V221.405405c0-77.491892-60.886486-138.378378-138.378378-138.378378H276.756757C199.264865 83.027027 138.378378 143.913514 138.378378 221.405405v69.18919c0 24.908108-19.372973 41.513514-41.513513 41.513513zM1037.837838 553.513514h-996.324324C19.372973 553.513514 0 534.140541 0 512S19.372973 470.486486 41.513514 470.486486h996.324324c22.140541 0 41.513514 19.372973 41.513513 41.513514s-19.372973 41.513514-41.513513 41.513514z" /></svg>