<?xml version="1.0" standalone="no"?><!DOCTYPE svg PUBLIC "-//W3C//DTD SVG 1.1//EN" "http://www.w3.org/Graphics/SVG/1.1/DTD/svg11.dtd"><svg class="icon" width="200px" height="200.00px" viewBox="0 0 1024 1024" version="1.1" xmlns="http://www.w3.org/2000/svg"><path fill="#333333" d="M257.471106 275.980095a56.883643 56.883643 0 1 1-59.784709-96.702193C287.505669 123.645699 377.324942 68.354798 467.201097 12.722596a85.325464 85.325464 0 0 1 89.648622 0l269.457816 166.441539a56.883643 56.883643 0 1 1-59.784708 96.759077L511.968524 118.81059 257.471106 275.980095M257.471106 748.114332a56.883643 56.883643 0 1 0-59.784709 96.702193l269.5147 166.441539a85.325464 85.325464 0 0 0 89.648622 0l269.457816-166.441539a56.883643 56.883643 0 1 0-59.784708-96.702193L511.968524 905.17007c-84.870395-52.332952-169.683907-104.77967-254.554302-157.169506" /></svg>