<?xml version="1.0" standalone="no"?><!DOCTYPE svg PUBLIC "-//W3C//DTD SVG 1.1//EN" "http://www.w3.org/Graphics/SVG/1.1/DTD/svg11.dtd"><svg class="icon" width="200px" height="200.00px" viewBox="0 0 1024 1024" version="1.1" xmlns="http://www.w3.org/2000/svg"><path fill="#333333" d="M512 1024C228.430769 1024 0 795.569231 0 512S228.430769 0 512 0 1024 228.430769 1024 512 795.569231 1024 512 1024z m0-945.230769C273.066667 78.769231 78.769231 273.066667 78.769231 512S273.066667 945.230769 512 945.230769 945.230769 750.933333 945.230769 512 750.933333 78.769231 512 78.769231zM984.615385 1024c-10.502564 0-21.005128-2.625641-28.882052-10.502564l-131.282051-131.282051c-15.753846-15.753846-15.753846-39.384615 0-55.138462s39.384615-15.753846 55.138462 0l131.282051 131.282051c15.753846 15.753846 15.753846 39.384615 0 55.138462-5.251282 7.876923-15.753846 10.502564-26.25641 10.502564z" /></svg>