<?xml version="1.0" standalone="no"?><!DOCTYPE svg PUBLIC "-//W3C//DTD SVG 1.1//EN" "http://www.w3.org/Graphics/SVG/1.1/DTD/svg11.dtd"><svg class="icon" width="200px" height="200.00px" viewBox="0 0 1024 1024" version="1.1" xmlns="http://www.w3.org/2000/svg"><path fill="#333333" d="M512 1024C231.131429 1024 0 792.868571 0 512S231.131429 0 512 0 1024 231.131429 1024 512 792.868571 1024 512 1024z m0-936.228571C277.942857 87.771429 87.771429 277.942857 87.771429 512S277.942857 936.228571 512 936.228571 936.228571 746.057143 936.228571 512 746.057143 87.771429 512 87.771429zM980.114286 1024c-11.702857 0-23.405714-2.925714-32.182857-11.702857l-117.028572-117.028572c-17.554286-17.554286-17.554286-43.885714 0-61.44s43.885714-17.554286 61.44 0l117.028572 117.028572c17.554286 17.554286 17.554286 43.885714 0 61.44-5.851429 8.777143-17.554286 11.702857-29.257143 11.702857z" /></svg>