<?xml version="1.0" standalone="no"?><!DOCTYPE svg PUBLIC "-//W3C//DTD SVG 1.1//EN" "http://www.w3.org/Graphics/SVG/1.1/DTD/svg11.dtd"><svg class="icon" width="200px" height="200.00px" viewBox="0 0 1024 1024" version="1.1" xmlns="http://www.w3.org/2000/svg"><path fill="#333333" d="M1024 657.723077h-118.153846v-126.030769C905.846154 303.261538 728.615385 118.153846 512 118.153846S118.153846 303.261538 118.153846 531.692308v126.030769H0v-126.030769C0 236.307692 228.430769 0 512 0s512 236.307692 512 531.692308v126.030769zM196.923077 866.461538c-110.276923 0-196.923077-86.646154-196.923077-196.923076s86.646154-196.923077 196.923077-196.923077 196.923077 86.646154 196.923077 196.923077-86.646154 196.923077-196.923077 196.923076z m0-275.692307c-43.323077 0-78.769231 35.446154-78.769231 78.769231s35.446154 78.769231 78.769231 78.76923 78.769231-35.446154 78.769231-78.76923-35.446154-78.769231-78.769231-78.769231zM827.076923 866.461538c-110.276923 0-196.923077-86.646154-196.923077-196.923076s86.646154-196.923077 196.923077-196.923077 196.923077 86.646154 196.923077 196.923077-86.646154 196.923077-196.923077 196.923076z m0-275.692307c-43.323077 0-78.769231 35.446154-78.769231 78.769231s35.446154 78.769231 78.769231 78.76923 78.769231-35.446154 78.769231-78.76923-35.446154-78.769231-78.769231-78.769231zM677.415385 1020.061538c-23.630769 0-47.261538-15.753846-55.138462-43.323076-7.876923-31.507692 7.876923-63.015385 39.384615-74.83077 102.4-31.507692 189.046154-102.4 236.307693-196.923077 15.753846-27.569231 51.2-39.384615 78.769231-23.630769s39.384615 51.2 23.630769 78.769231c-63.015385 122.092308-177.230769 216.615385-307.2 256-3.938462 3.938462-11.815385 3.938462-15.753846 3.938461z" /></svg>