<svg xmlns="http://www.w3.org/2000/svg" viewBox="0 0 1024 1024"><path fill="#333" d="M1024 657.72h-118.15v-126.03c0-228.43-177.23-413.54-393.85-413.54s-393.85 185.11-393.85 413.54v126.03h-118.15v-126.03c0-295.39 228.43-531.69 512-531.69s512 236.31 512 531.69v126.03z m-827.08 208.74c-110.28 0-196.92-86.65-196.92-196.92s86.65-196.92 196.92-196.93 196.92 86.65 196.93 196.93-86.65 196.92-196.93 196.92z m0-275.69c-43.32 0-78.77 35.45-78.77 78.77s35.45 78.77 78.77 78.77 78.77-35.45 78.77-78.77-35.45-78.77-78.77-78.77z m630.16 275.69c-110.28 0-196.92-86.65-196.93-196.92s86.65-196.92 196.93-196.93 196.92 86.65 196.92 196.93-86.65 196.92-196.92 196.92z m0-275.69c-43.32 0-78.77 35.45-78.77 78.77s35.45 78.77 78.77 78.77 78.77-35.45 78.77-78.77-35.45-78.77-78.77-78.77z m-149.66 429.29c-23.63 0-47.26-15.75-55.14-43.32-7.88-31.51 7.88-63.02 39.38-74.83 102.4-31.51 189.05-102.4 236.31-196.93 15.75-27.57 51.2-39.38 78.77-23.63s39.38 51.2 23.63 78.77c-63.02 122.09-177.23 216.61-307.2 256-3.94 3.94-11.81 3.94-15.75 3.94z"/></svg>