<svg xmlns="http://www.w3.org/2000/svg" viewBox="0 0 1024 1024"><path fill="#1A1A1A" d="M725.33 512c0 117.82-95.51 213.33-213.33 213.33s-213.33-95.51-213.33-213.33 95.51-213.33 213.33-213.33 213.33 95.51 213.33 213.33z m-85.33 0a128 128 0 1 0-256 0 128 128 0 0 0 256 0z"/><path fill="#1A1A1A" d="M134.7 711.4a128.04 128.04 0 0 0 177.92 177.92c23.32 12.33 47.94 22.61 73.6 30.51a128.04 128.04 0 0 0 251.56 0 424 424 0 0 0 73.62-30.53 128.04 128.04 0 0 0 177.92-177.92 424.17 424.17 0 0 0 30.51-73.6 128.04 128.04 0 0 0 0-251.56 424.13 424.13 0 0 0-30.51-73.6 128.04 128.04 0 0 0-177.92-177.92 424.02 424.02 0 0 0-73.6-30.51 128.04 128.04 0 0 0-251.58 0 420.45 420.45 0 0 0-73.6 30.51 128.04 128.04 0 0 0-177.92 177.9 424 424 0 0 0-30.51 73.6 128.04 128.04 0 0 0 0 251.58 421.29 421.29 0 0 0 30.51 73.62z m276.63-525.67l49.21-15.15 9.54-50.62a42.71 42.71 0 0 1 83.84 0l9.54 50.6 49.21 15.17a339.29 339.29 0 0 1 58.8 24.38l45.54 24.11 42.56-29.08a42.71 42.71 0 0 1 59.29 59.31l-29.08 42.54 24.11 45.54a339.81 339.81 0 0 1 24.38 58.8l15.15 49.21 50.62 9.54a42.71 42.71 0 0 1 0 83.84l-50.6 9.54-15.17 49.21a338.77 338.77 0 0 1-24.38 58.8l-24.11 45.54 29.08 42.54a42.71 42.71 0 0 1-59.31 59.31l-42.54-29.1-45.54 24.13a338.83 338.83 0 0 1-58.8 24.38l-49.21 15.15-9.54 50.62a42.71 42.71 0 0 1-83.84 0l-9.54-50.6-49.21-15.17c-20.48-6.31-40.13-14.51-58.8-24.38l-45.54-24.11-42.54 29.08a42.71 42.71 0 0 1-59.31-59.31l29.1-42.54-24.13-45.54a338.71 338.71 0 0 1-24.38-58.8l-15.15-49.21-50.62-9.54a42.71 42.71 0 0 1 0-83.84l50.6-9.54 15.17-49.21c6.31-20.48 14.51-40.13 24.38-58.8l24.11-45.54-29.08-42.54a42.71 42.71 0 0 1 59.31-59.31l42.54 29.1 45.54-24.13a338.73 338.73 0 0 1 58.8-24.38z"/></svg>