<?xml version="1.0" standalone="no"?><!DOCTYPE svg PUBLIC "-//W3C//DTD SVG 1.1//EN" "http://www.w3.org/Graphics/SVG/1.1/DTD/svg11.dtd"><svg class="icon" width="200px" height="200.00px" viewBox="0 0 1024 1024" version="1.1" xmlns="http://www.w3.org/2000/svg"><path fill="#333333" d="M512 1021.305263c-24.252632 0-51.2-5.389474-75.452632-18.863158L126.652632 843.452632c-53.894737-26.947368-86.231579-83.536842-86.231579-142.821053V323.368421c0-61.978947 32.336842-115.873684 86.231579-142.821053L436.547368 21.557895c45.810526-24.252632 102.4-24.252632 148.210527 0l309.894737 158.989473c53.894737 26.947368 86.231579 83.536842 86.231579 142.821053v377.263158c0 61.978947-32.336842 115.873684-86.231579 142.821053l-309.894737 158.989473c-21.557895 13.473684-48.505263 18.863158-72.757895 18.863158z m0-937.768421c-13.473684 0-24.252632 2.694737-37.726316 8.084211L164.378947 250.610526C137.431579 264.084211 121.263158 293.726316 121.263158 323.368421v377.263158c0 29.642105 16.168421 56.589474 43.115789 72.757895l309.894737 158.989473c24.252632 10.778947 51.2 10.778947 75.452632 0l309.894737-158.989473c26.947368-13.473684 43.115789-40.421053 43.115789-72.757895V323.368421c0-29.642105-16.168421-56.589474-43.115789-72.757895L549.726316 91.621053c-13.473684-5.389474-24.252632-8.084211-37.726316-8.084211zM512 727.578947c-110.484211 0-202.105263-91.621053-202.105263-202.105263s91.621053-202.105263 202.105263-202.105263 202.105263 91.621053 202.105263 202.105263-91.621053 202.105263-202.105263 202.105263z m0-323.368421C444.631579 404.210526 390.736842 458.105263 390.736842 525.473684s53.894737 121.263158 121.263158 121.263158 121.263158-53.894737 121.263158-121.263158-53.894737-121.263158-121.263158-121.263158z" /></svg>