<?xml version="1.0" standalone="no"?><!DOCTYPE svg PUBLIC "-//W3C//DTD SVG 1.1//EN" "http://www.w3.org/Graphics/SVG/1.1/DTD/svg11.dtd"><svg class="icon" width="200px" height="187.89px" viewBox="0 0 1090 1024" version="1.1" xmlns="http://www.w3.org/2000/svg"><path fill="#333333" d="M744.727273 992.969697H279.272727c-155.151515 0-279.272727-124.121212-279.272727-279.272727V310.30303c0-155.151515 124.121212-279.272727 279.272727-279.272727h108.606061c24.824242 0 46.545455 21.721212 46.545454 46.545455S412.70303 124.121212 387.878788 124.121212H279.272727c-102.4 0-186.181818 83.781818-186.181818 186.181818v403.39394c0 102.4 83.781818 186.181818 186.181818 186.181818h465.454546c102.4 0 186.181818-83.781818 186.181818-186.181818V313.406061c0-24.824242 21.721212-46.545455 46.545454-46.545455s46.545455 21.721212 46.545455 46.545455V713.69697c0 155.151515-124.121212 279.272727-279.272727 279.272727z m170.666666-868.848485h-248.242424c-24.824242 0-46.545455-21.721212-46.545454-46.545454S642.327273 31.030303 667.151515 31.030303h248.242424c24.824242 0 46.545455 21.721212 46.545455 46.545455S940.218182 124.121212 915.393939 124.121212z"  /><path fill="#333333" d="M515.10303 620.606061h-9.309091c-24.824242-6.206061-40.339394-27.927273-37.236363-55.854546 43.442424-232.727273 201.69697-425.115152 428.218182-530.618182 24.824242-9.309091 49.648485 0 62.060606 21.721212 9.309091 24.824242 0 49.648485-21.721212 62.060607-201.69697 93.090909-338.230303 260.654545-378.569697 465.454545-3.10303 21.721212-21.721212 37.236364-43.442425 37.236364z"  /></svg>