<svg xmlns="http://www.w3.org/2000/svg" viewBox="0 0 1024 1024"><path fill="undefined" d="M668.89 393.65a43.89 43.89 0 0 1 4.17 61.88l-122.51 140a86.53 86.53 0 0 1-119.23 10.6l-74.75-59.83a43.89 43.89 0 0 1 54.86-68.6l73.87 59.17 121.64-139.12a43.89 43.89 0 0 1 61.95-4.1z"/><path fill="undefined" d="M564.66 100.21a116.15 116.15 0 0 0-104.59 0l-221.26 109.86c-47.69 23.7-80.97 78.19-77.75 139.48 7.75 149.43 31.09 252.34 74.9 335.87 43.74 83.38 110.08 151.7 211.53 228.43 39.42 29.84 90.33 29.84 129.61 0 101.6-77.02 167.42-145.92 210.72-229.45 43.52-83.82 66.49-186.29 74.9-334.05 3.58-61.81-29.77-116.81-77.82-140.72l-220.24-109.42z m-143.58-78.56a203.92 203.92 0 0 1 182.79 0l220.16 109.42c80.82 40.08 131.95 128.8 126.53 224.33-8.85 153.75-33.13 270.19-84.69 369.45-51.64 99.55-128.59 177.88-235.52 258.92a192.88 192.88 0 0 1-235.74 0c-106.42-80.46-184.03-158.06-236.26-257.53-52-99.33-76.65-216.28-84.84-372.16-4.9-94.94 46.23-182.78 126.46-222.57l221.04-109.86z"/></svg>