<svg xmlns="http://www.w3.org/2000/svg" viewBox="0 0 1024 1024"><path fill="undefined" d="M555.89 296.23a43.89 43.89 0 0 0-87.78 0v302.08a43.89 43.89 0 0 0 87.78 0v-302.08z m-43.89 386.41a42.64 42.64 0 1 0 0 85.36 42.64 42.64 0 0 0 0-85.36z"/><path fill="undefined" d="M602.55 56.32a216.06 216.06 0 0 0-180.3 0l-221.11 101.16c-79.58 36.5-132.83 118.27-127.63 209.26 8.12 144.31 32.91 253.22 85.58 345.67 52.59 92.38 130.56 164.06 236.83 238.3a202.97 202.97 0 0 0 232.96 0c106.79-74.75 184.17-147.09 236.25-239.62 52-92.45 76.43-200.7 85.29-343.04 5.71-91.5-47.54-174.23-127.64-210.94l-220.23-100.79z m-143.8 79.73a128.29 128.29 0 0 1 107.23 0l220.16 100.93a130.41 130.41 0 0 1 76.73 125.59c-8.48 135.61-31.23 229.16-74.24 305.44-42.93 76.29-108.4 139.7-210.07 210.73a115.2 115.2 0 0 1-132.39 0c-101.52-70.88-167.5-133.63-210.8-209.78-43.37-76.07-66.56-169.91-74.24-307.12a130.05 130.05 0 0 1 76.51-124.49l221.11-101.3z"/></svg>