<svg xmlns="http://www.w3.org/2000/svg" viewBox="0 0 1024 1024"><path fill="undefined" d="M719.73 721.33l11.04 11.56a44.03 44.03 0 0 0 63.78 0l11.05-11.56a31.38 31.38 0 0 1 46.59 0 41.25 41.25 0 0 1 0 55.74l-77.24 80.97a16.31 16.31 0 0 1-24.5 0l-77.24-80.97a41.25 41.25 0 0 1 0-55.74 31.45 31.45 0 0 1 46.52 0z m42.93-77.53a119.52 119.52 0 0 0-153.23 17.56 128.07 128.07 0 0 0 0 175.69l77.24 81.04a104.59 104.59 0 0 0 152.06 0l77.24-81.04a128.07 128.07 0 0 0 0-175.69 119.52 119.52 0 0 0-153.31-17.56z"/><path fill="undefined" d="M358.25 73.14c-105.69 0-194.27 78.63-211.23 183.59l-70.95 438.86c-21.36 132.1 77.46 255.27 211.24 255.27h251.75a43.89 43.89 0 1 0 0-87.77h-251.61c-76.65 0-137.95-71.68-124.71-153.53l70.95-438.86c10.46-64.37 63.93-109.79 124.64-109.79h307.49c60.71 0 114.18 45.42 124.56 109.79l48.13 297.77a43.89 43.89 0 0 0 86.67-13.97l-48.2-297.77c-16.97-104.96-105.55-183.59-211.23-183.59h-307.5z"/><path fill="undefined" d="M428.18 248.69a43.89 43.89 0 0 0-87.77 0v43.88c0 95.67 75.56 175.54 171.59 175.54 96.04 0 171.59-79.87 171.59-175.54v-43.88a43.89 43.89 0 0 0-87.77 0v43.88c0 49.74-38.77 87.77-83.82 87.77-45.06 0-83.82-38.03-83.82-87.77v-43.88z"/></svg>