<svg xmlns="http://www.w3.org/2000/svg" viewBox="0 0 1024 1024"><path fill="undefined" d="M147.02 256.73c16.97-104.96 105.55-183.59 211.23-183.59h307.5c105.69 0 194.27 78.63 211.23 183.59l48.13 297.69a43.89 43.89 0 1 1-86.67 14.05l-48.13-297.7c-10.39-64.37-63.85-109.86-124.56-109.86h-307.5c-60.71 0-114.18 45.42-124.63 109.79l-70.95 438.86c-13.17 81.92 48.05 153.53 124.64 153.53h251.75a43.89 43.89 0 1 1 0 87.77h-251.61c-133.85 0-232.67-123.17-211.38-255.27l70.95-438.86z"/><path fill="undefined" d="M384.29 204.8a43.89 43.89 0 0 1 43.89 43.89v43.88c0 49.74 38.77 87.77 83.82 87.77 45.06 0 83.82-38.03 83.82-87.77v-43.88a43.89 43.89 0 0 1 87.77 0v43.88c0 95.67-75.56 175.54-171.59 175.54-96.04 0-171.59-79.87-171.59-175.54v-43.88a43.89 43.89 0 0 1 43.88-43.89z m276.78 489.91a43.89 43.89 0 1 0 0 87.77h245.9a43.89 43.89 0 0 0 0-87.77h-245.76z"/></svg>