<?xml version="1.0" standalone="no"?><!DOCTYPE svg PUBLIC "-//W3C//DTD SVG 1.1//EN" "http://www.w3.org/Graphics/SVG/1.1/DTD/svg11.dtd"><svg class="icon" width="200px" height="200.00px" viewBox="0 0 1024 1024" version="1.1" xmlns="http://www.w3.org/2000/svg"><path fill="#333333" d="M512 658.285714c-58.514286 0-124.342857-25.6-175.542857-65.828571-21.942857-18.285714-25.6-54.857143-7.314286-76.8 18.285714-21.942857 54.857143-25.6 76.8-7.314286 32.914286 25.6 73.142857 43.885714 109.714286 43.885714s80.457143-14.628571 109.714286-40.228571c21.942857-18.285714 58.514286-18.285714 76.8 7.314286s18.285714 58.514286-7.314286 76.8c-51.2 36.571429-120.685714 62.171429-182.857143 62.171428zM815.542857 654.628571c-65.828571 0-135.314286-29.257143-186.514286-73.142857-21.942857-21.942857-21.942857-54.857143-3.657142-76.8 21.942857-21.942857 54.857143-21.942857 76.8-3.657143 36.571429 32.914286 87.771429 51.2 138.971428 40.228572 29.257143-7.314286 58.514286 14.628571 65.828572 43.885714 7.314286 29.257143-14.628571 58.514286-43.885715 65.828572-14.628571 3.657143-29.257143 3.657143-47.542857 3.657142zM204.8 654.628571c-14.628571 0-32.914286 0-47.542857-3.657142-29.257143-7.314286-51.2-32.914286-43.885714-65.828572 3.657143-29.257143 32.914286-51.2 62.171428-43.885714 51.2 10.971429 106.057143-10.971429 138.971429-43.885714 21.942857-21.942857 54.857143-21.942857 76.8 0 21.942857 21.942857 21.942857 54.857143 0 76.8-47.542857 51.2-117.028571 80.457143-186.514286 80.457142zM914.285714 493.714286l-51.2-230.4C848.457143 193.828571 786.285714 146.285714 709.485714 146.285714H318.171429C237.714286 146.285714 164.571429 201.142857 149.942857 270.628571l-43.885714 223.085715-106.057143-21.942857 43.885714-223.085715C65.828571 128 182.857143 36.571429 318.171429 36.571429h391.314285c128 0 234.057143 84.114286 263.314286 204.8l51.2 230.4-109.714286 21.942857zM168.228571 650.971429c-91.428571 0-168.228571-76.8-168.228571-168.228572 0-29.257143 25.6-54.857143 54.857143-54.857143s54.857143 25.6 54.857143 54.857143c0 32.914286 25.6 58.514286 58.514285 58.514286 29.257143 0 54.857143 25.6 54.857143 54.857143s-25.6 54.857143-54.857143 54.857143zM855.771429 650.971429c-29.257143 0-54.857143-25.6-54.857143-54.857143s25.6-54.857143 54.857143-54.857143c32.914286 0 58.514286-25.6 58.514285-58.514286 0-29.257143 25.6-54.857143 54.857143-54.857143s54.857143 25.6 54.857143 54.857143c0 91.428571-76.8 168.228571-168.228571 168.228572zM266.971429 987.428571C160.914286 987.428571 73.142857 899.657143 73.142857 793.6V585.142857h109.714286v208.457143C182.857143 841.142857 219.428571 877.714286 266.971429 877.714286h493.714285c47.542857 0 84.114286-36.571429 84.114286-84.114286V585.142857h109.714286v208.457143c0 106.057143-87.771429 193.828571-193.828572 193.828571H266.971429z" /></svg>