<svg xmlns="http://www.w3.org/2000/svg" viewBox="0 0 1024 1024"><path fill="undefined" d="M784.53 565.69c23.84 0 43.15 19.6 43.15 43.88v87.77h80.02c23.84 0 43.15 19.6 43.16 43.89 0 24.14-19.31 43.89-43.16 43.89h-80.02v87.77c0 24.14-19.31 43.89-43.15 43.88a43.52 43.52 0 0 1-43.15-43.88v-87.77h-79.95a43.52 43.52 0 0 1-43.15-43.89c0-24.28 19.31-43.89 43.15-43.89h79.95v-87.77c0-24.28 19.31-43.89 43.15-43.88z"/><path fill="undefined" d="M358.25 73.14c-105.69 0-194.27 78.63-211.23 183.59l-70.95 438.86c-21.36 132.1 77.46 255.27 211.24 255.27h251.75a43.89 43.89 0 1 0 0-87.77h-251.61c-76.65 0-137.95-71.68-124.71-153.53l70.95-438.86c10.46-64.37 63.93-109.79 124.64-109.79h307.49c60.71 0 114.18 45.42 124.56 109.79l48.13 297.77a43.89 43.89 0 0 0 86.67-13.97l-48.2-297.77c-16.97-104.96-105.55-183.59-211.23-183.59h-307.5z"/><path fill="undefined" d="M428.18 248.69a43.89 43.89 0 0 0-87.77 0v43.88c0 95.67 75.56 175.54 171.59 175.54 96.04 0 171.59-79.87 171.59-175.54v-43.88a43.89 43.89 0 0 0-87.77 0v43.88c0 49.74-38.77 87.77-83.82 87.77-45.06 0-83.82-38.03-83.82-87.77v-43.88z"/></svg>