<svg xmlns="http://www.w3.org/2000/svg" viewBox="0 0 1024 1024"><path fill="#1A1A1A" d="M65.64 146.41a128 128 0 0 1 125.72-103.74h641.34a128 128 0 0 1 125.66 103.74l64.72 335.32c0.62 2.88 0.94 5.87 0.94 8.94v10.66h-0.3a184.09 184.09 0 0 1-42.39 107.31v244.69a128 128 0 0 1-128 128h-682.66a128 128 0 0 1-128-128v-244.69a184.09 184.09 0 0 1-42.37-107.31h-0.3v-10.66c0-3.07 0.32-6.06 0.94-8.94l64.7-335.32z m62.36 522.71v184.21a42.67 42.67 0 0 0 42.67 42.67h682.66a42.67 42.67 0 0 0 42.67-42.67v-184.21a211.9 211.9 0 0 1-74.67 13.55c-63.25 0-121.28-27.97-158.89-72.69a191.66 191.66 0 0 1-150.44 72.69 191.66 191.66 0 0 1-150.44-72.69c-37.61 44.71-95.64 72.68-158.89 72.69a211.9 211.9 0 0 1-74.67-13.55z m746.56-506.54a42.67 42.67 0 0 0-41.88-34.58h-641.34a42.67 42.67 0 0 0-41.9 34.58l-64.04 331.8c2.13 54.68 51.14 102.95 117.27 102.95 67.63 0 117.33-50.47 117.33-106.66a42.67 42.67 0 1 1 85.33 0 106.67 106.67 0 0 0 213.34 0 42.67 42.67 0 1 1 85.33 0c0 56.19 49.71 106.67 117.33 106.66 66.13 0 115.14-48.28 117.27-102.95l-64.04-331.82z"/></svg>