<svg xmlns="http://www.w3.org/2000/svg" viewBox="0 0 1024 1024"><path fill="undefined" d="M147.02 256.73c16.97-104.96 105.55-183.59 211.23-183.59h307.5c105.69 0 194.27 78.63 211.23 183.59l70.95 438.86c21.36 132.1-77.46 255.27-211.24 255.27h-449.38c-133.71 0-232.59-123.17-211.24-255.27l70.95-438.86z m211.23-95.82c-60.71 0-114.18 45.42-124.56 109.79l-70.95 438.86c-13.24 81.92 47.98 153.53 124.57 153.53h449.38c76.58 0 137.87-71.68 124.64-153.53l-70.95-438.86c-10.46-64.37-63.93-109.79-124.63-109.79h-307.5z m26.04 43.89a43.89 43.89 0 0 1 43.89 43.89v43.88c0 49.74 38.77 87.77 83.82 87.77 45.06 0 83.82-38.03 83.82-87.77v-43.88a43.89 43.89 0 0 1 87.77 0v43.88c0 95.67-75.56 175.54-171.59 175.54-96.04 0-171.59-79.87-171.59-175.54v-43.88a43.89 43.89 0 0 1 43.88-43.89z"/></svg>