<?xml version="1.0" standalone="no"?><!DOCTYPE svg PUBLIC "-//W3C//DTD SVG 1.1//EN" "http://www.w3.org/Graphics/SVG/1.1/DTD/svg11.dtd"><svg class="icon" width="200px" height="195.05px" viewBox="0 0 1050 1024" version="1.1" xmlns="http://www.w3.org/2000/svg"><path fill="#333333" d="M525.473684 635.957895c-64.673684 0-134.736842-24.252632-185.936842-64.673684-18.863158-13.473684-21.557895-40.421053-8.08421-56.589474 13.473684-18.863158 40.421053-21.557895 56.589473-8.084211 37.726316 29.642105 88.926316 48.505263 137.431579 48.505263 48.505263 0 102.4-18.863158 137.431579-45.810526 16.168421-13.473684 43.115789-10.778947 56.589474 5.389474 13.473684 16.168421 10.778947 43.115789-5.389474 56.589474-48.505263 40.421053-121.263158 64.673684-188.631579 64.673684zM878.484211 646.736842h-18.863158c-70.063158 0-150.905263-32.336842-199.410527-78.147368-16.168421-16.168421-16.168421-40.421053-2.694737-56.589474 16.168421-16.168421 40.421053-16.168421 56.589474-2.694737 35.031579 32.336842 97.010526 56.589474 145.51579 56.589474h21.557894c21.557895-2.694737 43.115789 13.473684 45.810527 35.031579s-13.473684 43.115789-35.031579 45.810526h-13.473684zM169.768421 646.736842h-13.473684c-21.557895-2.694737-37.726316-21.557895-35.031579-45.810526 2.694737-21.557895 21.557895-37.726316 45.810526-35.031579H188.631579c51.2 0 115.873684-24.252632 148.210526-56.589474 16.168421-16.168421 40.421053-16.168421 56.589474 0 16.168421 16.168421 16.168421 40.421053 0 56.589474-48.505263 48.505263-129.347368 78.147368-204.8 78.147368h-8.084211c-2.694737 2.694737-5.389474 2.694737-10.778947 2.694737zM970.105263 490.442105l-53.894737-261.389473C897.347368 142.821053 819.2 80.842105 732.968421 80.842105H326.063158C229.052632 80.842105 142.821053 148.210526 126.652632 234.442105L80.842105 487.747368l-80.842105-13.473684 45.810526-253.305263C70.063158 97.010526 191.326316 0 323.368421 0h406.905263c126.652632 0 237.136842 88.926316 264.084211 212.884211l53.894737 261.389473-78.147369 16.168421zM161.684211 646.736842c-86.231579 0-161.684211-75.452632-161.684211-167.073684 0-21.557895 18.863158-40.421053 40.421053-40.421053S80.842105 458.105263 80.842105 479.663158C80.842105 525.473684 118.568421 565.894737 161.684211 565.894737c21.557895 0 40.421053 18.863158 40.421052 40.421052S183.242105 646.736842 161.684211 646.736842zM889.263158 646.736842c-21.557895 0-40.421053-18.863158-40.421053-40.421053S867.705263 565.894737 889.263158 565.894737c45.810526 0 80.842105-35.031579 80.842105-80.842105 0-21.557895 18.863158-40.421053 40.421053-40.421053s40.421053 18.863158 40.421052 40.421053c0 88.926316-72.757895 161.684211-161.68421 161.68421zM781.473684 1024H269.473684c-105.094737 0-188.631579-83.536842-188.631579-188.631579v-242.526316h80.842106v242.526316c0 59.284211 48.505263 107.789474 107.789473 107.789474h512c59.284211 0 107.789474-48.505263 107.789474-107.789474v-256h80.842105V835.368421c0 105.094737-83.536842 188.631579-188.631579 188.631579z" /></svg>