<svg xmlns="http://www.w3.org/2000/svg" viewBox="0 0 1024 1024"><path fill="undefined" d="M695.88 219.43a43.89 43.89 0 0 1 43.89 43.88v398.71l64.66-58.3a43.89 43.89 0 1 1 58.8 65.24l-137.95 124.35a43.89 43.89 0 0 1-58.73 0l-137.95-124.35a43.89 43.89 0 1 1 58.74-65.24l64.66 58.3v-398.71a43.89 43.89 0 0 1 43.88-43.88z m-397.16 11.26a43.89 43.89 0 0 1 58.73 0l137.95 124.35a43.89 43.89 0 1 1-58.74 65.24l-64.66-58.3v398.71a43.89 43.89 0 1 1-87.77 0v-398.71l-64.66 58.3a43.89 43.89 0 0 1-58.8-65.24l137.95-124.35z"/></svg>