<?xml version="1.0" standalone="no"?><!DOCTYPE svg PUBLIC "-//W3C//DTD SVG 1.1//EN" "http://www.w3.org/Graphics/SVG/1.1/DTD/svg11.dtd"><svg class="icon" width="200px" height="189.45px" viewBox="0 0 1081 1024" version="1.1" xmlns="http://www.w3.org/2000/svg"><path fill="#333333" d="M1047.135289 361.244444L722.868622 312.888889 577.801956 22.755556c-2.844444-8.533333-11.377778-14.222222-19.911112-17.066667-19.911111-8.533333-45.511111-2.844444-54.044444 17.066667L358.779733 312.888889 34.513067 358.4c-8.533333 0-17.066667 5.688889-22.755556 11.377778-17.066667 17.066667-14.222222 42.666667 0 56.888889l233.244445 227.555555-54.044445 321.422222c-2.844444 8.533333 0 17.066667 2.844445 25.6 11.377778 19.911111 34.133333 28.444444 54.044444 17.066667l290.133333-150.755555 290.133334 150.755555c8.533333 2.844444 17.066667 5.688889 25.6 2.844445 22.755556-2.844444 36.977778-25.6 34.133333-45.511112L833.801956 654.222222l233.244444-227.555555c5.688889-5.688889 11.377778-14.222222 11.377778-22.755556 5.688889-19.911111-8.533333-39.822222-31.288889-42.666667z" /></svg>