<svg xmlns="http://www.w3.org/2000/svg" viewBox="0 0 1024 1024"><path fill="#1A1A1A" d="M634.67 272.3a191.81 191.81 0 0 0 107.09 77.57l181.55 51.3a20.71 20.71 0 0 1 10.88 32.81l-116.65 147.89a191.3 191.3 0 0 0-40.96 125.76l7.16 187.99a21.12 21.12 0 0 1-28.52 20.31l-177.11-64.9a192.11 192.11 0 0 0-132.18 0l-177.13 64.9a21.12 21.12 0 0 1-28.52-20.31l7.17-187.99a191.3 191.3 0 0 0-40.96-125.76l-116.63-147.89a20.71 20.71 0 0 1 10.88-32.81l181.54-51.3a191.81 191.81 0 0 0 107.05-77.57l105.03-156.29a21.33 21.33 0 0 1 35.28 0l105.03 156.29z m-34.2-203.88c-42.18-62.78-134.76-62.78-176.94 0l-105.02 156.28a106.47 106.47 0 0 1-59.44 43.05l-181.54 51.29c-72.92 20.61-101.53 108.37-54.68 167.79l116.63 147.88a105.96 105.96 0 0 1 22.7 69.65l-7.17 187.99c-2.88 75.52 72.02 129.75 143.14 103.68l177.11-64.87a106.79 106.79 0 0 1 73.48 0l177.11 64.89c71.13 26.05 146.03-28.2 143.14-103.68l-7.17-188.01a105.94 105.94 0 0 1 22.7-69.65l116.63-147.88c46.85-59.39 18.24-147.2-54.68-167.79l-181.54-51.29a106.47 106.47 0 0 1-59.44-43.05l-105.02-156.28z"/></svg>