<?xml version="1.0" standalone="no"?><!DOCTYPE svg PUBLIC "-//W3C//DTD SVG 1.1//EN" "http://www.w3.org/Graphics/SVG/1.1/DTD/svg11.dtd"><svg class="icon" width="200px" height="200.00px" viewBox="0 0 1024 1024" version="1.1" xmlns="http://www.w3.org/2000/svg"><path fill="#333333" d="M280.598055 1008.246154c-19.692308 0-39.384615-3.938462-59.076923-11.815385-31.507692-15.753846-59.076923-43.323077-70.892307-78.769231-3.938462-15.753846-7.876923-31.507692-7.876923-51.2l3.938461-196.923076-118.153846-153.6c-23.630769-27.569231-31.507692-66.953846-27.569231-102.4s23.630769-70.892308 51.2-90.584616c11.815385-11.815385 27.569231-19.692308 43.323077-23.630769l189.046154-55.138462L394.81344 82.707692c43.323077-63.015385 129.969231-78.769231 192.984615-35.446154 15.753846 7.876923 27.569231 23.630769 35.446154 35.446154l110.276923 161.476923 189.046154 55.138462c35.446154 11.815385 63.015385 35.446154 82.707692 66.953846 15.753846 31.507692 19.692308 70.892308 11.815385 106.338462-3.938462 15.753846-11.815385 31.507692-23.630769 43.323077l-118.153846 153.6 3.938461 196.923076c0 35.446154-11.815385 70.892308-39.384615 98.461539-23.630769 27.569231-59.076923 43.323077-94.523077 43.323077-15.753846 0-35.446154-3.938462-51.2-7.876923L512.967286 933.415385l-185.107692 66.953846c-15.753846 3.938462-31.507692 7.876923-47.261539 7.876923zM512.967286 137.846154c-7.876923 0-11.815385 3.938462-15.753846 7.876923l-118.153846 173.292308c-11.815385 15.753846-23.630769 27.569231-43.323077 31.507692l-200.861539 59.076923c-3.938462 0-3.938462 0-7.876923 3.938462s-7.876923 11.815385-7.876923 15.753846c0 3.938462 0 7.876923 3.938462 15.753846l126.030769 165.415384c11.815385 15.753846 15.753846 31.507692 15.753846 51.2L260.905748 866.461538v7.876924c3.938462 7.876923 7.876923 11.815385 11.815384 11.815384s7.876923 3.938462 15.753846 0l196.923077-70.892308c15.753846-7.876923 35.446154-7.876923 51.2 0l196.923077 70.892308h7.876923c7.876923 0 11.815385-3.938462 15.753847-7.876923 3.938462-3.938462 3.938462-7.876923 3.938461-15.753846l-3.938461-208.738462c0-19.692308 3.938462-35.446154 15.753846-51.2l129.96923-165.415384s3.938462-3.938462 3.938462-7.876923c3.938462-7.876923 0-11.815385 0-15.753846s-3.938462-7.876923-11.815385-7.876924l-200.861538-59.076923c-15.753846-3.938462-31.507692-15.753846-43.323077-31.507692l-118.153846-173.292308c0-3.938462-3.938462-3.938462-3.938462-3.938461-7.876923 3.938462-11.815385 0-15.753846 0zM158.505748 681.353846z m-7.876923-27.569231zM300.290363 240.246154z m425.353846 0z" /></svg>