<svg xmlns="http://www.w3.org/2000/svg" viewBox="0 0 1024 1024"><path fill="undefined" d="M117.76 223.82c31.67-88.87 110.3-150.67 201.29-150.68h385.83c90.99 0 169.55 61.81 201.36 150.68l30.72 85.79c9.8 27.65 19.38 64.07 9.87 101.67a187.98 187.98 0 0 1-74.67 109.13v275.9c0 109.2-89.09 154.4-198.44 154.4h-323.51c-109.42 0-198.44-45.13-198.44-154.4v-275.97a187.98 187.98 0 0 1-74.6-108.98c-9.58-37.67 0-74.09 9.87-101.75l30.72-85.79z m107.15 323.73v248.68c0 68.53 55.88 81.33 125.3 81.34h323.58c69.41 0 125.29-12.8 125.3-81.26v-248.69a160.91 160.91 0 0 1-17.41 0.88c-56.17 0-104.08-28.6-134.8-71.68-30.72 43.08-78.7 71.68-134.88 71.68s-104.08-28.6-134.8-71.68c-30.79 43.08-78.7 71.68-134.88 71.68-5.85 0-11.7-0.29-17.41-0.95z m188.86-186.44c0 67.07 47.69 114.32 98.23 114.32s98.3-47.18 98.3-114.25a36.57 36.57 0 0 1 73.15 0c0 67.07 47.76 114.25 98.23 114.25 42.13 0 81.7-32.04 94.35-81.99 3.95-15.8 0.73-34.89-7.97-59.18l-30.65-85.72c-22.82-63.85-76.43-102.25-132.46-102.25h-385.83c-56.1 0-109.71 38.4-132.53 102.18l-30.72 85.72c-8.63 24.28-11.85 43.37-7.83 59.17 12.65 49.96 52.15 81.99 94.28 82 50.47 0 98.3-47.18 98.31-114.25a36.57 36.57 0 0 1 73.14 0z m251.54 334.04a36.57 36.57 0 0 1-14.05 49.74c-49.52 27.79-92.89 44.84-139.11 44.98-46.23 0-89.82-16.82-139.49-44.98a36.57 36.57 0 0 1 35.99-63.64c45.64 25.75 75.85 35.47 103.35 35.48 27.57-0.07 57.78-9.95 103.5-35.55a36.57 36.57 0 0 1 49.73 13.97z"/></svg>