<?xml version="1.0" standalone="no"?><!DOCTYPE svg PUBLIC "-//W3C//DTD SVG 1.1//EN" "http://www.w3.org/Graphics/SVG/1.1/DTD/svg11.dtd"><svg class="icon" width="200px" height="200.00px" viewBox="0 0 1024 1024" version="1.1" xmlns="http://www.w3.org/2000/svg"><path fill="#333333" d="M762.311111 391.395556c-106.951111 75.093333-195.697778 161.564444-270.791111 268.515555-20.48 27.306667-61.44 27.306667-79.644444-2.275555-34.133333-52.337778-72.817778-91.022222-125.155556-125.155556-25.031111-15.928889-9.102222-54.613333 20.48-50.062222 56.888889 11.377778 100.124444 34.133333 143.36 72.817778 77.368889-93.297778 175.217778-166.115556 286.72-213.902223 27.306667-9.102222 50.062222 31.857778 25.031111 50.062223M512 1024C229.831111 1024 0 794.168889 0 512S229.831111 0 512 0 1024 229.831111 1024 512 794.168889 1024 512 1024z m0-955.733333C266.24 68.266667 68.266667 266.24 68.266667 512S266.24 955.733333 512 955.733333 955.733333 757.76 955.733333 512 757.76 68.266667 512 68.266667z" /></svg>