<svg xmlns="http://www.w3.org/2000/svg" viewBox="0 0 1024 1024"><path fill="undefined" d="M605.4 190.76c-53.25-39.79-133.56-39.79-186.8 0l-137.95 102.91c-30.79 23.04-46.59 54.86-46.59 86.45v366.74c0 58.66 56.76 116.22 139.99 116.23h275.9c83.24 0 140-57.56 139.99-116.3v-366.59c0-31.52-15.8-63.41-46.59-86.46l-137.95-102.98z m-239.32-70.37c84.41-62.98 207.43-62.98 291.84 0l137.95 102.99c50.69 37.74 81.85 94.79 81.84 156.74v366.74c0 118.13-107.89 204-227.76 204h-275.9c-119.88 0-227.77-85.87-227.76-204.07v-366.59c0-61.95 31.16-118.93 81.92-156.75l137.87-102.98z m145.92 226.01a41.47 41.47 0 1 0 0 82.95 41.47 41.47 0 0 0 0-82.87z m-129.24 41.48a129.24 129.24 0 1 1 258.41 0 129.24 129.24 0 0 1-258.41 0z"/></svg>