<svg xmlns="http://www.w3.org/2000/svg" viewBox="0 0 1024 1024"><path fill="undefined" d="M487.35 163.11l-68.02 194.34a44.03 44.03 0 0 1-2.05 5.05 123.76 123.76 0 0 1-57.93 56.9c0.51 2.56 0.73 5.19 0.73 7.9v435.79h374.42a35.62 35.62 0 0 0 34.16-25.38l92.6-358.99 0.36-1.32a36.35 36.35 0 0 0-18.36-42.42 35.55 35.55 0 0 0-15.94-3.73h-232.23a43.89 43.89 0 0 1-41.84-57.27l39.35-123.1a81.63 81.63 0 0 0-39.71-89.31 95.82 95.82 0 0 0-7.32-0.51 390 390 0 0 0-30.28 0.44c-9.51 0.44-19.02 1.02-27.94 1.61z m-215.04 699.98v-431.84h-75.56a35.62 35.62 0 0 0-35.76 36.06v359.72a36.21 36.21 0 0 0 35.84 36.06h75.55z m34.38-519.61a35.55 35.55 0 0 0 30.94-17.99l76.58-219.29c6.22-17.77 23.11-33.06 41.98-32.91h92.67c5.85 0.29 12.21 0.73 18.22 1.61 5.12 0.73 13.68 2.41 22.01 6.58a168.67 168.67 0 0 1 89.68 116.3 169.4 169.4 0 0 1-2.05 78.26l-21.58 67.44h172.18a123.32 123.32 0 0 1 121.56 101.67c3.36 18.65 2.41 37.89-2.78 56.1l-92.67 359.13-0.29 1.32a123.76 123.76 0 0 1-118.64 89.16h-537.82a123.39 123.39 0 0 1-123.54-123.83v-359.65a123.98 123.98 0 0 1 123.61-123.83h109.86z"/></svg>