<svg xmlns="http://www.w3.org/2000/svg" viewBox="0 0 1024 1024"><path fill="undefined" d="M536.65 861.11l68.02-194.41a43.89 43.89 0 0 1 2.05-4.98 123.76 123.76 0 0 1 57.93-56.9 44.18 44.18 0 0 1-0.73-7.97v-435.72h-374.42a35.62 35.62 0 0 0-34.16 25.38l-92.6 358.99-0.36 1.24a36.28 36.28 0 0 0 18.36 42.43 35.55 35.55 0 0 0 15.94 3.8h232.23a43.89 43.89 0 0 1 41.84 57.2l-39.35 123.17a81.63 81.63 0 0 0 39.71 89.23c1.68 0.29 4.02 0.44 7.32 0.59 8.19 0.29 18.65 0.07 30.28-0.44 9.51-0.44 19.02-1.02 27.94-1.61z m215.04-699.98v431.84h75.63a35.62 35.62 0 0 0 35.77-36.06v-359.72a36.21 36.21 0 0 0-35.84-36.06h-75.56z m-34.38 519.61a35.62 35.62 0 0 0-30.94 17.99l-76.58 219.21c-6.22 17.85-23.11 33.13-41.98 32.92h-92.67a167.5 167.5 0 0 1-18.22-1.54 73.87 73.87 0 0 1-22.01-6.58 168.67 168.67 0 0 1-89.68-116.3 169.4 169.4 0 0 1 2.05-78.26l21.58-67.44h-172.18a123.32 123.32 0 0 1-121.56-101.67 124.12 124.12 0 0 1 2.78-56.1l92.67-359.13 0.29-1.32a123.83 123.83 0 0 1 118.64-89.23h537.82a123.39 123.39 0 0 1 123.54 123.98v359.71a123.98 123.98 0 0 1-123.61 123.83h-109.79z"/></svg>