<?xml version="1.0" standalone="no"?><!DOCTYPE svg PUBLIC "-//W3C//DTD SVG 1.1//EN" "http://www.w3.org/Graphics/SVG/1.1/DTD/svg11.dtd"><svg class="icon" width="200px" height="200.00px" viewBox="0 0 1024 1024" version="1.1" xmlns="http://www.w3.org/2000/svg"><path fill="#333333" d="M512 1024C230.4 1024 0 793.6 0 512S230.4 0 512 0s512 230.4 512 512-230.4 512-512 512z m0-938.666667C277.333333 85.333333 85.333333 277.333333 85.333333 512s192 426.666667 426.666667 426.666667 426.666667-192 426.666667-426.666667S746.666667 85.333333 512 85.333333zM512 320m-64 0a64 64 0 1 0 128 0 64 64 0 1 0-128 0ZM430.933333 469.333333h51.2c12.8 0 21.333333 8.533333 21.333334 21.333334v8.533333c0 12.8-8.533333 21.333333-21.333334 21.333333h-51.2c-12.8 0-25.6-12.8-25.6-25.6s12.8-25.6 25.6-25.6zM482.133333 469.333333h42.666667c25.6 0 51.2 21.333333 51.2 51.2v8.533334l-38.4 226.133333c0 8.533333-8.533333 17.066667-21.333333 17.066667h-42.666667c-25.6 0-51.2-21.333333-51.2-51.2v-8.533334l38.4-226.133333c4.266667-8.533333 12.8-17.066667 21.333333-17.066667zM490.666667 721.066667h76.8c12.8 0 25.6 12.8 25.6 25.6s-12.8 25.6-25.6 25.6h-76.8c-12.8 0-21.333333-8.533333-21.333334-21.333334V738.133333c4.266667-12.8 12.8-17.066667 21.333334-17.066666z" /></svg>