<svg xmlns="http://www.w3.org/2000/svg" viewBox="0 0 1024 1024"><path fill="#1A1A1A" d="M530.65 456.17h-105.11l-21.34 55.85h74.39l-38.18 210.13a34.97 34.97 0 0 0 34.38 41.22h105.11l21.34-55.85h-74.39l38.18-210.13a34.92 34.92 0 0 0-34.38-41.22z m-18.65-72.17a64 64 0 1 0 0-128 64 64 0 0 0 0 128z"/><path fill="#1A1A1A" d="M512 1024c282.77 0 512-229.23 512-512s-229.23-512-512-512-512 229.23-512 512 229.23 512 512 512z m0-85.33c-235.65 0-426.67-191.02-426.67-426.67s191.02-426.67 426.67-426.67 426.67 191.02 426.67 426.67-191.02 426.67-426.67 426.67z"/></svg>