<svg xmlns="http://www.w3.org/2000/svg" viewBox="0 0 1024 1024"><path fill="#1A1A1A" d="M418.9 282.54l-72.36 45.23 88.49 141.56h-93.7v85.34h128v42.66h-128v85.34h128v85.33h85.34v-85.33h128v-85.34h-128v-42.66h128v-85.34h-93.7l88.49-141.56-72.36-45.23-93.1 148.95-93.1-148.95z"/><path fill="#1A1A1A" d="M1024 512c0 282.77-229.23 512-512 512s-512-229.23-512-512 229.23-512 512-512 512 229.23 512 512z m-85.33 0c0-235.65-191.02-426.67-426.67-426.67s-426.67 191.02-426.67 426.67 191.02 426.67 426.67 426.67 426.67-191.02 426.67-426.67z"/></svg>