<svg xmlns="http://www.w3.org/2000/svg" viewBox="0 0 1024 1024"><path fill="#1A1A1A" d="M320 128h-192a42.67 42.67 0 0 0-42.67 42.67v682.66a42.67 42.67 0 0 0 42.67 42.67h725.33a42.67 42.67 0 0 0 42.67-42.67h85.33a128 128 0 0 1-128 128h-725.33a128 128 0 0 1-128-128v-682.66a128 128 0 0 1 128-128h725.33a128 128 0 0 1 128 128v384h-85.33v-384a42.67 42.67 0 0 0-42.67-42.67h-192v324.07a10.67 10.67 0 0 1-15.44 9.54l-155.22-77.61-155.22 77.61a10.67 10.67 0 0 1-15.45-9.54v-324.07z m85.33 0v203.26l47.17-23.59a85.33 85.33 0 0 1 76.33 0l47.17 23.59v-203.26h-170.67z"/><path fill="#1A1A1A" d="M1024 725.33v85.34h-170.67v-85.34h170.67z m-256-128h170.67v85.34h-170.67v-85.34z"/></svg>