<svg xmlns="http://www.w3.org/2000/svg" viewBox="0 0 1024 1024"><path fill="#1A1A1A" d="M128 0a42.67 42.67 0 1 0 0 85.33h768a42.67 42.67 0 1 0 0-85.33h-768z m391.21 173.42a10.88 10.88 0 0 0-14.42 0l-501.18 446.25a10.71 10.71 0 0 0 7.21 18.67h241.34v257.11c0 71 58.05 128.55 129.64 128.55h260.4c71.59 0 129.64-57.56 129.64-128.55v-257.11h241.34a10.71 10.71 0 0 0 7.21-18.67l-501.18-446.25z m-180.61 722.03v-342.81h-130.39l303.79-270.49 303.77 270.49h-130.35v342.83c0 23.64-19.37 42.84-43.22 42.83h-260.4c-23.85 0-43.2-19.2-43.2-42.85z"/></svg>