<?xml version="1.0" standalone="no"?><!DOCTYPE svg PUBLIC "-//W3C//DTD SVG 1.1//EN" "http://www.w3.org/Graphics/SVG/1.1/DTD/svg11.dtd"><svg class="icon" width="200px" height="200.00px" viewBox="0 0 1024 1024" version="1.1" xmlns="http://www.w3.org/2000/svg"><path fill="#333333" d="M136.533333 540.444444c-11.377778 0-25.6-5.688889-34.133333-17.066666-14.222222-19.911111-11.377778-45.511111 8.533333-59.733334l366.933334-284.444444c19.911111-14.222222 45.511111-11.377778 59.733333 8.533333s11.377778 45.511111-8.533333 59.733334l-366.933334 284.444444c-5.688889 5.688889-14.222222 8.533333-25.6 8.533333zM881.777778 540.444444c-8.533333 0-17.066667-2.844444-25.6-8.533333l-366.933334-284.444444c-19.911111-14.222222-22.755556-42.666667-8.533333-59.733334 14.222222-19.911111 42.666667-22.755556 59.733333-8.533333l366.933334 284.444444c19.911111 14.222222 22.755556 42.666667 8.533333 59.733334-8.533333 11.377778-19.911111 17.066667-34.133333 17.066666zM512 1024c-22.755556 0-42.666667-19.911111-42.666667-42.666667v-768c0-22.755556 19.911111-42.666667 42.666667-42.666666s42.666667 19.911111 42.666667 42.666666v768c0 22.755556-19.911111 42.666667-42.666667 42.666667zM884.622222 85.333333H142.222222C119.466667 85.333333 99.555556 65.422222 99.555556 42.666667S119.466667 0 142.222222 0h742.4c22.755556 0 42.666667 19.911111 42.666667 42.666667S907.377778 85.333333 884.622222 85.333333z" /></svg>