<svg xmlns="http://www.w3.org/2000/svg" viewBox="0 0 1024 1024"><path fill="#1A1A1A" d="M384 170.67v-21.34a128 128 0 0 1 128-128h384a128 128 0 0 1 128 128v640a128 128 0 0 1-128 128h-31.96a138.71 138.71 0 0 1-256.08 0h-191.92a138.71 138.71 0 0 1-256.08 0h-31.96a128 128 0 0 1-128-128v-227.39a128 128 0 0 1 12.18-54.51l123.91-263.25a128 128 0 0 1 115.81-73.51h132.1z m128-64a42.67 42.67 0 0 0-42.67 42.66v234.67a42.67 42.67 0 0 0 42.67 42.67h426.67v-277.34a42.67 42.67 0 0 0-42.67-42.66h-384z m-128 149.33h-132.1a42.67 42.67 0 0 0-38.61 24.49l-58.75 124.84h144.13v85.34h-184.28l-25 53.12a42.67 42.67 0 0 0-4.06 18.15v227.39a42.67 42.67 0 0 0 42.67 42.67h25.05a138.73 138.73 0 0 1 269.9 0h178.1a138.73 138.73 0 0 1 269.9 0h25.05a42.67 42.67 0 0 0 42.67-42.67v-277.33h-426.67a128 128 0 0 1-128-128v-128z m-96 661.33a53.33 53.33 0 1 0 0-106.66 53.33 53.33 0 0 0 0 106.66z m448 0a53.33 53.33 0 1 0 0-106.66 53.33 53.33 0 0 0 0 106.66z"/></svg>