<svg xmlns="http://www.w3.org/2000/svg" viewBox="0 0 1024 1024"><path fill="undefined" d="M332.51 148.99a153.45 153.45 0 0 1 132.24-75.85h94.5c54.42 0 104.59 28.96 132.24 75.85l29.48 50.18h186a43.89 43.89 0 1 1 0 87.77h-789.94a43.89 43.89 0 0 1 0-87.77h186l29.48-50.18z m72.34 50.18h214.3l-3.36-5.71a65.68 65.68 0 0 0-56.54-32.55h-94.5a65.68 65.68 0 0 0-56.61 32.55l-3.29 5.71z m-214.68 120.9a43.89 43.89 0 0 1 43.89 43.89v432.42c0 37.16 29.77 66.71 65.83 66.71h424.22c36.06 0 65.83-29.55 65.83-66.71v-432.42a43.89 43.89 0 1 1 87.77 0v432.42a154.04 154.04 0 0 1-153.6 154.48h-424.22c-85.14 0-153.6-69.49-153.6-154.48v-432.42a43.89 43.89 0 0 1 43.88-43.89z m232.38 106.06a43.89 43.89 0 0 1 43.88 43.89v242.54a43.89 43.89 0 0 1-87.77 0v-242.62a43.89 43.89 0 0 1 43.89-43.88z m175.61 0a43.89 43.89 0 0 1 43.89 43.89v242.54a43.89 43.89 0 0 1-87.77 0v-242.62a43.89 43.89 0 0 1 43.88-43.88z"/></svg>