<svg xmlns="http://www.w3.org/2000/svg" viewBox="0 0 1024 1024"><path fill="undefined" d="M512 547.11a43.89 43.89 0 0 0-43.89 43.88v79a43.89 43.89 0 0 0 87.78 0v-79a43.89 43.89 0 0 0-43.89-43.88z"/><path fill="undefined" d="M410.4 218.33a117.54 117.54 0 0 1 101.6-57.42c65.39 0 117.03 51.86 117.03 114.11v35.11h-365.72a117.03 117.03 0 0 0-117.02 117.02v406.68a117.03 117.03 0 0 0 117.02 117.03h497.38a117.03 117.03 0 0 0 117.02-117.03v-406.68a117.03 117.03 0 0 0-117.02-117.02h-43.89v-35.11c0-112.27-92.45-201.87-204.8-201.88a205.31 205.31 0 0 0-177.23 100.57 43.89 43.89 0 0 0 75.63 44.62z m379.54 208.82v406.68a29.26 29.26 0 0 1-29.25 29.26h-497.38a29.26 29.26 0 0 1-29.25-29.26v-406.68a29.26 29.26 0 0 1 29.25-29.25h497.38a29.26 29.26 0 0 1 29.25 29.25z"/></svg>