<svg xmlns="http://www.w3.org/2000/svg" viewBox="0 0 1024 1024"><path fill="undefined" d="M192.29 877.71c-65.83 0-119.15-53.39-119.15-119.15v-152.5a43.89 43.89 0 1 1 87.77 0v152.5c0 17.33 14.04 31.38 31.38 31.38h639.42a31.38 31.38 0 0 0 31.38-31.38v-152.5a43.89 43.89 0 1 1 87.77 0v152.5c0 65.83-53.39 119.15-119.15 119.15h-639.34z m157.04-524.87a43.89 43.89 0 0 1 0-62.02l131.66-131.66a43.89 43.89 0 0 1 62.02 0l131.66 131.66a43.89 43.89 0 0 1-62.03 62.02l-56.75-56.61v274.28a43.89 43.89 0 0 1-87.78 0v-274.35l-56.75 56.68a43.89 43.89 0 0 1-62.03 0z"/></svg>