<svg xmlns="http://www.w3.org/2000/svg" viewBox="0 0 1024 1024"><path fill="#1A1A1A" d="M850.69 384c-20.99-168.38-164.61-298.67-338.69-298.67-174.08 0-317.7 130.28-338.69 298.67a344.7 344.7 0 0 0-2.64 42.67c0 188.52 152.83 341.33 341.33 341.33 7.17 0 14.29-0.21 21.33-0.64v85.44a424.85 424.85 0 0 1-216.06-46.4c-80.51 40.34-155.2 97.98-192.32 190.78a42.67 42.67 0 0 1-79.23-31.7c40.6-101.48 115.05-167.38 191.36-212.52-92.82-78.29-151.74-195.41-151.75-326.29 0-14.4 0.7-28.63 2.12-42.67 21.4-215.62 203.31-384 424.53-384 221.27 0 403.18 168.38 424.57 384 1.39 14.04 2.11 28.27 2.12 42.67 0 60.67-12.67 118.4-35.5 170.66h-95.51a339.75 339.75 0 0 0 45.67-170.66c0-14.44-0.9-28.69-2.64-42.67z"/><path fill="#1A1A1A" d="M354.5 574.83s-0.02-0.02 29.5-30.83c29.53-30.81 29.5-30.83 29.5-30.83l1.18 1.05c1.15 1 3.03 2.6 5.54 4.61 5.12 4.01 12.65 9.47 22.06 14.93 19.29 11.22 43.78 20.91 69.72 20.91 25.94 0 50.43-9.69 69.72-20.91a191.7 191.7 0 0 0 27.6-19.54 65.28 65.28 0 0 0 1.18-1.05s-0.02 0.02 29.5 30.83c29.53 30.81 29.5 30.83 29.5 30.83l-0.06 0.06-0.11 0.11-0.27 0.25-0.84 0.77a223.68 223.68 0 0 1-11.64 9.81c-7.59 5.99-18.47 13.87-32 21.72-26.62 15.47-66.13 32.45-112.58 32.45s-85.95-16.98-112.58-32.43a276.69 276.69 0 0 1-32-21.71 223.68 223.68 0 0 1-11.64-9.84l-0.56-0.51-0.25-0.26-0.3-0.25-0.11-0.11-0.04-0.06h-0.02z m256-61.66l0.08-0.08-0.04 0.04-0.02 0.04h-0.02z m178.83 169.5a42.67 42.67 0 0 1 42.67 42.66v85.34h85.33a42.67 42.67 0 1 1 0 85.33h-85.33v85.33a42.67 42.67 0 1 1-85.33 0v-85.33h-85.34a42.67 42.67 0 1 1 0-85.33h85.34v-85.34a42.67 42.67 0 0 1 42.66-42.66z"/></svg>