<svg xmlns="http://www.w3.org/2000/svg" viewBox="0 0 1024 1024"><path fill="#333" d="M511.86 804.3c-223.01 0-402.15-179.14-402.15-402.15s179.14-402.15 402.15-402.15 402.15 179.14 402.15 402.15-179.14 402.15-402.15 402.15z m0-694.62c-160.86 0-292.47 131.61-292.47 292.47s131.61 292.47 292.47 292.47 292.47-131.61 292.48-292.47-131.61-292.47-292.48-292.47z m237.64 913.97c-29.25 0-51.18-21.94-54.84-51.18-7.31-95.05-87.74-168.17-182.8-168.17s-175.48 73.12-182.79 168.17c-3.66 29.25-29.25 54.84-58.5 51.18-29.25 0-51.18-29.25-51.18-58.49 10.97-153.55 138.92-270.54 292.47-270.54s281.5 120.64 292.47 270.54c3.65 29.25-21.94 54.84-51.18 58.49h-3.65z m-237.64-475.27c-47.53 0-91.4-21.93-120.64-58.49-18.28-25.59-14.62-58.49 7.31-76.77 25.59-18.28 58.49-14.62 76.77 7.31s51.18 21.93 69.47 0 54.84-29.25 76.77-7.31c21.93 18.28 29.25 54.84 7.31 76.77-25.59 40.22-69.46 58.49-116.99 58.49z"/></svg>