<svg xmlns="http://www.w3.org/2000/svg" viewBox="0 0 1024 1024"><path fill="undefined" d="M-7.31 307.13v468.33c0 72.78 59.03 131.51 131.65 131.51h526.63a131.66 131.66 0 0 0 131.66-131.66v-49.59l57.2 34.01a117.03 117.03 0 0 0 176.86-100.57v-235.81a117.03 117.03 0 0 0-176.86-100.57l-57.2 34.01v-49.59c0-72.56-58.66-131.66-131.51-131.66h-526.78c-72.63 0-131.66 58.81-131.65 131.59z m702.17 0.07v468.11a43.89 43.89 0 0 1-43.89 43.89h-526.63a43.74 43.74 0 0 1-43.88-43.74v-468.33c0-24.14 19.6-43.81 43.88-43.82h526.78c24.14 0 43.74 19.53 43.74 43.89z m87.77 316.42v-164.65l102.03-60.71a29.26 29.26 0 0 1 44.25 25.09v235.81a29.26 29.26 0 0 1-44.25 25.16l-102.03-60.7z"/><path fill="undefined" d="M219.43 468.11a73.14 73.14 0 1 1 146.28 0 73.14 73.14 0 0 1-146.28 0z"/></svg>