<svg xmlns="http://www.w3.org/2000/svg" viewBox="0 0 1024 1024"><path fill="#333" d="M636.16 957.44l-70.8-70.81c107.59-92.06 176.03-228.59 176.03-381.32 0-145.5-62.28-276.12-161.18-367.77l70.98-70.98c117.01 109.83 190.51 265.48 190.51 438.61 0 180.44-79.78 341.91-205.53 452.27z"/><path fill="#333" d="M445.09 766.36l-72.94-72.93c66.28-36.64 111.19-107.17 111.19-188.26 0-73.61-37.05-138.52-93.47-177.29l71.62-71.61c74.23 57.71 122.19 147.62 122.19 248.9 0 108.66-54.96 204.45-138.59 261.19z m-191.12-175.17c-39.58 0-71.67-32.08-71.67-71.68 0-39.6 32.09-71.67 71.67-71.67 39.61 0 71.68 32.08 71.68 71.67s-32.07 71.67-71.68 71.68z"/></svg>