<svg xmlns="http://www.w3.org/2000/svg" viewBox="0 0 1024 1024"><path fill="undefined" d="M482.6 232.08l-155.8 148.12a42.57 42.57 0 0 1-29.25 11.7h-139.71v240.2h139.71c10.9 0 21.36 4.17 29.25 11.7l155.8 148.12v-559.84z m-56.62-62.61c53.17-50.47 141.39-13.17 141.39 59.91v565.24c0 73-88.21 110.45-141.39 59.91l-145.55-138.32h-123.68c-46.15 0-83.6-37.16-83.61-82.94v-242.54c0-45.79 37.38-82.94 83.53-82.94h123.83l145.56-138.24z m209.05 173.79a41.33 41.33 0 0 1 59.83-2.41 236.76 236.76 0 0 1 73.94 171.15c0 64.95-27.06 126.54-73.87 171.23a41.33 41.33 0 0 1-59.9-2.49 44.98 44.98 0 0 1 2.41-62.02c30.35-28.96 46.67-67.44 46.67-106.72s-16.31-77.75-46.67-106.72a44.98 44.98 0 0 1-2.41-62.02z"/><path fill="undefined" d="M758.93 158.13a41.33 41.33 0 0 1 59.9 2.05c84.85 93.77 132.02 220.38 132.03 351.82 0 131.44-47.25 258.05-132.03 351.82a41.33 41.33 0 0 1-59.9 2.05 44.98 44.98 0 0 1-1.9-62.03c69.49-76.95 109.13-181.91 109.13-291.84 0-109.93-39.5-214.89-109.13-291.84a44.98 44.98 0 0 1 1.9-62.03z"/></svg>