<svg xmlns="http://www.w3.org/2000/svg" viewBox="0 0 1024 1024"><path fill="undefined" d="M426.64 384a42.64 42.64 0 1 1-85.28 0 42.64 42.64 0 0 1 85.28 0z m256 256a42.64 42.64 0 1 1-85.28 0 42.64 42.64 0 0 1 85.28 0z m-11.63-287.01a43.89 43.89 0 0 1 0 62.02l-256 256a43.89 43.89 0 1 1-62.02-62.02l256-256a43.89 43.89 0 0 1 62.02 0z"/><path fill="undefined" d="M0 204.8a131.66 131.66 0 0 1 131.66-131.66h760.68a131.66 131.66 0 0 1 131.66 131.66v131.66c0 52.3-44.18 82.43-76.29 92.89-38.99 12.58-64.15 46.08-64.14 82.65 0 36.57 25.16 70.07 64.14 82.65 32.11 10.46 76.29 40.59 76.29 92.89v131.66a131.66 131.66 0 0 1-131.66 131.66h-760.68a131.66 131.66 0 0 1-131.66-131.66v-131.66c0-52.3 44.18-82.43 76.29-92.89 38.99-12.58 64.15-46.08 64.14-82.65 0-36.57-25.16-70.07-64.14-82.65-32.11-10.53-76.29-40.67-76.29-92.89v-131.66z m131.66-43.89a43.89 43.89 0 0 0-43.89 43.89v130.93a10.83 10.83 0 0 0 1.54 1.97 35.33 35.33 0 0 0 14.11 8.05c70.95 23.19 124.78 87.63 124.79 166.25s-53.76 143.14-124.79 166.18a35.33 35.33 0 0 0-14.11 8.12 10.75 10.75 0 0 0-1.54 1.9v131a43.89 43.89 0 0 0 43.89 43.89h760.68a43.89 43.89 0 0 0 43.89-43.89v-130.93a10.75 10.75 0 0 0-1.54-1.97 35.25 35.25 0 0 0-14.11-8.05c-70.95-23.19-124.78-87.63-124.79-166.25s53.76-143.14 124.79-166.18a35.25 35.25 0 0 0 14.11-8.12 10.83 10.83 0 0 0 1.54-1.9v-131a43.89 43.89 0 0 0-43.89-43.89h-760.68z"/></svg>