<svg xmlns="http://www.w3.org/2000/svg" viewBox="0 0 1024 1024"><path fill="#1A1A1A" d="M320 128h-192a42.67 42.67 0 0 0-42.67 42.67v682.66a42.67 42.67 0 0 0 42.67 42.67h288.06a362.9 362.9 0 0 0 54.08 85.33h-342.14a128 128 0 0 1-128-128v-682.66a128 128 0 0 1 128-128h725.33a128 128 0 0 1 128 128v299.47a362.9 362.9 0 0 0-85.33-54.08v-245.39a42.67 42.67 0 0 0-42.67-42.67h-192v298.67l-165.88-82.95a10.67 10.67 0 0 0-9.56 0l-165.89 82.95v-298.67z m85.33 0v160.6l42.41-21.21a96 96 0 0 1 85.85 0l42.41 21.21v-160.6h-170.67z"/><path fill="#1A1A1A" d="M704 640v134.91l99.58 88.92 56.84-63.66-71.09-63.47v-96.7h-85.33z"/><path fill="#1A1A1A" d="M746.67 1024c153.17 0 277.33-124.16 277.33-277.33s-124.16-277.33-277.33-277.34-277.33 124.16-277.34 277.34 124.16 277.33 277.34 277.33z m0-85.33a192 192 0 1 1 0-384 192 192 0 0 1 0 384z"/></svg>