<svg xmlns="http://www.w3.org/2000/svg" viewBox="0 0 1024 1024"><path fill="#1A1A1A" d="M768 533.33a85.33 85.33 0 1 1 0 170.67 85.33 85.33 0 0 1 0-170.67z"/><path fill="#1A1A1A" d="M1024 384a128 128 0 0 0-128-128v-85.33a128 128 0 0 0-128-128h-640a128 128 0 0 0-128 128v682.66a128 128 0 0 0 128 128h768a128 128 0 0 0 128-128v-469.33z m-896-256h640a42.67 42.67 0 0 1 42.67 42.67v85.33h-682.67a42.67 42.67 0 0 1-42.67-42.67v-42.66a42.67 42.67 0 0 1 42.67-42.67z m-42.67 206.06a127.79 127.79 0 0 0 42.67 7.27h768a42.67 42.67 0 0 1 42.67 42.67v469.33a42.67 42.67 0 0 1-42.67 42.67h-768a42.67 42.67 0 0 1-42.67-42.67v-519.27z"/></svg>