<svg xmlns="http://www.w3.org/2000/svg" viewBox="0 0 1024 1024"><path fill="undefined" d="M469.36 725.36a42.64 42.64 0 1 1 85.28 0 42.64 42.64 0 0 1-85.28 0z"/><path fill="undefined" d="M398.12 67.36a225.87 225.87 0 0 1 227.76 0l211.97 123.62a228.35 228.35 0 0 1 113.01 197.41v247.22a228.35 228.35 0 0 1-113.01 197.34l-211.97 123.61a225.87 225.87 0 0 1-227.76 0l-211.97-123.61a228.35 228.35 0 0 1-113.01-197.34v-247.22c0-80.97 42.72-156.38 113.01-197.34l211.97-123.61z m181.9 76.37a134.66 134.66 0 0 0-136.04 0l-211.97 123.61a140 140 0 0 0-68.83 121.05v247.22c0 50.47 26.55 96.4 68.83 121.05l211.97 123.61a134.66 134.66 0 0 0 136.04 0l211.97-123.61c42.28-24.65 68.83-70.66 68.83-121.05v-247.22c0-50.4-26.55-96.4-68.83-121.05l-211.97-123.61z"/><path fill="undefined" d="M512 254.76a43.89 43.89 0 0 1 43.89 43.88v298.72a43.89 43.89 0 1 1-87.78 0v-298.72a43.89 43.89 0 0 1 43.89-43.88z"/></svg>