<svg xmlns="http://www.w3.org/2000/svg" viewBox="0 0 1024 1024"><path fill="undefined" d="M292.57 512c0 24.21 20.11 43.89 44.91 43.89h349.04a44.4 44.4 0 0 0 44.91-43.89c0-24.21-20.11-43.89-44.91-43.89h-349.04a44.4 44.4 0 0 0-44.91 43.89z"/><path fill="undefined" d="M512 73.14a438.86 438.86 0 0 1 339.02 717.53 37.52 37.52 0 0 1 7.6 5.86l70.95 70.94c14.7 14.7 14.7 38.55 0 53.25l-8.85 8.85c-14.63 14.7-38.55 14.7-53.17 0l-70.95-70.95a37.52 37.52 0 0 1-5.85-7.6 438.86 438.86 0 1 1-278.75-777.88z m0 87.77a351.09 351.09 0 1 0 0 702.18 351.09 351.09 0 0 0 0-702.18z"/></svg>