<svg xmlns="http://www.w3.org/2000/svg" viewBox="0 0 1024 1024"><path fill="undefined" d="M512 292.57c24.8 0 44.91 20.11 44.91 44.91v129.61h129.61a44.91 44.91 0 0 1 0 89.82h-129.61v129.61a44.91 44.91 0 1 1-89.82 0v-129.61h-129.61a44.91 44.91 0 1 1 0-89.82h129.61v-129.61c0-24.87 20.11-44.91 44.91-44.91z"/><path fill="undefined" d="M512 73.14a438.86 438.86 0 0 1 339.02 717.53 37.52 37.52 0 0 1 7.6 5.86l70.95 70.94c14.7 14.7 14.7 38.55 0 53.25l-8.85 8.85c-14.63 14.7-38.55 14.7-53.17 0l-70.95-70.95a37.52 37.52 0 0 1-5.85-7.6 438.86 438.86 0 1 1-278.75-777.88z m0 87.77a351.09 351.09 0 1 0 0 702.18 351.09 351.09 0 0 0 0-702.18z"/></svg>