<svg xmlns="http://www.w3.org/2000/svg" viewBox="0 0 1024 1024"><path fill="undefined" d="M762.73 527.8a46.96 46.96 0 0 0-0.65-60.27 34.3 34.3 0 0 0-52.89 0.73c-12.65 14.77-32.77 28.45-56.61 38.4a182.56 182.56 0 0 1-66.93 14.85c-40.01 0-90.55-19.24-123.31-52.23a34.38 34.38 0 0 0-52.81 3.66 46.96 46.96 0 0 0 3.22 60.27c47.69 48.05 116.37 73.58 172.9 73.58 28.89 0 61.95-7.31 92.6-20.04 30.43-12.73 61.59-32.11 84.48-58.95z"/><path fill="undefined" d="M384 127.12v-0.14h440.98c85.94 0 156.38 84.77 156.38 170.71v301.2l-0.15 4.03c-3.51 83.6-72.48 164.06-156.23 164.06h-441.05c-85.87 0-170.57-84.7-170.57-170.65v-426.64c0-20.77-21.94-42.72-42.72-42.71h-85.28c-25.97 0-42.72-16.68-42.72-42.65 0-25.89 16.82-41.69 42.72-41.69h85.28c56.1 0 109.13 35.11 128 84.48h85.36z m512 426.13v-255.56c0-34.08-36.94-85.36-71.02-85.36h-526.34v384c0 34.08 51.27 85.36 85.36 85.36h440.98c34.08 0 70.95-51.27 70.95-85.36v-43.08z m-426.64 364.11a64 64 0 1 1-128 0 64 64 0 0 1 128 0z m320 64a64 64 0 1 0 0-128 64 64 0 0 0 0 128z"/></svg>