<svg xmlns="http://www.w3.org/2000/svg" viewBox="0 0 1024 1024"><path fill="undefined" d="M213.36 213.36c23.55 0 42.64 19.02 42.64 42.64v0.44a42.64 42.64 0 1 1-85.36 0v-0.44c0-23.55 19.16-42.64 42.72-42.64z m128 42.64c0-23.55 19.02-42.64 42.64-42.64h469.36a42.64 42.64 0 0 1 0 85.28h-469.36a42.64 42.64 0 0 1-42.64-42.64z m-128 213.36c23.55 0 42.64 19.02 42.64 42.64v0.44a42.64 42.64 0 1 1-85.36 0v-0.44c0-23.55 19.16-42.64 42.72-42.64z m128 42.64c0-23.55 19.02-42.64 42.64-42.64h469.36a42.64 42.64 0 0 1 0 85.28h-469.36a42.64 42.64 0 0 1-42.64-42.64z m-128 213.36c23.55 0 42.64 19.02 42.64 42.64v0.44a42.64 42.64 0 0 1-85.36 0v-0.44c0-23.55 19.16-42.64 42.72-42.64z m128 42.64c0-23.55 19.02-42.64 42.64-42.64h469.36a42.64 42.64 0 0 1 0 85.28h-469.36a42.64 42.64 0 0 1-42.64-42.64z"/></svg>