<svg xmlns="http://www.w3.org/2000/svg" viewBox="0 0 1024 1024"><path fill="#1A1A1A" d="M709.21 587.54a33.73 33.73 0 0 1 47.08-3.67c14.02 11.8 15.7 32.58 3.73 46.4-53.5 61.82-146.82 99.33-248.4 99.33-100.99 0-193.83-37.08-247.49-98.3a32.6 32.6 0 0 1 3.43-46.43 33.73 33.73 0 0 1 47.11 3.4c40.19 45.87 114.39 75.52 196.95 75.52 83.03 0 157.57-29.97 197.59-76.23z m-197.21-62.74c56.55 0 102.4-22.93 102.4-51.2s-45.85-51.2-102.4-51.2c-56.53 0-102.4 22.93-102.4 51.2 0 28.29 45.87 51.2 102.4 51.2z m-238.53-203.88c-26.62-6.55-55.94 22.14-65.58 64.08-9.66 41.94 4.1 81.15 30.72 87.68 26.65 6.55 55.94-22.14 65.6-64.08 9.64-41.94-4.12-81.15-30.74-87.68z m542.74 64.1c-9.64-41.94-38.95-70.61-65.58-64.08-26.62 6.53-40.38 45.74-30.72 87.68 9.62 41.94 38.93 70.61 65.56 64.08 26.65-6.53 40.41-45.74 30.74-87.68z"/><path fill="#1A1A1A" d="M512 981.33c298.37 0 512-212.03 512-471.16 0-259.14-230.06-467.5-512-467.5s-512 208.36-512 467.5c0 99.63 34.22 194.54 96.6 273.45 1.49 1.9 4.27 5.16 8.32 9.89l33.75 38.62a33.17 33.17 0 0 1-0.07 43.8l-4.26 5.39a63.74 63.74 0 0 0 9.15 83.91 62.08 62.08 0 0 0 42.49 16.1h326.02z m-287.42-85.33a118.53 118.53 0 0 0-21.76-120.11l-0.11-0.12-33.28-38.11a651.67 651.67 0 0 1-5.89-6.97c-50.99-64.49-78.21-140.91-78.21-220.52 0-204.67 184.17-382.17 426.67-382.17s426.67 177.49 426.67 382.17c0 207.23-170.52 385.83-426.67 385.83h-287.42z"/></svg>