<svg xmlns="http://www.w3.org/2000/svg" viewBox="0 0 1024 1024"><path fill="undefined" d="M512 85.36c23.55 0 42.64 19.02 42.64 42.64v420.94l186.08-155.07a42.64 42.64 0 1 1 54.56 65.54l-256 213.36a42.64 42.64 0 0 1-54.56 0l-256-213.36a42.64 42.64 0 0 1 54.56-65.54l186.08 155.07v-420.94c0-23.55 19.02-42.64 42.64-42.64z m-384 597.28c23.55 0 42.64 19.09 42.64 42.72v85.28a42.64 42.64 0 0 0 42.72 42.72h597.28a42.64 42.64 0 0 0 42.72-42.72v-85.28a42.64 42.64 0 1 1 85.28 0v85.28a128 128 0 0 1-128 128h-597.28a128 128 0 0 1-128-128v-85.28c0-23.63 19.02-42.72 42.64-42.72z"/></svg>