<svg xmlns="http://www.w3.org/2000/svg" viewBox="0 0 1024 1024"><path fill="undefined" d="M512 257.24c-145.99 0-279.92 106.5-362.86 192.22a88.14 88.14 0 0 0 0 125.08c82.94 85.72 216.87 192.22 362.86 192.22s279.92-106.5 362.86-192.22c34.67-35.84 34.67-89.23 0-125.08-82.94-85.72-216.87-192.22-362.86-192.22z m-420.72 136.27c84.85-87.7 239.32-216.72 420.72-216.72s335.8 129.02 420.72 216.72a168.59 168.59 0 0 1 0 236.98c-84.85 87.63-239.32 216.65-420.72 216.65s-335.8-128.88-420.72-216.65a168.59 168.59 0 0 1 0-236.91z m420.72 32.25c-49.59 0-88.5 39.28-88.5 86.24s38.91 86.24 88.5 86.24 88.5-39.28 88.5-86.24-38.91-86.24-88.5-86.24z m-168.96 86.24c0-92.75 76.36-166.69 168.96-166.69s168.96 73.95 168.96 166.69-76.36 166.69-168.96 166.69-168.96-73.95-168.96-166.69z"/></svg>