<svg xmlns="http://www.w3.org/2000/svg" viewBox="0 0 1024 1024"><path fill="undefined" d="M487.2 175.18l-67.95 182.05a43.89 43.89 0 0 1-2.12 4.97 123.83 123.83 0 0 1-57.93 57.05c0.51 2.49 0.73 5.12 0.74 7.9v423.65h374.56a35.62 35.62 0 0 0 34.23-25.46l80.31-346.69 0.37-1.32a36.43 36.43 0 0 0-18.43-42.42 35.55 35.55 0 0 0-15.95-3.88h-220.01a43.89 43.89 0 0 1-41.84-57.27l39.35-110.67a81.77 81.77 0 0 0-39.72-89.45 95.96 95.96 0 0 0-7.31-0.51 389.63 389.63 0 0 0-30.28 0.44c-9.51 0.44-19.02 1.02-28.02 1.61z m-215.04 675.62v-419.77h-63.19a35.69 35.69 0 0 0-35.84 36.13v347.58a36.28 36.28 0 0 0 35.84 36.06h63.12z m34.31-507.61a35.62 35.62 0 0 0 30.94-18.07l76.65-206.85c6.22-17.85 23.11-33.13 41.99-32.91h92.74c5.92 0.22 12.21 0.66 18.21 1.53 5.12 0.73 13.68 2.41 22.09 6.59a168.74 168.74 0 0 1 89.68 116.44 169.69 169.69 0 0 1-2.05 78.26l-21.58 55.01h159.89a123.39 123.39 0 0 1 121.64 101.81 124.34 124.34 0 0 1-2.71 56.1l-80.46 346.99-0.29 1.32a123.9 123.9 0 0 1-118.71 89.23h-525.53c-32.91 0-64.37-13.09-87.48-36.35a124.12 124.12 0 0 1-36.13-87.55v-347.58a123.47 123.47 0 0 1 123.61-123.97h97.5z"/></svg>