<svg xmlns="http://www.w3.org/2000/svg" viewBox="0 0 1024 1024"><path d="M445.07 222.65a208.09 208.09 0 0 0-295.86 0 212.48 212.48 0 0 0 0 298.86l322.34 324.68c22.38 22.53 58.51 22.53 80.9 0l322.34-324.68a212.48 212.48 0 0 0 0-298.86 208.09 208.09 0 0 0-295.86 0l-35.84 36.06a43.89 43.89 0 0 1-62.18 0l-35.84-36.06z m-358.18-61.74a295.86 295.86 0 0 1 420.43 0l4.68 4.61 4.68-4.68a295.86 295.86 0 0 1 420.43 0 300.25 300.25 0 0 1 0 422.55l-322.34 324.61a144.68 144.68 0 0 1-205.54 0l-322.34-324.61a300.25 300.25 0 0 1 0-422.55z"/></svg>