<svg xmlns="http://www.w3.org/2000/svg" viewBox="0 0 1024 1024"><path fill="undefined" d="M713.65 686.37a42.64 42.64 0 1 0-61.95-58.66c-14.56 15.36-37.52 29.4-64.8 39.65-27.06 10.24-54.71 15.36-76.22 15.36-45.35 0-103.13-19.75-140.65-53.91a42.64 42.64 0 0 0-57.42 63.12c54.49 49.52 133.12 76.07 198.07 76.07 33.28 0 71.24-7.53 106.35-20.77 34.89-13.17 70.44-33.21 96.55-60.86z"/><path fill="undefined" d="M512 85.36c-37.96 0-74.83 12.65-104.74 35.84l-256 198.95a170.42 170.42 0 0 0-65.9 134.65v345.24a138.53 138.53 0 0 0 138.6 138.68h576a138.68 138.68 0 0 0 138.68-138.68v-345.24a170.42 170.42 0 0 0-66.05-134.8l-0.36-0.22-255.49-198.51a170.72 170.72 0 0 0-104.74-35.91z m341.36 369.44v345.24a53.17 53.17 0 0 1-53.4 53.32h-575.92a53.39 53.39 0 0 1-53.32-53.25v-345.31a85.07 85.07 0 0 1 32.91-67.29l256-198.87a85.36 85.36 0 0 1 104.81 0l256 198.94a84.85 84.85 0 0 1 32.92 67.3z"/></svg>