<svg xmlns="http://www.w3.org/2000/svg" viewBox="0 0 1024 1024"><path fill="undefined" d="M213.36 170.64a42.64 42.64 0 0 0-42.72 42.72v366.3l141.17-141.1c26.11-25.16 58.44-40.45 93.55-40.44 35.11 0 67.29 15.29 93.62 40.44l0.51 0.59 97.87 97.86 13.02-13.09c26.26-25.23 58.51-40.52 93.62-40.52s67.36 15.36 93.62 40.52a42.64 42.64 0 0 1-59.24 61.44c-13.39-12.8-25.31-16.6-34.38-16.6s-20.85 3.66-34.16 16.38l-42.35 42.43a42.64 42.64 0 0 1-60.34 0l-127.56-127.78c-13.31-12.73-25.16-16.46-34.16-16.46-9.07 0-20.92 3.73-34.16 16.46l-200.63 200.55v110.3c0 23.55 19.16 42.72 42.72 42.72h341.28a42.64 42.64 0 0 1 0 85.28h-341.28a128 128 0 0 1-128-128v-597.28c0-70.73 57.27-128 128-128h597.28c70.73 0 128 57.27 128 128v341.28a42.64 42.64 0 0 1-85.28 0v-341.28a42.64 42.64 0 0 0-42.72-42.72h-597.28z m384 170.72c0-23.55 19.02-42.72 42.64-42.72h0.44a42.64 42.64 0 1 1 0 85.36h-0.44a42.64 42.64 0 0 1-42.64-42.64z m97.79 353.79a42.64 42.64 0 0 1 60.34 0l76.51 76.51 76.51-76.51a42.64 42.64 0 1 1 60.34 60.34l-76.51 76.51 76.51 76.51a42.64 42.64 0 1 1-60.34 60.34l-76.51-76.51-76.51 76.51a42.64 42.64 0 0 1-60.34-60.34l76.51-76.51-76.51-76.51a42.64 42.64 0 0 1 0-60.34z"/></svg>