<svg xmlns="http://www.w3.org/2000/svg" viewBox="0 0 1024 1024"><path fill="undefined" d="M85.36 213.36c0-70.73 57.27-128 128-128h597.28c70.73 0 128 57.27 128 128v597.28a128 128 0 0 1-128 128h-597.28a128 128 0 0 1-128-128v-597.28z m85.28 486.98v110.3c0 23.55 19.09 42.72 42.72 42.72h597.28a42.64 42.64 0 0 0 42.72-42.72v-110.3l-115.2-115.2c-13.31-12.65-25.09-16.38-34.16-16.38s-20.85 3.66-34.16 16.38l-12.14 12.22 55.15 55.15a42.64 42.64 0 1 1-60.34 60.34l-212.99-212.99c-13.31-12.73-25.16-16.46-34.16-16.46-9.07 0-20.92 3.73-34.16 16.46l-200.56 200.48z m426.72-163.33l13.09-13.09c26.19-25.23 58.51-40.52 93.55-40.52 35.11 0 67.36 15.36 93.62 40.52l0.59 0.59 55.15 55.15v-366.3a42.64 42.64 0 0 0-42.72-42.72h-597.28a42.64 42.64 0 0 0-42.72 42.72v366.3l141.17-141.1c26.11-25.16 58.44-40.45 93.55-40.44 35.11 0 67.29 15.29 93.62 40.44l0.51 0.59 97.87 97.86z m0-195.65c0 23.55 19.02 42.64 42.64 42.64h0.44a42.64 42.64 0 1 0 0-85.36h-0.44a42.64 42.64 0 0 0-42.64 42.72z"/></svg>