<svg xmlns="http://www.w3.org/2000/svg" viewBox="0 0 1024 1024"><path fill="#333" d="M520.66 64.56a29.24 29.24 0 0 0-7.07-0.89c-16.21 0-29.35 13.14-29.35 29.35 0 15.83 12.54 28.7 28.23 29.29v0.08c0.38 0 0.75-0.01 1.12-0.02 216.49 0 389.63 173.94 389.63 390.44s-173.14 388.83-389.63 388.82-389.63-172.33-389.63-388.83c0-0.27 0.01-0.54 0.01-0.8h-0.01c0-16.21-13.14-29.35-29.35-29.35s-29.35 13.14-29.35 29.35c0 0.06 0.01 0.11 0.01 0.16 0 0.21-0.01 0.42-0.01 0.64 0 247.61 200.72 448.33 448.33 448.33 247.61 0 448.33-200.72 448.33-448.33 0-245.24-196.92-444.46-441.25-448.24z"/></svg>