<svg xmlns="http://www.w3.org/2000/svg" viewBox="0 0 1024 1024"><path d="M512 87.77c-191.78 0-351.09 164.5-351.09 372.23 0 101.16 55.44 221.77 132.47 318.97 38.03 48.05 79.73 88.36 119.58 116.3 40.89 28.53 75.12 40.96 99.04 40.96s58.15-12.43 99.04-40.96c39.79-27.94 81.55-68.24 119.58-116.3 77.02-97.28 132.46-217.82 132.47-318.9 0-207.8-159.31-372.3-351.09-372.3z m-438.86 372.23c0-251.9 194.34-460 438.86-460s438.86 208.09 438.86 460c0 128.66-68.02 268.14-151.41 373.46-42.2 53.32-89.97 99.91-138.09 133.63-47.1 32.99-99.25 56.91-149.36 56.91-50.1 0-102.25-23.92-149.36-56.91-48.13-33.65-95.82-80.31-138.09-133.63-83.38-105.33-151.41-244.81-151.41-373.39z"/><path d="M512 364.47c-45.86 0-87.77 38.55-87.77 91.94s41.91 91.94 87.77 91.94 87.77-38.55 87.77-91.94-41.91-91.94-87.77-91.94z m-175.54 91.94a175.54 175.54 0 1 1 351.08 0 175.54 175.54 0 1 1-351.08 0z"/></svg>