<svg xmlns="http://www.w3.org/2000/svg" viewBox="0 0 1024 1024"><path fill="undefined" d="M178.83 114.98a42.64 42.64 0 1 0-59.75 61l105.32 102.99a925.55 925.55 0 0 0-133.12 114.54 168.59 168.59 0 0 0 0 236.98c84.85 87.63 239.32 216.65 420.72 216.65 82.65 0 159.74-26.77 227.18-64.29l119.52 117.03a42.64 42.64 0 1 0 59.68-61.08l-739.55-723.82z m499.94 608.84c-52 25.89-108.47 42.93-166.84 42.94-145.99 0-279.92-106.5-362.86-192.22a88.14 88.14 0 0 1 0-125.08 830.03 830.03 0 0 1 133.92-113l87.04 85.21a164.06 164.06 0 0 0-26.99 90.33c0 92.75 76.36 166.69 168.96 166.69a170.42 170.42 0 0 0 92.75-27.35l74.09 72.48z m-248.98-243.78l114.61 112.2a90.4 90.4 0 0 1-32.4 6.07c-49.59 0-88.5-39.28-88.5-86.24 0-11.26 2.19-22.02 6.29-31.96z m445.07 94.5c-16.09 16.53-34.01 33.94-53.54 51.2l57.64 56.32c20.11-17.85 38.03-35.4 53.76-51.64a168.59 168.59 0 0 0 0-236.91c-84.85-87.7-239.32-216.72-420.72-216.72-44.54 0-87.41 7.75-128 20.77l67 65.68a319.63 319.63 0 0 1 61-6c145.99 0 279.92 106.5 362.86 192.22 34.67 35.84 34.67 89.23 0 125.08z"/></svg>