<svg xmlns="http://www.w3.org/2000/svg" viewBox="0 0 1024 1024"><path d="M650.61 429.2a268.51 268.51 0 0 1-59.4 67.66 171.74 171.74 0 1 0 66.93-334.26c14.12 26.19 23.99 54.86 28.74 85.28a95.38 95.38 0 0 1-36.27 181.32z m147.31 414.14a163.4 163.4 0 0 0 25.74-89.16 138.24 138.24 0 0 0 41.25-25.68c8.78-8.63 9.65-14.12 9.66-16.09 0-2.19-0.88-7.61-9.66-16.24-8.92-8.78-23.7-18.36-45.12-27.28a303.18 303.18 0 0 0-29.92-10.6c-27.06-37.52-69.12-70.22-121.56-95.09 68.75 2.34 132.1 14.92 180.81 35.18 26.92 11.26 51.2 25.6 69.33 43.45 18.29 17.99 32.4 41.84 32.41 70.51s-14.12 52.52-32.41 70.51c-18.14 17.85-42.42 32.18-69.33 43.44-15.65 6.51-32.77 12.21-51.2 17.05z"/><path d="M438.86 160.91c-79.29 0-140 60.85-140 131.66 0 70.8 60.71 131.66 140 131.66s140-60.85 139.99-131.66c0-70.8-60.71-131.66-139.99-131.66z m-227.77 131.66c0-123.1 103.86-219.43 227.77-219.43 123.83 0 227.77 96.33 227.76 219.43s-103.86 219.43-227.76 219.43c-123.83 0-227.77-96.33-227.77-219.43z m19.09 391.83c-54.35 25.89-69.27 53.25-69.27 68.97 0 15.73 14.92 43.08 69.27 68.98 51.2 24.43 124.85 40.74 208.68 40.74 83.82 0 157.55-16.31 208.67-40.74 54.35-25.89 69.27-53.25 69.27-68.98 0-15.8-14.92-43.08-69.27-68.97-51.2-24.43-124.85-40.74-208.67-40.74s-157.55 16.31-208.68 40.74z m-37.81-79.22c65.39-31.23 152.58-49.3 246.49-49.29 93.92 0 181.1 18.07 246.49 49.29 62.1 29.62 119.22 79.14 119.22 148.19s-57.12 118.56-119.22 148.19c-65.39 31.23-152.58 49.3-246.49 49.3-93.92 0-181.1-18.07-246.49-49.3-62.1-29.62-119.22-79.14-119.23-148.19 0-69.05 57.12-118.56 119.23-148.19z"/></svg>