<svg xmlns="http://www.w3.org/2000/svg" viewBox="0 0 1024 1024"><path d="M636.71 3.15a43.89 43.89 0 0 1 57.05 24.35l58.22 144.68a43.89 43.89 0 0 1-62.02 54.78 365.79 365.79 0 0 0-177.96-45.57c-196.1 0-351.09 150.24-351.09 330.61 0 59.83 16.82 115.93 46.45 164.43a43.89 43.89 0 0 1-74.97 45.71 401.92 401.92 0 0 1-59.25-210.14c0-233.25 198.73-418.38 438.86-418.38 41.62 0 81.92 5.56 120.17 15.87l-19.82-49.22a43.89 43.89 0 0 1 24.36-57.05z m194.56 284.16a43.89 43.89 0 0 1 60.34 14.62c37.6 61.59 59.25 133.49 59.25 210.07 0 233.25-198.73 418.38-438.86 418.38a459.34 459.34 0 0 1-120.17-15.87l19.82 49.22a43.89 43.89 0 0 1-81.41 32.77l-58.15-144.68a43.89 43.89 0 0 1 61.95-54.78 365.79 365.79 0 0 0 177.96 45.57c196.1 0 351.09-150.16 351.09-330.61 0-59.83-16.82-115.86-46.45-164.35a43.89 43.89 0 0 1 14.63-60.34z"/></svg>