<svg xmlns="http://www.w3.org/2000/svg" viewBox="0 0 1024 1024"><path fill="#1A1A1A" d="M42.67 170.67a128 128 0 0 1 128-128h170.66a128 128 0 0 1 128 128v170.66a128 128 0 0 1-128 128h-170.66a128 128 0 0 1-128-128v-170.66z m128-42.67a42.67 42.67 0 0 0-42.67 42.67v170.66a42.67 42.67 0 0 0 42.67 42.67h170.66a42.67 42.67 0 0 0 42.67-42.67v-170.66a42.67 42.67 0 0 0-42.67-42.67h-170.66z m512 426.67a128 128 0 0 0-128 128v170.66a128 128 0 0 0 128 128h170.66a128 128 0 0 0 128-128v-170.66a128 128 0 0 0-128-128h-170.66z m170.66 85.33a42.67 42.67 0 0 1 42.67 42.67v170.66a42.67 42.67 0 0 1-42.67 42.67h-170.66a42.67 42.67 0 0 1-42.67-42.67v-170.66a42.67 42.67 0 0 1 42.67-42.67h170.66z m-250.73-551.68a42.67 42.67 0 1 0-10.54 84.65c135.02 16.85 242.13 123.95 258.97 258.99a42.67 42.67 0 0 0 72.04 25.34l87.96-85.33a42.67 42.67 0 0 0-59.41-61.27l-33.99 32.98c-47.02-135.85-168.11-237.06-315.03-255.36z m-429.61 503.74a42.67 42.67 0 0 0-72.04-25.36l-87.98 85.33a42.67 42.67 0 1 0 59.39 61.27l34.01-32.98c47.02 135.85 168.11 237.06 315.03 255.36a42.67 42.67 0 1 0 10.54-84.65c-135.02-16.85-242.13-123.95-258.95-258.99z"/></svg>