<svg xmlns="http://www.w3.org/2000/svg" viewBox="0 0 1024 1024"><path fill="undefined" d="M597.36 125.81c0-23.48 19.02-42.57 42.64-42.57h256c23.55 0 42.64 19.02 42.64 42.64v256a42.64 42.64 0 1 1-85.28 0v-152.58l-272.75 274.36a42.64 42.64 0 0 1-60.49-60.12l273.33-275.02h-153.45a42.64 42.64 0 0 1-42.64-42.64z m-413.99 57.49c-10.24 10.24-12.73 19.16-12.73 21.5v612.21c0 3.44 2.93 13.24 12.66 23.69 9.95 10.68 18.14 12.65 19.38 12.66h616.52c2.34 0 11.34-2.49 21.5-12.66 10.17-10.24 12.65-19.16 12.66-21.5v-190.39a42.64 42.64 0 1 1 85.28 0v190.39c0 33.06-18.29 62.46-37.59 81.85-19.38 19.38-48.86 37.6-81.85 37.59h-616.59c-34.01 0-63.2-19.82-81.78-39.79-18.72-20.19-35.47-49.74-35.47-81.77v-612.28c0-33.06 18.29-62.46 37.59-81.85 19.38-19.38 48.79-37.6 81.85-37.59h179.2a42.64 42.64 0 0 1 0 85.28h-179.2c-2.34 0-11.34 2.49-21.5 12.66z"/></svg>