<svg xmlns="http://www.w3.org/2000/svg" viewBox="0 0 1024 1024"><path d="M443.47 115.86a77.75 77.75 0 0 1 138.75 0l99.11 195 205.67 38.03a78.26 78.26 0 0 1 43.67 129.32l-147.02 163.33 28.09 220.89c7.83 62.17-56.76 107.96-112.42 79.72l-186.52-94.72-186.66 94.8c-55.59 28.23-120.1-17.26-112.49-79.29l26.26-214.31-147.75-171.74a78.26 78.26 0 0 1 44.4-127.93l208.82-39.93 98.01-193.17z m69.41 69.92l-87.7 172.62c-10.97 21.58-31.16 36.79-54.86 41.33l-189.8 36.27 134.58 156.53c14.41 16.75 21.07 38.77 18.43 60.71l-23.55 192 167.72-85.14a77.78 77.78 0 0 1 70.29 0l167.27 84.99-25.16-198.87c-2.93-22.6 4.24-45.35 19.46-62.25l133.12-147.89-185.86-34.38a77.9 77.9 0 0 1-55.29-41.33l-88.65-174.59z"/></svg>