<svg xmlns="http://www.w3.org/2000/svg" viewBox="0 0 1024 1024"><path d="M481.87 92.23a34.82 34.82 0 0 1 62.17 0l114.83 226.23a34.89 34.89 0 0 0 24.72 18.51l238.67 44.18a35.11 35.11 0 0 1 19.6 57.85l-169.91 188.93a35.11 35.11 0 0 0-8.78 27.87l32.4 255.41a34.89 34.89 0 0 1-50.32 35.62l-216.57-110a34.74 34.74 0 0 0-31.45 0l-216.87 110.22a34.89 34.89 0 0 1-50.4-35.54l30.36-247.67a35.11 35.11 0 0 0-8.2-27.2l-170.42-198.22a35.11 35.11 0 0 1 19.82-57.27l242.11-46.38a34.89 34.89 0 0 0 24.57-18.5l113.67-224.04z"/></svg>