<svg xmlns="http://www.w3.org/2000/svg" viewBox="0 0 1024 1024"><path d="M512 160.91c-79.29 0-140 60.85-140 131.66 0 70.8 60.71 131.66 140 131.66s140-60.85 140-131.66c0-70.8-60.71-131.66-140-131.66z m-227.77 131.66c0-123.1 103.86-219.43 227.77-219.43 123.83 0 227.77 96.33 227.77 219.43s-103.86 219.43-227.77 219.43c-123.83 0-227.77-96.33-227.77-219.43z m19.09 391.83c-54.35 25.89-69.27 53.25-69.26 68.97 0 15.73 14.92 43.08 69.26 68.98 51.2 24.43 124.85 40.74 208.68 40.74 83.82 0 157.55-16.31 208.68-40.74 54.35-25.89 69.27-53.25 69.26-68.98 0-15.8-14.92-43.08-69.26-68.97-51.2-24.43-124.85-40.74-208.68-40.74-83.82 0-157.55 16.31-208.68 40.74z m-37.81-79.22c65.39-31.23 152.58-49.3 246.49-49.29 93.92 0 181.1 18.07 246.49 49.29 62.1 29.62 119.22 79.14 119.22 148.19s-57.12 118.56-119.22 148.19c-65.39 31.23-152.58 49.3-246.49 49.3-93.92 0-181.1-18.07-246.49-49.3-62.1-29.62-119.22-79.14-119.22-148.19s57.12-118.56 119.22-148.19z"/></svg>